<?xml version="1.0" encoding="iso-8859-1"?>
<!-- Generator: Adobe Illustrator 19.0.0, SVG Export Plug-In . SVG Version: 6.00 Build 0)  -->
<svg version="1.1" id="Capa_1" xmlns="http://www.w3.org/2000/svg" xmlns:xlink="http://www.w3.org/1999/xlink" x="0px" y="0px"
	 viewBox="0 0 512 512" style="enable-background:new 0 0 512 512;" xml:space="preserve">
<path style="fill:#F4A14E;" d="M512,256c0,58.692-19.759,112.786-52.986,155.971c-8.944,11.63-18.881,22.476-29.664,32.392
	c-9.164,8.443-18.944,16.217-29.267,23.259c-32.214,21.985-69.694,36.791-110.173,42.151c-11.086,1.473-22.413,2.226-33.907,2.226
	c-66.873,0-127.748-25.631-173.348-67.636c-10.783-9.916-20.72-20.762-29.664-32.392c-21.211-27.564-36.937-59.58-45.526-94.406
	c-2.361-9.55-4.19-19.331-5.433-29.278C0.693,277.713,0.003,266.94,0.003,256c0-19.08,2.09-37.668,6.05-55.557
	c2.205-9.989,4.995-19.759,8.338-29.278c15.193-43.248,41.66-81.178,75.88-110.278c14.733-12.539,30.918-23.426,48.243-32.392
	c35.182-18.212,75.138-28.494,117.488-28.494s82.306,10.282,117.488,28.494c17.324,8.965,33.51,19.853,48.243,32.392
	c7.095,6.029,13.845,12.434,20.24,19.195c23.688,25.025,42.381,54.836,54.47,87.834C506.504,195.386,512,225.04,512,256z"/>
<g>
	<path style="fill:#F9AF6B;" d="M289.908,509.773c0.157-0.836,0.23-1.693,0.23-2.57c0-4.033-1.64-7.701-4.284-10.344
		c-2.654-2.654-6.311-4.294-10.355-4.294h-4.065c-8.087,0-14.639-6.551-14.639-14.639c0-4.044,1.64-7.701,4.284-10.355
		c2.654-2.644,6.311-4.284,10.355-4.284h118.24c4.065,0,7.753,1.661,10.407,4.336C367.868,489.606,330.387,504.413,289.908,509.773z
		"/>
	<path style="fill:#F9AF6B;" d="M496.442,167.916H392.109c-4.044,0-7.701-1.64-10.355-4.284c-2.644-2.654-4.284-6.311-4.284-10.355
		c0-8.087,6.551-14.639,14.639-14.639h4.075c4.033,0,7.701-1.64,10.344-4.284c2.654-2.654,4.294-6.311,4.294-10.355
		c0-8.087-6.562-14.639-14.639-14.639h-39.915c-4.033,0-7.701-1.64-10.344-4.284c-2.654-2.654-4.294-6.311-4.294-10.355
		c0-8.087,6.562-14.639,14.639-14.639h85.702C465.659,105.107,484.352,134.918,496.442,167.916z"/>
	<path style="fill:#F9AF6B;" d="M404.395,244.365L404.395,244.365c0-8.085,6.555-14.64,14.64-14.64h47.178
		c8.085,0,14.64-6.555,14.64-14.64l0,0c0-8.085-6.555-14.64-14.64-14.64h-139.08c-8.085,0-14.64,6.555-14.64,14.64l0,0
		c0,8.085-6.555,14.64-14.64,14.64h-47.178c-8.085,0-14.64,6.555-14.64,14.64l0,0c0,8.085,6.555,14.64,14.64,14.64h69.952
		c8.085,0,14.64,6.555,14.64,14.64l0,0c0,8.085,6.555,14.64,14.64,14.64h139.081c8.085,0,14.64-6.555,14.64-14.64l0,0
		c0-8.085-6.555-14.64-14.64-14.64h-69.952C410.95,259.005,404.395,252.45,404.395,244.365z"/>
	<path style="fill:#F9AF6B;" d="M248.614,263.293c2.654,2.654,4.294,6.311,4.294,10.355c0,8.087-6.562,14.639-14.639,14.639h-1.442
		c-4.044,0-7.701,1.641-10.355,4.284c-2.644,2.654-4.284,6.311-4.284,10.355c0,8.087-6.551,14.639-14.639,14.639H7.464
		c-2.361-9.55-4.19-19.331-5.433-29.278h39.173c4.044,0,7.701-1.64,10.355-4.284c2.654-2.654,4.295-6.311,4.295-10.355
		c0-8.087-6.562-14.639-14.649-14.639H28.79c-4.044,0-7.701-1.64-10.355-4.294c-2.644-2.644-4.284-6.311-4.284-10.344
		c0-8.087,6.551-14.649,14.639-14.649h41.116c4.044,0,7.701-1.64,10.355-4.284c2.644-2.654,4.284-6.311,4.284-10.355
		c0-8.087-6.551-14.639-14.639-14.639H6.053c2.205-9.989,4.995-19.759,8.338-29.278h189.711c4.044,0,7.701,1.64,10.355,4.284
		c2.644,2.654,4.284,6.311,4.284,10.355c0,8.087,6.562,14.639,14.649,14.639h4.88c8.077,0,14.639,6.551,14.639,14.639
		c0,8.087-6.562,14.639-14.639,14.639h-26.843c-4.044,0-7.701,1.64-10.355,4.294c-2.644,2.644-4.284,6.311-4.284,10.355
		c0,8.077,6.551,14.639,14.639,14.639h26.843C242.313,259.009,245.971,260.65,248.614,263.293z"/>
</g>
<path style="fill:#E28D40;" d="M16.456,346.469H379.07c9.088,0,16.456,7.368,16.456,16.456l0,0c0,9.088-7.368,16.456-16.456,16.456
	H16.456C7.368,379.381,0,372.013,0,362.925l0,0C0,353.836,7.368,346.469,16.456,346.469z"/>
<path style="fill:#F9AF6B;" d="M247.001,91.417v-0.001c0-8.085-6.555-14.639-14.639-14.639H93.279
	c-8.085,0-14.639,6.555-14.639,14.639v0.001c0,8.085,6.555,14.639,14.639,14.639h23.18c8.085,0,14.639,6.555,14.639,14.639v0.001
	c0,8.085,6.555,14.639,14.639,14.639h115.902c8.085,0,14.639-6.555,14.639-14.639v-0.001c0-8.085-6.555-14.639-14.639-14.639l0,0
	C253.554,106.056,247.001,99.502,247.001,91.417z"/>
<polyline style="fill:#5C5E70;" points="239.699,358.122 41.799,358.122 41.799,328.38 132.704,328.38 34.485,219.711 
	77.848,176.348 "/>
<g>
	<path style="fill:#FF525D;" d="M299.532,179.415c-3.203,0-6.054-2.275-6.667-5.537c-2.501-13.286,1.417-41.516,34.142-53.259
		c3.532-1.267,7.421,0.568,8.686,4.098c1.266,3.531-0.568,7.42-4.099,8.686c-30.121,10.809-25.587,36.857-25.38,37.962
		c0.694,3.686-1.731,7.237-5.419,7.931C300.371,179.376,299.949,179.415,299.532,179.415z"/>
	<path style="fill:#FF525D;" d="M431.857,308.683l-6.51,18.965c-8.704,24.043-34.116,38.379-60.416,36.697l-94.855,0.846
		c-20.177-1.296-39.361-8.944-54.596-21.796l-33.228-26.018l-43.865-34.346c-6.949-5.433-10.961-13.751-10.961-22.497
		c0-0.825,0.031-1.651,0.104-2.476c0.052-0.606,0.073-1.202,0.073-1.797c0-10.627-8.087-19.811-19.163-21.337
		c-7.387-1.024-14.116-4.796-18.829-10.574l-21.64-26.478c-9.707-11.88-8.296-28.975,3.229-39.215l34.983-30.918l23.144,12.863
		L431.857,308.683z"/>
</g>
<path style="fill:#34ABE0;" d="M433.236,299.342c0,8.704-3.657,16.593-9.561,22.308c-5.914,5.705-14.075,9.237-23.092,9.237h-89.704
	c-33.478,0-65.577-12.873-89.213-35.788l-28.327-27.449l-0.982-0.951l-66.884-64.825l-26.007-25.213
	c-5.966-5.768-9.101-13.239-9.394-20.793c-0.397-9.958,4.462-19.445,12.591-25.589l21.441-16.227l52.6-39.8
	c4.378-4.221,11.807-0.784,11.159,5.151c-0.303,2.79-0.46,5.559-0.46,8.296c0,16.363,5.35,31.754,14.587,44.429
	c12.894,17.7,33.353,30.103,57.396,32.486l38.274,3.783c8.997,0.899,16.687,6.646,19.832,14.837l26.269,68.44l1.024,0.993
	c5.089,2.236,14.524,4.89,38.525,9.174c2.612,0.46,5.402,0.94,8.38,1.452C411.649,266.7,430.77,274.735,433.236,299.342z"/>
<g>
	<path style="fill:#F9EED7;" d="M336.81,224.9h-37.714c-3.751,0-6.792-3.041-6.792-6.792s3.041-6.792,6.792-6.792h37.714
		c3.751,0,6.792,3.041,6.792,6.792S340.562,224.9,336.81,224.9z"/>
	<path style="fill:#F9EED7;" d="M347.259,245.369h-37.714c-3.751,0-6.792-3.041-6.792-6.792s3.041-6.792,6.792-6.792h37.714
		c3.751,0,6.792,3.041,6.792,6.792S351.01,245.369,347.259,245.369z"/>
	<path style="fill:#F9EED7;" d="M326.641,204.43h-37.714c-3.751,0-6.792-3.041-6.792-6.792s3.041-6.792,6.792-6.792h37.714
		c3.751,0,6.792,3.041,6.792,6.792S330.393,204.43,326.641,204.43z"/>
</g>
<path style="fill:#EF4152;" d="M182.253,317.377l-43.865-34.346c-6.949-5.433-10.961-13.751-10.961-22.497
	c0-0.825,0.031-1.651,0.104-2.476c0.052-0.606,0.073-1.202,0.073-1.797c0-10.627-8.087-19.811-19.163-21.337
	c-7.387-1.024-14.116-4.796-18.829-10.574l-21.64-26.478c-9.707-11.88-8.296-28.975,3.229-39.215l34.983-30.918l23.144,12.863
	l40.197,103.967C169.526,244.569,151.335,261.444,182.253,317.377z"/>
<path style="fill:#279FC9;" d="M189.829,260.598c0.909,2.1,1.755,4.138,2.529,6.102l-66.884-64.825l-26.007-25.213
	c-5.966-5.768-9.101-13.239-9.394-20.793c-0.397-9.958,4.462-19.445,12.591-25.589l21.441-16.227l52.6-39.8
	c4.378-4.221,11.807-0.784,11.159,5.151c-0.303,2.79-0.46,5.559-0.46,8.296c0,16.363,5.35,31.754,14.587,44.429
	C184.782,153.956,162.63,197.82,189.829,260.598z"/>
<path style="fill:#F9EED7;" d="M297.672,176.755c-0.276,0-0.553-0.014-0.833-0.041l-38.274-3.783
	c-25.476-2.524-48.557-15.603-63.329-35.883c-10.592-14.531-16.191-31.598-16.191-49.35c0-2.994,0.171-6.09,0.509-9.199
	c0.498-4.59,4.622-7.909,9.213-7.407c4.589,0.498,7.906,4.624,7.407,9.213c-0.273,2.513-0.412,5-0.412,7.394
	c0,14.191,4.49,27.852,12.984,39.505c11.971,16.434,30.728,27.037,51.465,29.091l38.272,3.783c4.593,0.455,7.95,4.546,7.496,9.141
	C305.553,173.533,301.918,176.755,297.672,176.755z"/>
<path style="fill:#E8DBC4;" d="M127.219,201.112l-1.745,0.763l-26.007-25.213c-5.966-5.768-9.101-13.239-9.394-20.793
	c-0.397-9.958,4.462-19.445,12.591-25.589l21.441-16.227l3.114,1.787l2.978,2.936C153.717,142.002,152.359,179.514,127.219,201.112z
	"/>
<path style="fill:#F9EED7;" d="M433.236,299.342c0,8.704-3.657,16.593-9.561,22.308c-5.914,5.705-14.075,9.237-23.092,9.237h-89.704
	c-33.478,0-65.577-12.873-89.213-35.788l-28.327-27.449l-3.511-7.053c19.56-14.89,47.386-14.002,65.891,2.111l40.834,35.568h49.204
	c19.623,0,35.85-14.775,37-33.708l0.554-2.727c2.612,0.46,5.402,0.94,8.38,1.452C411.649,266.7,430.77,274.735,433.236,299.342z"/>
<polyline style="fill:#279FC9;" points="344.786,252.667 303.022,285.539 364.906,258.295 "/>
<g>
	<path style="fill:#FCF8F2;" d="M459.014,411.971c-8.944,11.63-18.881,22.476-29.664,32.392H82.654
		c-10.783-9.916-20.72-20.762-29.664-32.392H459.014z"/>
	<path style="fill:#FCF8F2;" d="M421.732,60.887H90.271c14.733-12.539,30.918-23.426,48.243-32.392h234.975
		C390.814,37.461,406.999,48.349,421.732,60.887z"/>
</g>
<g>
</g>
<g>
</g>
<g>
</g>
<g>
</g>
<g>
</g>
<g>
</g>
<g>
</g>
<g>
</g>
<g>
</g>
<g>
</g>
<g>
</g>
<g>
</g>
<g>
</g>
<g>
</g>
<g>
</g>
</svg>
