<svg id="Capa_1" enable-background="new 0 0 512 512" height="512" viewBox="0 0 512 512" width="512" xmlns="http://www.w3.org/2000/svg"><circle cx="258.487" cy="267" fill="#a7e8f1" r="245"/><g fill="#00c285"><path d="m130.756 417.613h-65.492c18.105 23.198 40.297 43.047 65.491 58.475v-58.475z"/><path d="m77.573 319h-58.537c2.853 13.196 6.778 25.99 11.662 38.302z"/><path d="m105.536 367.613v2h25.22v-21.995l-23.893 19.522c-.373.305-.845.473-1.327.473z"/><path d="m388.379 319-16.607 72.893c-.418 1.832-2.022 3.111-3.9 3.111h-5.115v93.748c68.014-32.043 118.904-94.451 135.181-169.752z"/></g><path d="m384.278 391h-12.304l-.203.893c-.418 1.832-2.022 3.111-3.9 3.111h-5.115v10.996h21.522c4.583 0 8.334-3.375 8.334-7.5s-3.751-7.5-8.334-7.5z" fill="#00b37b"/><path d="m435.56 435h-27.615c-4.584 0-8.333 3.375-8.333 7.5s3.749 7.5 8.333 7.5h13.425c5.329-4.748 10.444-9.728 15.34-14.92-.377-.047-.759-.08-1.15-.08z" fill="#00b37b"/><path d="m129.756 475.476c10.829 6.701 22.222 12.577 34.086 17.553v-6.366l-.648-.244c-3.464-1.307-5.791-4.661-5.79-8.347 0-2.832 1.308-5.436 3.589-7.146.633-.471 1.012-1.227 1.013-2.021-.001-.794-.379-1.55-1.011-2.023-2.283-1.708-3.593-4.311-3.593-7.143.001-2.831 1.31-5.435 3.592-7.142.634-.476 1.011-1.232 1.012-2.023.002-.784-.374-1.539-1.006-2.02-2.287-1.712-3.596-4.315-3.596-7.147-.001-2.829 1.308-5.432 3.589-7.143.636-.477 1.015-1.233 1.013-2.024.002-.788-.377-1.545-1.013-2.021-1.466-1.097-2.545-2.587-3.12-4.307l-.094-.278-.229-.184c-3.816-3.066-6.005-7.612-6.004-12.472v-40.808c0-7.081 4.76-13.406 11.574-15.38l.722-.21v-19.811l-10.973-70.769h-1.29c-6.637 0-13.126 1.965-18.274 6.171l-111.306 90.947c-1.014.828-1.397 2.205-.957 3.438.439 1.233 1.607 2.057 2.917 2.057h81.577c.715 0 1.406-.246 1.96-.698l22.26-18.188v19.887h20.993c-.134.861-.202 1.718-.202 2.558v40.808c-.001 1.565.219 3.118.652 4.635h-21.443z" fill="#b4dbff"/><path d="m365.381 266.878c-2.259-.513-4.563-.79-6.861-.852l-.008-.026h-76.529v7.345c0 14.631-11.902 26.533-26.533 26.533h-.745c-14.63 0-26.533-11.902-26.533-26.533v-7.345h-27.346l-10.972 70.771v19.379h1.971c2.381 0 4.623.93 6.312 2.619 1.688 1.688 2.618 3.929 2.618 6.31 0 2.832-1.309 5.436-3.59 7.147-.632.471-1.012 1.227-1.013 2.02.001.794.379 1.55 1.011 2.023 2.284 1.708 3.593 4.311 3.593 7.143 0 2.831-1.31 5.435-3.592 7.142-.633.476-1.011 1.232-1.012 2.023-.001.784.375 1.539 1.006 2.02 2.288 1.712 3.597 4.314 3.597 7.146.001 2.829-1.308 5.432-3.59 7.143-.636.477-1.014 1.233-1.013 2.024-.001.788.377 1.545 1.014 2.021 1.456 1.091 2.529 2.57 3.103 4.28l.094.278.23.184c3.826 3.068 6.02 7.624 6.02 12.498v40.808c0 8.693-7.075 15.875-15.772 16.008l-.985.016v15.242c21.777 6.347 44.806 9.756 68.634 9.756 37.684 0 73.375-8.518 105.269-23.717v-92.279h4.115c2.334 0 4.356-1.614 4.875-3.89l18.987-83.335c4.284-18.817-7.537-37.614-26.355-41.902z" fill="#b4dbff"/><path d="m160.894 324.283-31.139 24.118v20.212h21.172c1.311-6.139 5.941-11.053 11.915-12.783v-18.982z" fill="#e3f3ff"/><path d="m302.425 394.122c-.949-1.19-1.305-2.746-.967-4.229l17.901-78.893h-41.095l-18.518 28.188c-3.02 4.597-7.962 4.597-10.981 0l-18.517-28.188h-35.386l-4.008 25.848v18.302h.971c5.476 0 9.931 4.455 9.93 9.929 0 3.149-1.453 6.045-3.99 7.946-.385.287-.611.74-.612 1.222.001.48.229.936.611 1.223 2.538 1.898 3.992 4.794 3.992 7.942 0 3.147-1.454 6.043-3.992 7.942-.384.288-.61.741-.611 1.224-.001.48.228.931.611 1.222 2.539 1.9 3.991 4.795 3.991 7.943.001 3.147-1.453 6.041-3.99 7.942-.384.288-.613.742-.612 1.223-.001.48.228.935.612 1.223 1.651 1.236 2.833 2.897 3.464 4.771 2.844 2.284 4.926 5.461 5.847 9.103h96.589l6.835-30h-4.166c-1.523-.001-2.961-.694-3.909-1.883z" fill="#e3f3ff"/><path d="m361.78 396.004-13.797 60.554c-2.592 11.376-12.708 19.446-24.375 19.446h-116.756c-2.123 6.859-8.477 11.868-15.999 11.982v14.548c21.481 6.161 44.171 9.466 67.634 9.466 37.684 0 73.375-8.518 105.269-23.717v-92.279z" fill="#e3f3ff"/><path d="m162.842 487.353c-3.756-1.417-6.439-5.038-6.438-9.282 0-3.149 1.452-6.045 3.989-7.946.386-.287.612-.74.612-1.222 0-.48-.228-.935-.61-1.223-2.539-1.898-3.993-4.794-3.993-7.942.001-3.148 1.454-6.043 3.993-7.942.384-.288.61-.741.61-1.224.001-.48-.228-.931-.61-1.222-2.539-1.9-3.991-4.795-3.991-7.943-.001-3.146 1.452-6.041 3.989-7.942.385-.288.613-.742.612-1.223.001-.48-.228-.935-.612-1.223-1.65-1.236-2.832-2.897-3.463-4.772-2.455-1.971-4.341-4.608-5.407-7.635h-21.768v56.862c10.525 6.514 21.581 12.253 33.086 17.139v-5.26z" fill="#e3f3ff"/><path d="m281.983 266v7.345c0 14.631-11.902 26.533-26.533 26.533h-.745c-14.63 0-26.533-11.902-26.533-26.533v-7.345h-27.346l-.026.174 47.966 73.014c3.02 4.597 7.961 4.597 10.981 0l48.08-73.188z" fill="#015a9a"/><path d="m250.393 299.522c-12.586-2.066-22.222-13.016-22.222-26.178v-7.344h-27.346l-.026.174 47.966 73.014c3.02 4.597 7.961 4.597 10.981 0l8.352-12.714z" fill="#015a9a"/><path d="m344.639 162.383v-10.383h-72.884v19c0 18.434-12.23 34.061-29 39.205v10.23l-15.813 9.816c.078.091.151.185.229.276v42.817c0 15.143 12.391 27.533 27.533 27.533h.745c15.144 0 27.533-12.391 27.533-27.533v-19.886c33.219-1.448 59.626-16.75 61.536-49.306h8.038c2.859 0 5.561-1.517 7.052-3.957s1.604-5.535.298-8.079z" fill="#fdb97e"/><path d="m250.872 273.345v-42.817l-7.116-9.528-16.584 10v42.345c0 15.143 12.391 27.533 27.533 27.533h.745c4.092 0 7.979-.911 11.477-2.53-9.452-4.373-16.055-13.951-16.055-25.003z" fill="#fea95c"/><path d="m230.756 212c-10.287 0-19.689-3.822-26.895-10.104v8.237c5.319 9.099 12.79 16.886 23.311 20.866l16.584-10v-11.125c-4.088 1.372-8.456 2.126-13 2.126z" fill="#eb6000"/><path d="m221.02 210.822c-6.451-1.577-12.304-4.688-17.159-8.917v8.229c5.319 9.099 12.79 16.886 23.311 20.866l7.836-4.725c-5.8-4.054-10.375-9.449-13.988-15.453z" fill="#eb6000"/><path d="m308.661 152c-.027.281-.043.566-.043.855v13.661c0 4.871 3.983 8.855 8.853 8.855h3.205c4.871 0 8.855-3.983 8.855-8.855v-13.661c0-.288-.017-.573-.044-.855z" fill="#eb6000"/><path d="m387.064 135.271-36.699-13.521v-7.51c0-34.375-27.866-62.241-62.241-62.241h-37.127c-18.846 0-35.723 8.388-47.137 21.62l.001 129.634c7.286 6.082 16.661 9.746 26.895 9.746 23.196 0 42-18.804 42-42v-18h114c2.75 0 5-2.25 5-5v-6c0-2.749-2.112-5.776-4.692-6.728z" fill="#015a9a"/><path d="m218.177 188.158c-5.985-4.043-9.921-10.891-9.921-18.658 0-6.04 2.385-11.52 6.257-15.561v-39.698c0-34.375 27.866-62.241 62.241-62.241h-25.757c-18.846 0-35.723 8.388-47.137 21.62l.001 129.634c7.286 6.082 16.661 9.746 26.895 9.746 4.494 0 8.819-.713 12.879-2.02-11.372-3.66-20.622-12.037-25.458-22.822z" fill="#004281"/><circle cx="230.756" cy="169.5" fill="#0268b4" r="22.5"/><path d="m223.512 169.5c0-9.748 6.2-18.047 14.872-21.171-2.383-.858-4.95-1.329-7.629-1.329-12.427 0-22.5 10.073-22.5 22.5s10.073 22.5 22.5 22.5c2.679 0 5.246-.471 7.629-1.329-8.671-3.124-14.872-11.423-14.872-21.171z" fill="#015a9a"/><path d="m151.547 412.978v-40.808c0-1.224.15-2.411.412-3.558h-46.423-1.915-79.022l-6.903 5.641c-8.186 6.689-11.279 17.801-7.73 27.757 3.55 9.955 12.977 16.603 23.548 16.603h119.067c-.669-1.78-1.035-3.678-1.034-5.635z" fill="#015a9a"/><path d="m37.893 402.011c-3.55-9.956-.456-21.068 7.729-27.757l6.903-5.641h-27.926l-6.903 5.641c-8.186 6.689-11.279 17.801-7.73 27.757 3.55 9.955 12.977 16.603 23.548 16.603h27.927c-10.57-.001-19.998-6.648-23.548-16.603z" fill="#004281"/><path d="m190.593 487h-24.259c-1.22 0-2.401-.247-3.492-.712v6.336c9.07 3.85 18.421 7.166 28.012 9.915v-15.553c-.089.002-.174.014-.261.014z" fill="#98bce5"/><path d="m162.843 356.862c1.493-.462 3.08-.713 4.724-.713h23.288v-19.302l6.183-39.88h-40.378l6.184 39.88v20.015z" fill="#98bce5"/><path d="m162.843 356.862c1.493-.462 3.08-.713 4.724-.713h11.752v-19.302l-6.184-39.88h-16.476l6.184 39.88z" fill="#7bacdf"/><path d="m166.334 487c-1.22 0-2.401-.247-3.492-.712v6.336c5.392 2.288 10.894 4.364 16.476 6.269v-11.893z" fill="#7bacdf"/><path d="m157.404 423.077c0-4.923 4.005-8.928 8.928-8.928h24.259c4.146 0 8.046 1.581 11.041 4.439-.382-2.561-1.735-4.862-3.867-6.459-.385-.288-.613-.742-.612-1.223-.001-.48.229-.935.612-1.223 2.537-1.901 3.991-4.796 3.99-7.942 0-3.148-1.452-6.043-3.991-7.943-.384-.291-.612-.741-.611-1.222.001-.482.228-.935.611-1.224 2.538-1.899 3.992-4.795 3.992-7.942 0-3.148-1.454-6.044-3.992-7.942-.383-.287-.61-.742-.611-1.223.001-.482.228-.935.612-1.222 2.537-1.901 3.99-4.797 3.99-7.946.001-5.474-4.454-9.929-9.93-9.929h-24.259c-9.386 0-17.02 7.637-17.02 17.021v40.808c-.001 6.062 3.189 11.377 7.971 14.393-.716-1.294-1.113-2.757-1.113-4.293z" fill="#fea95c"/><path d="m157.404 423.077c0-4.923 4.005-8.928 8.928-8.928h6.24c-.026-.389-.06-.775-.06-1.171l.001-40.808c0-9.385 7.634-17.021 17.018-17.021h-21.966c-9.386 0-17.02 7.637-17.02 17.021v40.808c-.001 6.062 3.189 11.377 7.971 14.393-.715-1.295-1.112-2.758-1.112-4.294z" fill="#ff9240"/><path d="m310.499 396.004-6.835 30h-97.615c.36 1.344.563 2.739.563 4.167v40.808c0 1.756-.294 3.442-.819 5.025h117.816c11.667 0 21.783-8.07 24.375-19.446l13.797-60.554z" fill="#015a9a"/><path d="m206.611 460v10.978c0 1.756-.294 3.442-.819 5.025h117.816c11.667 0 21.783-8.07 24.375-19.446l.138-.603c-3.949 2.567-8.637 4.046-13.613 4.046z" fill="#004281"/><path d="m190.593 488c9.385 0 17.019-7.637 17.019-17.022v-40.808c.002-9.389-7.632-17.022-17.021-17.021h-24.259c-5.475 0-9.928 4.452-9.928 9.928 0 3.148 1.452 6.042 3.989 7.942.385.288.613.742.612 1.223.001.48-.228.935-.612 1.223-2.537 1.901-3.99 4.796-3.989 7.942 0 3.148 1.452 6.043 3.991 7.943.383.291.611.741.61 1.222 0 .482-.227.936-.61 1.224-2.539 1.899-3.992 4.795-3.993 7.942 0 3.148 1.454 6.044 3.993 7.942.383.287.61.742.61 1.223 0 .482-.227.935-.612 1.222-2.537 1.901-3.989 4.797-3.989 7.946-.002 5.474 4.453 9.929 9.93 9.929z" fill="#fdb97e"/><path d="m172.514 478.071c0-3.149 1.452-6.045 3.989-7.946.386-.287.612-.74.612-1.222 0-.48-.227-.935-.61-1.223-2.539-1.898-3.993-4.794-3.993-7.942.001-3.148 1.454-6.043 3.993-7.942.384-.288.61-.741.61-1.224.001-.48-.227-.931-.61-1.222-2.539-1.9-3.991-4.795-3.991-7.943-.001-3.146 1.452-6.041 3.989-7.942.385-.288.613-.742.612-1.223.001-.48-.227-.935-.612-1.223-2.537-1.9-3.989-4.794-3.989-7.942 0-5.475 4.453-9.928 9.928-9.928h-16.11c-5.475 0-9.928 4.452-9.928 9.928 0 3.148 1.452 6.042 3.989 7.942.385.288.613.742.612 1.223.001.48-.228.935-.612 1.223-2.537 1.901-3.99 4.796-3.989 7.942 0 3.148 1.452 6.043 3.991 7.943.383.291.611.741.61 1.222 0 .482-.227.936-.61 1.224-2.539 1.899-3.992 4.795-3.993 7.942 0 3.148 1.454 6.044 3.993 7.942.383.287.61.742.61 1.223 0 .482-.227.935-.612 1.222-2.537 1.901-3.989 4.797-3.989 7.946-.002 5.474 4.453 9.929 9.93 9.929h16.11c-5.476 0-9.932-4.455-9.93-9.929z" fill="#fea95c"/><path d="m204.86 28.012c.001-15.447-12.566-28.013-28.013-28.012-15.446 0-28.012 12.566-28.012 28.013v26.549h.5c10.01.634 17.776 8.855 17.776 18.938v104c0 10.083-7.767 18.305-17.776 18.939h-.5v49.557c-.001.342.026.685.078 1.021l7.899 50.951h40.068l7.899-50.951c.053-.338.079-.681.08-1.021z" fill="#554e56"/><path d="m165.512 245.995v-59.723c-3.111 6.146-9.377 10.423-16.677 10.691v49.031c-.001.342.026.685.078 1.021l7.899 50.951h16.678l-7.9-50.951c-.05-.335-.078-.678-.078-1.02z" fill="#433f43"/><path d="m176.847 0c-15.446 0-28.012 12.566-28.012 28.013v26.023c7.3.269 13.566 4.545 16.677 10.691v-36.714c.001-12.543 8.286-23.186 19.672-26.744-2.634-.824-5.434-1.269-8.337-1.269z" fill="#433f43"/><circle cx="254.112" cy="365.5" fill="#b4dbff" r="7.5"/><circle cx="254.112" cy="406.5" fill="#b4dbff" r="7.5"/><circle cx="254.112" cy="488.5" fill="#b4dbff" r="7.5"/><path d="m127.946 152h-85.829c-7.863 14.764-14.263 30.424-18.998 46.793h62.583c4.766 0 8.664-3.51 8.664-7.799s-3.898-7.799-8.664-7.799h-19.498c-4.766 0-8.664-3.51-8.664-7.799s3.898-7.799 8.664-7.799h61.742c4.766 0 8.666-3.51 8.666-7.799 0-4.288-3.9-7.798-8.666-7.798z" fill="#d4f2f6"/><path d="m123.391 128.914c0 4.997-4.543 9.086-10.096 9.086h-15.587c-5.553 0-10.096-4.089-10.096-9.086s4.543-9.086 10.096-9.086h15.588c5.552 0 10.095 4.089 10.095 9.086z" fill="#d4f2f6"/><path d="m405.501 71h-29.224c-5.552 0-10.096 4.089-10.096 9.086 0 4.998 4.544 9.086 10.096 9.086h33.259c5.552 0 10.096 4.089 10.096 9.086s-4.544 9.085-10.096 9.085h-5.998c-5.553 0-10.096 4.089-10.096 9.086s4.543 9.086 10.096 9.086h54.984c-14.743-20.807-32.65-39.21-53.021-54.515z" fill="#d4f2f6"/><path d="m454.949 257.299c-17.563 17.561-46.035 17.561-63.597 0-17.563-17.563-17.561-46.035-.001-63.598 17.563-17.562 46.035-17.561 63.597 0s17.563 46.035.001 63.598z" fill="#fff"/><path d="m394.715 221.244c.95-10.052 5.271-19.846 12.969-27.543 3.811-3.811 8.138-6.789 12.753-8.943-.066-1.381-.208-2.748-.426-4.097-10.44.724-20.677 5.058-28.659 13.04-7.976 7.977-12.316 18.203-13.047 28.636 5.46.883 11.083.515 16.41-1.093z" fill="#eaf9fa"/><path d="m415.874 263.781c-2.912-1.797-5.664-3.957-8.189-6.483-7.245-7.244-11.492-16.347-12.76-25.772-5.308 1.258-10.793 1.587-16.191.956-.525-3.357-.666-6.76-.429-10.145-.879 12.539 3.462 25.375 13.048 34.961 6.998 6.998 15.732 11.188 24.814 12.605-.238-2.032-.324-4.077-.293-6.122z" fill="#eaf9fa"/><path d="m436.459 238.809c8.572-8.572 20.396-11.947 31.538-10.145.237-3.384.097-6.788-.429-10.146-13.599-1.588-27.77 2.81-38.181 13.22-10.409 10.409-14.809 24.581-13.221 38.18 3.358.525 6.762.666 10.146.429-1.801-11.143 1.574-22.966 10.147-31.538z" fill="#f46700"/><path d="m416.913 219.264c8.752-8.752 13.571-20.388 13.571-32.764 0-1.824-.117-3.628-.324-5.413-3.358-.527-6.764-.671-10.15-.435.309 1.916.475 3.869.474 5.848.001 9.705-3.778 18.829-10.642 25.692-8.572 8.571-20.395 11.946-31.537 10.145-.237 3.385-.097 6.788.429 10.146 13.598 1.587 27.769-2.81 38.179-13.219z" fill="#f46700"/><path d="m440.278 342h-27.615c-4.584 0-8.333 3.375-8.333 7.5s3.749 7.5 8.333 7.5h27.615c4.583 0 8.334-3.375 8.334-7.5s-3.751-7.5-8.334-7.5z" fill="#00b37b"/><path d="m148.836 196.964c10.432-.384 18.776-8.938 18.776-19.464v-104c0-10.525-8.345-19.08-18.776-19.464z" fill="#98bce5"/></svg>