<?xml version="1.0" encoding="iso-8859-1"?>
<!-- Generator: Adobe Illustrator 19.0.0, SVG Export Plug-In . SVG Version: 6.00 Build 0)  -->
<svg version="1.1" id="Capa_1" xmlns="http://www.w3.org/2000/svg" xmlns:xlink="http://www.w3.org/1999/xlink" x="0px" y="0px"
	 viewBox="0 0 512 512" style="enable-background:new 0 0 512 512;" xml:space="preserve">
<path style="fill:#FFD15C;" d="M511.219,255.219c0,14.99-1.292,29.689-3.781,43.971c-7.615,43.866-26.428,83.899-53.408,117.026
	C407.246,473.707,335.909,510.437,256,510.437c-38.929,0-75.816-8.709-108.838-24.313c-9.115-4.302-17.949-9.136-26.439-14.459
	c-23.855-14.928-45.054-33.699-62.753-55.45c-0.229-0.281-0.458-0.573-0.688-0.854c-4.104-5.084-8.021-10.334-11.73-15.73
	c-8.615-12.521-16.136-25.845-22.418-39.835c-1.927-4.261-3.729-8.573-5.406-12.948c-5.021-13.042-9-26.584-11.834-40.554
	c-3.354-16.501-5.115-33.585-5.115-51.075c0-37.127,7.927-72.42,22.188-104.244c10.928-24.376,25.564-46.731,43.189-66.336
	C112.88,32.678,180.622,0,256,0c136.839,0,248.531,107.692,254.927,242.947C511.125,247.01,511.219,251.104,511.219,255.219z"/>
<g>
	<path style="fill:#FFDC8D;" d="M355.694,334.094v-0.001c0-7.766-6.295-14.061-14.062-14.061H208.041
		c-7.766,0-14.061,6.295-14.061,14.061v0.001c0,7.766,6.295,14.061,14.061,14.061h22.265c7.766,0,14.061,6.295,14.061,14.062v0.001
		c0,7.766,6.295,14.062,14.062,14.062h111.326c7.766,0,14.061-6.295,14.061-14.062v-0.001c0-7.766-6.295-14.062-14.061-14.062l0,0
		C361.99,348.156,355.694,341.86,355.694,334.094z"/>
	<path style="fill:#FFDC8D;" d="M511.219,255.219c0,14.99-1.292,29.689-3.781,43.971h-4.813c-7.771,0-14.063-6.292-14.063-14.053
		v-0.01c0-7.761-6.292-14.053-14.063-14.053h-22.261c-3.886,0-7.396-1.573-9.948-4.125c-2.542-2.542-4.115-6.052-4.115-9.938
		c0-7.771,6.292-14.063,14.063-14.063h58.69C511.125,247.01,511.219,251.104,511.219,255.219z"/>
</g>
<path style="fill:#C69A6A;" d="M496.447,83.639v104.536l-15.438,7.24l-13.542,6.344l-59.492,27.887h-88.462l-59.492-27.887
	l-13.542-6.344l-15.438-7.24V83.639c0-44.866,36.376-81.243,81.243-81.243h102.921C460.081,2.396,496.447,38.772,496.447,83.639z"/>
<g>
	<path style="fill:#FCF8F2;" d="M481.009,83.722v111.692l-13.542,6.344V83.722c0-28.22-22.97-51.19-51.19-51.19H311.211
		c-28.22,0-51.19,22.97-51.19,51.19v118.036l-13.542-6.344V83.722c0-35.689,29.043-64.732,64.732-64.732h105.067
		C451.966,18.99,481.009,48.033,481.009,83.722z"/>
	<path style="fill:#FCF8F2;" d="M428.381,190.126H299.109V93.82H428.38v96.306H428.381z M312.651,176.584h102.186v-69.222H312.651
		V176.584z"/>
</g>
<g>
	<path style="fill:#797B89;" d="M406.21,345.156c-0.371,0-0.747-0.05-1.122-0.154c-2.217-0.619-3.513-2.917-2.893-5.134
		l16.639-59.618c0.619-2.216,2.915-3.513,5.134-2.893c2.217,0.619,3.513,2.917,2.893,5.134l-16.639,59.618
		C409.707,343.949,408.033,345.156,406.21,345.156z"/>
	<path style="fill:#797B89;" d="M363.744,363.23c-29.229,0-53.009-23.78-53.009-53.009s23.78-53.009,53.009-53.009
		s53.009,23.78,53.009,53.009S392.973,363.23,363.744,363.23z M363.744,265.545c-24.634,0-44.676,20.041-44.676,44.676
		s20.041,44.676,44.676,44.676s44.676-20.041,44.676-44.676S388.378,265.545,363.744,265.545z"/>
	<rect x="359.577" y="326.701" style="fill:#797B89;" width="8.334" height="60.919"/>
	<rect x="359.577" y="207.758" style="fill:#797B89;" width="8.334" height="89.733"/>
	<rect x="387.182" y="325.201" style="fill:#797B89;" width="8.334" height="50.502"/>
	<rect x="331.972" y="325.201" style="fill:#797B89;" width="8.334" height="50.502"/>
	<rect x="387.182" y="214.363" style="fill:#797B89;" width="8.334" height="94.66"/>
	<rect x="331.972" y="214.363" style="fill:#797B89;" width="8.334" height="94.66"/>
	<path style="fill:#797B89;" d="M363.744,334.744c-31.668,0-57.431-25.764-57.431-57.431s25.764-57.432,57.431-57.432
		c31.667,0,57.43,25.764,57.43,57.432S395.412,334.744,363.744,334.744z M363.744,228.214c-27.073,0-49.098,22.025-49.098,49.098
		s22.025,49.098,49.098,49.098c27.072,0,49.097-22.025,49.097-49.098S390.816,228.214,363.744,228.214z"/>
	<path style="fill:#797B89;" d="M321.278,345.156c-1.823,0-3.497-1.206-4.012-3.048l-16.639-59.618
		c-0.619-2.217,0.676-4.515,2.893-5.134c2.218-0.622,4.515,0.677,5.134,2.893l16.639,59.618c0.619,2.217-0.676,4.515-2.893,5.134
		C322.026,345.106,321.648,345.156,321.278,345.156z"/>
	<path style="fill:#797B89;" d="M363.744,387.619c-25.713,0-46.631-20.919-46.631-46.631s20.919-46.631,46.631-46.631
		s46.631,20.919,46.631,46.631S389.456,387.619,363.744,387.619z M363.744,302.69c-21.118,0-38.297,17.18-38.297,38.297
		s17.18,38.297,38.297,38.297c21.116,0,38.297-17.18,38.297-38.297C402.041,319.87,384.861,302.69,363.744,302.69z"/>
</g>
<g>
	<path style="fill:#5C5E70;" d="M363.744,335.526c-37.138,0-67.353-30.214-67.353-67.353c0-37.138,30.214-67.352,67.353-67.352
		c37.138,0,67.352,30.214,67.352,67.352C431.096,305.312,400.882,335.526,363.744,335.526z M363.744,214.364
		c-29.671,0-53.811,24.138-53.811,53.809s24.14,53.811,53.811,53.811c29.671,0,53.809-24.14,53.809-53.811
		S393.415,214.364,363.744,214.364z"/>
	<path style="fill:#5C5E70;" d="M334.055,222.124h-1.073c-3.74,0-6.771-3.031-6.771-6.771v-25.226h13.542v25.226h-5.698V222.124z"/>
	<path style="fill:#5C5E70;" d="M394.506,222.124h-1.073v-6.771h-5.698v-25.226h13.542v25.226
		C401.277,219.092,398.245,222.124,394.506,222.124z"/>
</g>
<path style="fill:#F4A14E;" d="M454.029,417.777C407.246,475.269,335.91,512,256,512c-16.396,0-32.428-1.542-47.96-4.5
	c-31.803-6.042-61.513-18.001-87.951-34.668c-23.595-14.865-44.575-33.501-62.117-55.054H454.029z"/>
<path style="fill:#FF525D;" d="M266.813,410.34c0,0,0,0,0,0.01c-2.021,3.886-4.229,7.688-6.625,11.396
	c-3.208,4.969-6.771,9.75-10.646,14.334c0.01-0.01,0.021-0.01,0.031-0.021c-0.938,1.115-1.896,2.219-2.875,3.302
	c-0.083,0.094-0.177,0.198-0.26,0.292c-0.448,0.5-0.896,0.99-1.354,1.479c-1.208,1.302-2.438,2.573-3.698,3.833
	c-0.323,0.323-0.656,0.656-0.99,0.969c-0.698,0.677-1.396,1.354-2.094,2.01c-0.844,0.781-1.688,1.563-2.542,2.323
	c-0.021,0.021-0.042,0.042-0.063,0.052c-1.688,1.51-3.427,2.99-5.209,4.427c-0.083,0.073-0.156,0.135-0.24,0.188
	c-0.875,0.708-1.76,1.406-2.656,2.094c-0.927,0.708-1.875,1.417-2.823,2.104c-0.021,0.021-0.031,0.031-0.052,0.042
	c-0.948,0.698-1.917,1.375-2.886,2.052c-22.324,15.407-47.523,23.511-72.753,24.814c-0.635,0.031-1.281,0.063-1.917,0.083
	c-9.115-4.302-17.949-9.136-26.439-14.459c-23.855-14.928-45.054-33.699-62.753-55.45c-0.229-0.281-0.458-0.573-0.688-0.854
	c-4.104-5.084-8.021-10.334-11.73-15.73c-8.615-12.521-16.136-25.845-22.418-39.835c-1.927-4.261-3.729-8.573-5.406-12.948
	c-5.021-13.042-9-26.584-11.834-40.554c1.333-4.698,2.917-9.334,4.74-13.876c1.625-4.063,3.448-8.073,5.459-11.99
	c9.302-18.105,22.657-34.428,39.783-47.502c1.802-1.375,3.646-2.719,5.531-4.021c2.177-1.5,4.375-2.927,6.604-4.292
	c3.656-2.24,7.365-4.281,11.146-6.146c0.656-0.333,1.302-0.646,1.958-0.958c2.219-1.052,4.459-2.052,6.719-2.979
	c0.76-0.313,1.51-0.615,2.271-0.917c1.51-0.594,3.021-1.156,4.552-1.698c1.521-0.531,3.052-1.042,4.594-1.531
	c0.583-0.188,1.167-0.365,1.76-0.542c0.438-0.135,0.875-0.271,1.323-0.385c0.51-0.156,1.021-0.302,1.531-0.438
	c0.771-0.219,1.552-0.427,2.323-0.625c0.781-0.198,1.552-0.396,2.333-0.583c1.313-0.323,2.625-0.615,3.938-0.885
	c0.563-0.125,1.125-0.24,1.698-0.344c0.604-0.125,1.208-0.24,1.823-0.354c0.635-0.115,1.271-0.229,1.906-0.333
	c0.917-0.167,1.833-0.313,2.75-0.438c0.646-0.104,1.302-0.198,1.958-0.281c0.604-0.083,1.198-0.167,1.802-0.229
	c0.521-0.073,1.031-0.135,1.552-0.188c0.208-0.021,0.406-0.042,0.615-0.063c0.531-0.063,1.063-0.115,1.594-0.156
	c0.51-0.063,1.01-0.104,1.51-0.135c0.708-0.063,1.406-0.115,2.104-0.167c0.198-0.021,0.385-0.031,0.583-0.042
	c0.688-0.042,1.365-0.083,2.042-0.115c0.792-0.042,1.583-0.073,2.365-0.094c0.781-0.031,1.563-0.052,2.333-0.063
	c0.021-0.01,0.042-0.01,0.063,0c0.375-0.01,0.74-0.01,1.115-0.01c15.136-0.135,30.189,2.156,44.575,6.771h0.01
	c6.188,1.99,12.261,4.396,18.147,7.25h0.01c20.824,10.021,39.46,25.314,53.731,45.46c0.354,0.49,0.698,0.969,1.031,1.458
	c3,4.354,5.729,8.813,8.167,13.365C288.626,320.242,287.897,369.807,266.813,410.34z"/>
<path style="fill:#EF4152;" d="M249.573,436.059c-0.938,1.115-1.896,2.219-2.875,3.302c-0.083,0.094-0.177,0.198-0.26,0.292
	c-0.448,0.5-0.896,0.99-1.354,1.479c-1.208,1.302-2.438,2.573-3.698,3.833c-0.323,0.323-0.656,0.656-0.99,0.969
	c-0.698,0.677-1.396,1.354-2.094,2.01c-0.844,0.781-1.688,1.563-2.542,2.323c-0.021,0.021-0.042,0.042-0.063,0.052
	c-1.688,1.521-3.427,3-5.209,4.427c-0.083,0.073-0.156,0.135-0.24,0.188c-0.875,0.708-1.76,1.406-2.656,2.094
	c-0.927,0.708-1.875,1.417-2.823,2.104c-0.021,0.021-0.031,0.031-0.052,0.042c-0.948,0.698-1.917,1.375-2.886,2.052
	c-22.324,15.407-47.523,23.511-72.753,24.814c-0.635,0.031-1.281,0.063-1.917,0.083c-9.115-4.302-17.949-9.136-26.439-14.459
	c-23.855-14.928-45.054-33.699-62.753-55.45c-0.229-0.281-0.458-0.573-0.688-0.854c-4.104-5.084-8.021-10.334-11.73-15.73
	c-8.615-12.521-16.136-25.845-22.418-39.835c-1.927-4.261-3.729-8.573-5.406-12.948c-5.021-13.042-9-26.584-11.834-40.554
	c1.333-4.698,2.917-9.334,4.74-13.876c1.625-4.063,3.448-8.073,5.459-11.99c9.302-18.105,22.657-34.428,39.783-47.502
	c1.802-1.375,3.646-2.719,5.531-4.021c2.177-1.5,4.375-2.927,6.604-4.292c3.656-2.24,7.365-4.281,11.146-6.146
	c0.656-0.333,1.302-0.646,1.958-0.958c2.219-1.052,4.459-2.052,6.719-2.979c0.76-0.313,1.51-0.615,2.271-0.917
	c1.51-0.594,3.031-1.167,4.552-1.698c1.521-0.531,3.052-1.042,4.594-1.531c0.583-0.188,1.167-0.365,1.76-0.542
	c0.438-0.135,0.875-0.271,1.323-0.385c0.51-0.156,1.021-0.302,1.531-0.438c0.771-0.219,1.552-0.427,2.323-0.625
	c0.781-0.198,1.552-0.396,2.333-0.583c1.313-0.323,2.625-0.615,3.938-0.885c0.563-0.125,1.125-0.24,1.698-0.344
	c0.604-0.125,1.208-0.24,1.823-0.354c0.635-0.115,1.271-0.229,1.906-0.333c0.917-0.167,1.833-0.313,2.75-0.438
	c0.646-0.104,1.302-0.198,1.958-0.281c0.604-0.083,1.198-0.167,1.802-0.229c0.521-0.073,1.031-0.135,1.552-0.188
	c0.208-0.021,0.406-0.042,0.615-0.063c0.531-0.063,1.063-0.115,1.594-0.156c0.51-0.063,1.01-0.104,1.51-0.135
	c0.708-0.063,1.406-0.115,2.104-0.167c0.198-0.021,0.385-0.031,0.583-0.042c0.688-0.042,1.365-0.083,2.042-0.115
	c0.792-0.042,1.583-0.073,2.365-0.094c0.781-0.031,1.563-0.052,2.333-0.063c0.021-0.01,0.042-0.01,0.063,0
	c0.385-0.01,0.76-0.021,1.146-0.021c-0.01,0-0.021,0.01-0.031,0.01c-8.167,2.927-16.136,6.719-23.793,11.396
	c-2.042,1.24-4.052,2.552-6.032,3.927c-1.719,1.188-3.406,2.406-5.052,3.656c-15.636,11.948-27.834,26.845-36.324,43.377
	c-1.833,3.583-3.5,7.24-4.99,10.948c-0.979,2.438-1.875,4.896-2.698,7.386c-1.281,3.844-2.375,7.75-3.281,11.698
	c-3.594,15.574-4.302,31.793-1.958,47.762c0.01,0.135,0.031,0.271,0.052,0.406c0.667,4.417,1.552,8.802,2.688,13.146
	c0.896,3.5,1.958,6.979,3.167,10.417c3.719,10.573,8.896,20.834,15.574,30.501c6.25,9.063,13.459,17.053,21.386,23.98
	c0.188,0.156,0.365,0.323,0.552,0.469c4.136,3.573,8.469,6.854,12.969,9.823c0.906,0.604,1.823,1.188,2.75,1.76
	c18.126,11.334,38.71,17.897,59.752,19.313h0.01c5.125,0.365,10.292,0.406,15.449,0.135c20.303-1.063,40.575-6.927,59.044-17.938
	C249.552,436.07,249.562,436.07,249.573,436.059z"/>
<path style="fill:#5C5E70;" d="M266.813,410.34c0,0,0,0,0,0.01c-2.021,3.886-4.229,7.688-6.625,11.396l-1.479-2.042
	c-31.71-43.918-74.388-78.607-123.682-100.577c-26.189,33.001-33.033,76.722-19.74,115.442c3.552,10.355,8.542,20.355,15.001,29.699
	c4.375,6.334,9.365,12.282,14.824,17.667l0.115,0.115l3.854,3.99c-0.635,0.031-1.281,0.063-1.917,0.083
	c-9.115-4.302-17.949-9.136-26.439-14.459c-0.125-0.177-0.25-0.354-0.375-0.531c-10.271-14.876-17.178-31.251-20.782-48.148
	c-7.969-37.335,0.198-77.18,23.949-108.702c-11.303-4.49-22.876-8.334-34.564-11.438c-12.792,20.084-21.834,42.21-26.897,65.19
	c-3.427,15.511-5.031,31.397-4.771,47.325c-4.104-5.084-8.021-10.334-11.73-15.73c1.083-18.897,4.646-37.595,10.594-55.565
	c5.094-15.396,11.928-30.251,20.459-44.231c-6.146-1.375-12.334-2.552-18.501-3.531c-0.354-0.063-0.698-0.115-1.052-0.167
	c-7.615,22.949-19.157,44.564-33.918,63.659c-1.927-4.261-3.729-8.573-5.406-12.948c11.532-16.001,20.709-33.699,27.137-52.377
	c-10.532-1.219-21.178-1.896-31.741-2.021l-2.49-0.031c1.625-4.063,3.448-8.073,5.459-11.99c10.813,0.219,21.668,1,32.418,2.323
	c4.521-16.23,6.99-32.949,7.365-49.825c1.802-1.375,3.646-2.719,5.531-4.021c2.177-1.5,4.375-2.927,6.604-4.292l-0.01,3.938
	c-0.01,18.928-2.521,37.71-7.438,55.919c0.271,0.042,0.552,0.083,0.823,0.135c7.438,1.208,14.886,2.698,22.251,4.438
	c14.615-20.99,32.793-39.064,54.096-53.773c14.719-10.157,30.532-18.417,47.117-24.584h0.01c6.188,1.99,12.261,4.396,18.147,7.25
	l-7.5,1.802c-18.001,5.99-35.116,14.563-50.908,25.47c-18.855,13.032-35.126,28.835-48.45,47.096
	c12.011,3.354,23.886,7.459,35.46,12.23c6.813-7.459,14.501-14.167,22.886-19.959c13.584-9.375,28.626-16.053,44.325-19.886
	c10.136-2.49,20.532-3.771,31.001-3.833h0.031c8.969-0.063,17.98,0.781,26.897,2.542c0.354,0.49,0.698,0.969,1.031,1.458
	c3,4.354,5.729,8.813,8.167,13.365l-5.959-1.74c-6.479-1.594-13.011-2.656-19.563-3.177c-16.563-1.333-33.189,0.75-48.835,6.042
	c-10.636,3.594-20.813,8.667-30.23,15.178c-6.49,4.469-12.521,9.542-17.98,15.136C192.31,332.159,234.801,366.807,266.813,410.34z"
	/>
<g>
	<circle style="fill:#FF6E7C;" cx="216.79" cy="282.678" r="25.428"/>
	<circle style="fill:#FF6E7C;" cx="241.395" cy="325.253" r="13.934"/>
</g>
<path style="fill:#797B89;" d="M240.425,273.302c-16.563-1.328-33.191,0.752-48.833,6.047c0.733-5.694,3.363-10.794,7.227-14.658
	c10.135-2.49,20.538-3.771,31.008-3.837C234.601,263.697,238.364,268.072,240.425,273.302z"/>
<path style="fill:#FFDC8D;" d="M209.113,167.559c0,9.157-7.427,16.584-16.584,16.584H87.243c-4.584,0-8.73-1.854-11.73-4.854
	c-3-3-4.854-7.146-4.854-11.73c0-9.167-7.427-16.584-16.584-16.584H22.97c10.928-24.376,25.564-46.731,43.189-66.336h100.567
	c4.584,0,8.73,1.854,11.73,4.854c3,3,4.854,7.146,4.854,11.73c0,9.157-7.417,16.584-16.584,16.584h-53.44
	c-9.157,0-16.584,7.417-16.584,16.584c0,9.157,7.427,16.584,16.584,16.584h79.243c4.573,0,8.719,1.854,11.73,4.854
	C207.258,158.829,209.113,162.975,209.113,167.559z"/>
<g>
</g>
<g>
</g>
<g>
</g>
<g>
</g>
<g>
</g>
<g>
</g>
<g>
</g>
<g>
</g>
<g>
</g>
<g>
</g>
<g>
</g>
<g>
</g>
<g>
</g>
<g>
</g>
<g>
</g>
</svg>
