<?xml version="1.0" encoding="iso-8859-1"?>
<!-- Generator: Adobe Illustrator 19.0.0, SVG Export Plug-In . SVG Version: 6.00 Build 0)  -->
<svg version="1.1" id="Capa_1" xmlns="http://www.w3.org/2000/svg" xmlns:xlink="http://www.w3.org/1999/xlink" x="0px" y="0px"
	 viewBox="0 0 512 512" style="enable-background:new 0 0 512 512;" xml:space="preserve">
<path style="fill:#FFD15C;" d="M512,256c0,65.546-24.628,125.336-65.139,170.621c-9.341,10.439-19.529,20.114-30.448,28.891
	c-1.348,1.097-2.696,2.163-4.065,3.218c-7.743,5.977-15.83,11.525-24.242,16.603c-24.973,15.067-52.736,25.997-82.328,31.828
	c-7.952,1.567-16.039,2.769-24.242,3.584C273.136,511.572,264.62,512,256,512c-76.821,0-145.742-33.834-192.669-87.427
	c-15.203-17.356-28.097-36.791-38.201-57.825c-5.956-12.392-10.94-25.349-14.869-38.755c-0.711-2.435-1.39-4.88-2.038-7.346
	c-3.584-13.824-6.06-28.097-7.293-42.726c-0.219-2.539-0.397-5.078-0.533-7.638C0.136,265.55,0,260.796,0,256
	c0-5.12,0.146-10.219,0.46-15.266c0.23-3.992,0.554-7.952,0.972-11.891c0.251-2.435,0.543-4.859,0.878-7.273
	c1.776-13.364,4.608-26.405,8.391-39.037c0.209-0.7,0.418-1.39,0.648-2.09c0.763-2.518,1.578-5.026,2.435-7.513
	c5.789-16.906,13.302-33.008,22.34-48.107C80.812,50.061,162.565,0,256,0s175.188,50.061,219.878,124.824
	C498.824,163.182,512,208.06,512,256z"/>
<g>
	<path style="fill:#EDBB4C;" d="M471.427,264.567L471.427,264.567c0-6.016-4.877-10.892-10.892-10.892h-3.631
		c-6.015,0-10.892-4.877-10.892-10.892l0,0c0-6.015-4.877-10.892-10.892-10.892H268.105c-6.016,0-10.892,4.877-10.892,10.892l0,0
		c0,6.015,4.877,10.892,10.892,10.892h67.169c6.015,0,10.892,4.877,10.892,10.892l0,0c0,6.015-4.877,10.892-10.892,10.892h-30.592
		c-6.015,0-10.892,4.877-10.892,10.892l0,0c0,6.015,4.877,10.892,10.892,10.892h9.241c6.015,0,10.892,4.877,10.892,10.892l0,0
		c0,6.015-4.877,10.892-10.892,10.892h-33.111c-6.015,0-10.892,4.877-10.892,10.892l0,0c0,6.015,4.877,10.892,10.892,10.892H437.68
		c6.015,0,10.892-4.877,10.892-10.892l0,0c0-6.015,4.877-10.892,10.892-10.892h1.07c6.015,0,10.892-4.877,10.892-10.892l0,0
		c0-6.015-4.877-10.892-10.892-10.892h-19.969c-6.015,0-10.892-4.877-10.892-10.892l0,0c0-6.015,4.877-10.892,10.892-10.892h19.969
		C466.55,275.46,471.427,270.584,471.427,264.567z"/>
	<path style="fill:#EDBB4C;" d="M446.861,426.621c-9.341,10.439-19.529,20.114-30.448,28.891H357.46
		c-3.427,0-6.541-1.39-8.798-3.647c-2.257-2.247-3.647-5.36-3.647-8.798c0-6.875-5.569-12.445-12.445-12.445h-19.707
		c-3.438,0-6.551-1.39-8.798-3.647c-2.257-2.247-3.647-5.36-3.647-8.798c0-6.875,5.569-12.445,12.445-12.445h118.251
		c6.865,0,12.445,5.569,12.445,12.445C443.559,421.439,444.813,424.406,446.861,426.621z"/>
	<path style="fill:#EDBB4C;" d="M108.659,211.634c0,2.685-1.087,5.11-2.842,6.855c-1.755,1.755-4.18,2.842-6.855,2.842H52.611
		c-5.36,0-9.697,4.347-9.697,9.707c0,2.675-1.087,5.099-2.842,6.855s-4.18,2.842-6.855,2.842H0.46
		c1.17-20.104,4.671-39.602,10.24-58.201h37.606c5.35,0,9.697,4.347,9.697,9.707c0,2.675,1.087,5.099,2.842,6.855
		c1.755,1.755,4.18,2.842,6.855,2.842h31.263C104.312,201.937,108.659,206.273,108.659,211.634z"/>
</g>
<path style="fill:#FCF8F2;" d="M375.568,229.658c12.79,0,24.91-5.569,33.28-15.318l-5.58-4.723
	c-6.949,8.088-17.042,12.727-27.7,12.727c-10.219,0-19.916-4.274-26.843-11.797V171.28c7.617,5.914,17.021,9.206,26.843,9.206
	c12.79,0,24.91-5.569,33.28-15.329l-5.58-4.723c-6.949,8.098-17.042,12.737-27.7,12.737c-10.658,0-20.762-4.639-27.732-12.779
	l-2.79-3.166l-2.759,3.208c-6.938,8.088-17.042,12.727-27.7,12.727c-10.658,0-20.762-4.639-27.753-12.79l-2.79-3.114l-2.727,3.176
	c-6.949,8.088-17.042,12.727-27.7,12.727c-10.668,0-20.762-4.639-27.732-12.758l-2.873-3.302l-2.706,3.375
	c-6.938,8.056-17.021,12.685-27.658,12.685c-10.668,0-20.762-4.65-27.752-12.79l-2.581-2.894l-2.738,2.738l-0.188,0.209
	c-6.949,8.088-17.042,12.727-27.7,12.727c-10.668,0.01-20.762-4.639-27.711-12.727l-2.769-3.041l-2.706,2.947l-0.084,0.094
	c-6.938,8.088-17.042,12.737-27.7,12.737s-20.762-4.65-27.7-12.737l-2.873-3.124l-2.685,3.124
	c-6.071,7.064-14.535,11.504-23.677,12.507c-0.857,2.487-1.672,4.995-2.435,7.513c9.216-0.334,18.024-3.574,25.234-9.164v39.278
	c-6.896,7.492-16.603,11.776-26.823,11.776c-2.529,0-5.026-0.261-7.45-0.763c-0.334,2.414-0.627,4.838-0.878,7.273
	c2.717,0.533,5.507,0.805,8.328,0.805c9.791,0,19.195-3.281,26.823-9.195v39.278c-6.896,7.492-16.603,11.776-26.823,11.776
	c-3.197,0-6.343-0.418-9.362-1.223c0.136,2.56,0.313,5.099,0.533,7.638c2.873,0.596,5.831,0.899,8.829,0.899
	c9.812,0,19.237-3.291,26.823-9.174v39.267c-6.896,7.492-16.603,11.766-26.823,11.766c-0.512,0-1.024-0.01-1.536-0.031
	c0.648,2.466,1.327,4.911,2.038,7.346c11.274-0.136,21.995-4.587,29.978-12.33c8.14,7.879,19.038,12.33,30.48,12.33
	s22.35-4.451,30.48-12.34c8.14,7.889,19.038,12.34,30.49,12.34c11.442,0,22.34-4.451,30.48-12.34
	c8.129,7.889,19.038,12.34,30.48,12.34c5.726,0,11.316-1.118,16.499-3.218c5.172-2.1,9.927-5.183,13.981-9.122
	c8.14,7.889,19.038,12.351,30.49,12.351c11.442,0,22.35-4.462,30.48-12.351c8.14,7.889,19.048,12.351,30.49,12.351
	c11.452,0,22.371-4.462,30.49-12.351c8.14,7.899,19.038,12.351,30.49,12.351c12.79,0,24.91-5.569,33.28-15.318l-5.58-4.723
	c-6.949,8.087-17.042,12.727-27.7,12.727c-10.219,0-19.916-4.274-26.843-11.786v-39.267c7.617,5.904,17.021,9.195,26.843,9.195
	c12.79,0,24.91-5.569,33.28-15.318l-5.58-4.723c-6.949,8.087-17.042,12.727-27.7,12.727c-10.219,0-19.916-4.274-26.843-11.786
	v-39.267C356.342,226.367,365.746,229.658,375.568,229.658z M97.541,308.924c-6.907,7.481-16.603,11.755-26.823,11.755
	s-19.916-4.274-26.823-11.755v-39.278c7.617,5.893,17.021,9.174,26.823,9.174c9.812,0,19.205-3.281,26.823-9.174V308.924z
	 M97.541,259.751c-6.907,7.481-16.603,11.755-26.823,11.755s-19.916-4.274-26.823-11.755v-39.278
	c7.617,5.893,17.021,9.174,26.823,9.174c9.812,0,19.205-3.281,26.823-9.174V259.751z M97.541,210.568
	c-6.907,7.492-16.603,11.766-26.823,11.766s-19.916-4.274-26.823-11.766V171.29c7.617,5.904,17.021,9.185,26.823,9.185
	c9.812,0,19.205-3.281,26.823-9.185V210.568z M158.511,308.914c-6.896,7.492-16.603,11.766-26.823,11.766
	c-10.23,0-19.937-4.274-26.833-11.766v-39.278c7.617,5.904,17.021,9.185,26.833,9.185c9.812,0,19.216-3.281,26.823-9.185V308.914z
	 M158.511,259.741c-6.896,7.481-16.603,11.766-26.823,11.766c-10.23,0-19.937-4.284-26.833-11.776v-39.267
	c7.617,5.904,17.021,9.185,26.833,9.185c9.812,0,19.216-3.281,26.823-9.185V259.741z M158.511,210.557
	c-6.896,7.492-16.603,11.776-26.823,11.776c-10.23,0-19.937-4.284-26.833-11.776V171.28c7.617,5.904,17.021,9.195,26.833,9.185
	c9.812,0,19.216-3.281,26.823-9.174V210.557z M219.481,308.903c-6.907,7.492-16.603,11.776-26.833,11.776
	c-10.209,0-19.884-4.253-26.823-11.755v-39.278c7.617,5.893,17.011,9.174,26.823,9.174c4.901,0,9.707-0.825,14.242-2.382
	c4.524-1.557,8.777-3.856,12.591-6.802V308.903z M219.481,259.73c-6.907,7.492-16.603,11.776-26.833,11.776
	c-10.209,0-19.884-4.263-26.823-11.766v-39.278c7.617,5.904,17.011,9.185,26.823,9.185c4.901,0,9.707-0.825,14.242-2.382
	c4.524-1.557,8.777-3.856,12.591-6.813V259.73z M219.481,210.557c-6.907,7.492-16.603,11.776-26.833,11.776
	c-10.209,0-19.884-4.263-26.823-11.766V171.29c7.617,5.904,17.011,9.185,26.823,9.185c9.812,0,19.216-3.291,26.833-9.195
	L219.481,210.557L219.481,210.557z M280.43,308.924c-6.896,7.481-16.593,11.766-26.812,11.766s-19.895-4.274-26.823-11.766v-39.278
	c7.617,5.904,17.011,9.174,26.823,9.174c9.801,0,19.205-3.271,26.812-9.174V308.924z M280.43,259.751
	c-6.896,7.481-16.593,11.755-26.812,11.755s-19.895-4.263-26.823-11.755v-39.278c7.617,5.893,17.011,9.174,26.823,9.174
	c9.801,0,19.205-3.281,26.812-9.174V259.751z M280.43,210.578c-6.896,7.481-16.593,11.755-26.812,11.755
	s-19.895-4.263-26.823-11.755v-39.278c7.607,5.893,17.011,9.174,26.823,9.174c9.801,0,19.205-3.281,26.812-9.174V210.578z
	 M341.41,308.924c-6.907,7.492-16.603,11.766-26.823,11.766c-10.209,0-19.895-4.263-26.843-11.786v-39.267
	c7.617,5.904,17.032,9.195,26.843,9.195c9.812,0,19.216-3.291,26.823-9.174V308.924z M341.41,259.751
	c-6.907,7.481-16.603,11.766-26.823,11.766c-10.209,0-19.895-4.274-26.843-11.786v-39.267c7.617,5.904,17.032,9.185,26.843,9.185
	c9.812,0,19.216-3.281,26.823-9.164V259.751z M341.41,210.578c-6.907,7.481-16.603,11.755-26.823,11.755
	c-10.209,0-19.895-4.263-26.843-11.776V171.28c7.617,5.914,17.032,9.195,26.843,9.195c9.801,0,19.195-3.271,26.823-9.174V210.578z"
	/>
<path style="fill:#279FC9;" d="M475.878,124.824H36.122c4.869-8.14,10.177-15.987,15.893-23.51
	c4.096-5.392,8.401-10.627,12.904-15.673C111.804,33.092,180.036,0,256,0c57.908,0,111.323,19.226,154.206,51.649
	c6.52,4.921,12.79,10.146,18.798,15.673C447.269,84.062,463.088,103.434,475.878,124.824z"/>
<g>
	<path style="fill:#78CAEF;" d="M300.294,84.075h-57.989c-4.328,0-7.837,3.509-7.837,7.837l0,0c0,4.328,3.509,7.837,7.837,7.837
		h57.989c4.328,0,7.837-3.509,7.837-7.837l0,0C308.131,87.583,304.622,84.075,300.294,84.075z"/>
	<path style="fill:#78CAEF;" d="M429.004,67.323h-26.833c-2.163,0-4.127-0.878-5.548-2.299c-1.411-1.421-2.288-3.375-2.288-5.538
		c0-4.326,3.5-7.837,7.837-7.837h8.035C416.726,56.571,422.996,61.795,429.004,67.323z"/>
	<path style="fill:#78CAEF;" d="M428.81,98.18h-57.989c-4.328,0-7.837,3.509-7.837,7.837l0,0c0,4.328,3.509,7.837,7.837,7.837
		h57.989c4.328,0,7.837-3.509,7.837-7.837l0,0C436.647,101.688,433.138,98.18,428.81,98.18z"/>
	<path style="fill:#78CAEF;" d="M84.01,93.477c0,4.326-3.511,7.837-7.837,7.837H52.015c4.096-5.392,8.401-10.627,12.904-15.673
		h11.254c2.163,0,4.117,0.878,5.538,2.299C83.132,89.349,84.01,91.314,84.01,93.477z"/>
	<path style="fill:#78CAEF;" d="M345.745,27.653h-57.989c-4.328,0-7.837,3.509-7.837,7.837l0,0c0,4.328,3.509,7.837,7.837,7.837
		h57.989c4.328,0,7.837-3.509,7.837-7.837l0,0C353.582,31.161,350.073,27.653,345.745,27.653z"/>
</g>
<path style="fill:#EDBB4C;" d="M189.795,412.035c0,6.928-5.622,12.539-12.539,12.539H63.331
	c-15.203-17.356-28.097-36.791-38.201-57.825c0.627-1.494,0.972-3.145,0.972-4.869c0-6.917,5.611-12.539,12.539-12.539h119.108
	c3.459,0,6.593,1.4,8.871,3.678c2.267,2.267,3.668,5.402,3.668,8.861c0,6.928-5.611,12.539-12.539,12.539h-40.406
	c-6.917,0-12.539,5.611-12.539,12.539c0,6.928,5.622,12.539,12.539,12.539h59.914c3.459,0,6.593,1.4,8.861,3.668
	C188.395,405.431,189.795,408.566,189.795,412.035z"/>
<path style="fill:#797B89;" d="M412.348,147.874v310.857c-7.743,5.977-15.83,11.525-24.242,16.603V147.874H412.348z"/>
<path style="fill:#F9EED7;" d="M263.21,135.565c0,30.136-10.103,57.888-27.109,80.062c-3.751,4.89-7.836,9.516-12.232,13.83
	c-11.185,11.001-24.336,19.998-38.869,26.454c-3.187,1.415-6.444,2.716-9.769,3.866c-12.266,4.315-25.383,6.846-39.019,7.306
	c-1.531,0.069-3.061,0.092-4.603,0.092s-3.072-0.023-4.603-0.092c-53.033-1.807-98.046-34.922-117.17-81.465
	c-2.324-5.65-4.268-11.506-5.788-17.524C1.403,157.692,0,146.796,0,135.565c0-4.844,0.264-9.619,0.783-14.326
	c0.368-3.51,0.886-6.984,1.542-10.402c2.486-13.164,6.938-25.625,13.037-37.074c1.449-2.716,2.98-5.374,4.614-7.962
	C43.218,28.647,84.503,3.966,131.61,3.966c5.903,0,11.725,0.391,17.421,1.15c6.19,0.806,12.243,2.059,18.134,3.717
	c15.419,4.291,29.687,11.334,42.251,20.562c2.842,2.071,5.581,4.258,8.239,6.547c9.941,8.595,18.582,18.663,25.579,29.859
	c1.634,2.589,3.164,5.247,4.614,7.962C257.652,92.186,263.21,113.22,263.21,135.565z"/>
<g>
	<path style="fill:#E8DBC4;" d="M218.345,232.262c-10.827,3.809-22.406,6.043-34.441,6.449c-1.351,0.061-2.702,0.081-4.063,0.081
		c-1.361,0-2.712-0.02-4.063-0.081c-46.812-1.595-86.545-30.826-103.425-71.909c-2.051-4.987-3.768-10.156-5.109-15.469
		c-2.336-9.182-3.576-18.8-3.576-28.713c0-4.276,0.234-8.491,0.691-12.645c0.325-3.098,0.782-6.165,1.362-9.182
		c2.194-11.619,6.124-22.619,11.507-32.725c1.28-2.397,2.63-4.743,4.073-7.028c17.669-28.245,47.154-48.308,81.557-53.337
		c-4.523-1.106-9.136-1.977-13.827-2.587c-5.696-0.76-11.518-1.15-17.421-1.15c-47.107,0-88.392,24.682-111.636,61.836
		c-1.634,2.589-3.164,5.247-4.614,7.962C9.263,85.214,4.81,97.674,2.324,110.838c-0.656,3.418-1.173,6.892-1.542,10.402
		C0.264,125.946,0,130.721,0,135.565c0,11.231,1.403,22.127,4.05,32.529c1.519,6.018,3.464,11.874,5.788,17.524
		c19.124,46.544,64.137,79.659,117.17,81.465c1.531,0.069,3.061,0.092,4.603,0.092s3.072-0.023,4.603-0.092
		c13.635-0.46,26.753-2.992,39.019-7.306c3.325-1.15,6.582-2.451,9.769-3.866c13.972-6.206,26.648-14.783,37.546-25.209
		C221.159,231.25,219.76,231.773,218.345,232.262z"/>
	<path style="fill:#E8DBC4;" d="M231.682,83.096c10.77,43.333,12.243,88.668,4.419,132.531c-3.751,4.89-7.836,9.516-12.232,13.83
		c10.207-43.989,10.609-89.969,1.196-134.107c-0.53-2.497-1.081-4.982-1.68-7.456l-35.993,20.781l-3.636,2.105
		c5.88,42.378,6.904,85.24,3.072,127.79c-0.518,5.788-1.127,11.564-1.83,17.34c-3.187,1.415-6.444,2.716-9.769,3.866
		c0.909-6.996,1.692-13.992,2.335-21.011c3.763-40.952,2.946-82.191-2.44-123.016l-38.915,22.472v128.86
		c-1.531,0.069-3.061,0.092-4.603,0.092s-3.072-0.023-4.603-0.092v-18.513c-43.023-12.473-83.088-34.035-117.17-62.952
		c-2.324-5.65-4.268-11.506-5.788-17.524c34.83,32.793,77.127,57.164,122.957,70.88v-45.784
		c-18.605-7.617-36.763-16.213-54.391-25.74c-25.061-13.554-49.063-28.984-71.835-46.21c0.368-3.51,0.886-6.984,1.542-10.402
		c20.884,16.086,42.85,30.642,65.748,43.563c19.032,10.758,38.707,20.366,58.935,28.812v-44.99l-61.615-35.574l-50.03-28.881
		c1.449-2.716,2.98-5.374,4.614-7.962l16.086,9.286c32.263-30.987,70.926-54.898,112.97-69.972c0.886,0.115,1.772,0.241,2.658,0.379
		c0.656,0.092,1.311,0.195,1.956,0.31c0.771,0.126,1.531,0.264,2.289,0.402c1.242,0.23,2.474,0.484,3.705,0.76
		c0.461,0.092,0.921,0.195,1.38,0.299c0.622,0.138,1.231,0.287,1.83,0.437c1.45,0.345,2.888,0.725,4.315,1.127
		c-23.45,7.065-45.968,16.915-67.036,29.272C80.062,49.854,61.318,63.88,44.357,79.886l23.07,13.313l16.58,9.573
		c21.678-16.787,44.518-31.941,68.336-45.358c7.606-4.28,15.315-8.4,23.116-12.324c11.139-5.604,22.46-10.839,33.955-15.694
		c2.842,2.071,5.581,4.258,8.239,6.547c-13.497,5.558-26.741,11.633-39.72,18.226c-6.547,3.325-13.026,6.777-19.423,10.356
		c-22.921,12.806-44.933,27.247-65.863,43.23l38.961,22.496l48.304-27.891l45.255-26.119l18.065-10.436
		c1.634,2.589,3.164,5.247,4.614,7.962L231.682,83.096z"/>
</g>
<g>
	<path style="fill:#D6C8B0;" d="M65.391,102.646l-50.03-28.881c1.449-2.716,2.98-5.374,4.614-7.962l16.086,9.286
		c32.263-30.987,70.926-54.898,112.97-69.972c0.886,0.115,1.772,0.241,2.658,0.379c0.656,0.092,1.311,0.195,1.956,0.31
		c0.771,0.126,1.531,0.264,2.289,0.402c1.242,0.23,2.474,0.484,3.705,0.76c0.461,0.092,0.921,0.195,1.38,0.299
		c0.622,0.138,1.231,0.287,1.83,0.437c-24.117,3.533-45.819,14.44-62.721,30.4C80.062,49.854,61.318,63.88,44.357,79.886
		l23.07,13.313c-0.656,2.497-1.219,5.028-1.703,7.594C65.609,101.414,65.494,102.024,65.391,102.646z"/>
	<path style="fill:#D6C8B0;" d="M72.617,167.449c-25.061-13.554-49.063-28.984-71.835-46.21c0.368-3.51,0.886-6.984,1.542-10.402
		c20.884,16.086,42.85,30.642,65.748,43.563c1.196,4.234,2.624,8.377,4.28,12.404C72.445,167.024,72.525,167.231,72.617,167.449z"/>
	<path style="fill:#D6C8B0;" d="M127.008,226.133c2.992,1.531,6.064,2.934,9.206,4.199v36.751c-1.531,0.069-3.061,0.092-4.603,0.092
		s-3.072-0.023-4.603-0.092V248.57c-43.023-12.473-83.088-34.035-117.17-62.952c-2.324-5.65-4.268-11.506-5.788-17.524
		c34.83,32.793,77.127,57.164,122.957,70.88C127.008,238.973,127.008,226.133,127.008,226.133z"/>
	<path style="fill:#D6C8B0;" d="M186.83,238.571c-0.518,5.788-1.127,11.564-1.83,17.34c-3.187,1.415-6.444,2.716-9.769,3.866
		c0.909-6.996,1.692-13.992,2.335-21.011c0.748,0.023,1.508,0.023,2.278,0.023c1.357,0,2.704-0.012,4.062-0.08
		C184.885,238.675,185.863,238.629,186.83,238.571z"/>
</g>
<g>
	<circle style="fill:#FCF8F2;" cx="200.443" cy="85.662" r="26.465"/>
	<circle style="fill:#FCF8F2;" cx="164.77" cy="52.869" r="13.233"/>
</g>
<g>
	<path style="fill:#F9EED7;" d="M226.907,85.662c0,3.418-0.656,6.685-1.841,9.688c-0.53-2.497-1.081-4.982-1.68-7.456
		l-35.993,20.781c-2.877-1.611-5.408-3.774-7.479-6.317l45.255-26.119C226.297,79.16,226.907,82.348,226.907,85.662z"/>
	<path style="fill:#F9EED7;" d="M178.005,52.869c0,0.437-0.023,0.875-0.069,1.3c-6.547,3.325-13.026,6.777-19.423,10.356
		c-2.842-1.519-5.051-4.062-6.167-7.111c7.606-4.28,15.315-8.4,23.116-12.324C177.061,47.265,178.005,49.958,178.005,52.869z"/>
</g>
<g>
</g>
<g>
</g>
<g>
</g>
<g>
</g>
<g>
</g>
<g>
</g>
<g>
</g>
<g>
</g>
<g>
</g>
<g>
</g>
<g>
</g>
<g>
</g>
<g>
</g>
<g>
</g>
<g>
</g>
</svg>
