<?xml version="1.0" encoding="iso-8859-1"?>
<!-- Generator: Adobe Illustrator 19.0.0, SVG Export Plug-In . SVG Version: 6.00 Build 0)  -->
<svg version="1.1" id="Capa_1" xmlns="http://www.w3.org/2000/svg" xmlns:xlink="http://www.w3.org/1999/xlink" x="0px" y="0px"
	 viewBox="0 0 512 512" style="enable-background:new 0 0 512 512;" xml:space="preserve">
<polygon style="fill:#FFC477;" points="7.5,238.411 43.937,201.974 312.944,470.981 504.5,470.981 504.5,504.425 7.5,504.425 "/>
<polygon style="fill:#FFA733;" points="69.448,227.485 43.937,201.974 7.5,238.411 7.5,504.425 58.521,504.425 58.521,238.411 "/>
<path style="fill:#FF0C38;" d="M320.93,169.878l36.924,9.894l-11.697,43.655l26.481,7.095l18.283-68.233
	c0.282-1.051-0.342-2.131-1.393-2.413l-62.748-16.813L320.93,169.878z"/>
<path style="fill:#FF456D;" d="M350.236,107.527l-74.529,43.029l-25.247-43.73c1.132-4.223,1.766-6.591,2.897-10.814l10.031-5.791
	c4.223,1.132,6.591,1.766,10.814,2.897l11.54,19.988l50.787-29.322c6.556-3.785,14.939-1.539,18.725,5.017l0,0
	C359.038,95.358,356.792,103.741,350.236,107.527z"/>
<g>
	<path style="fill:#FF0C38;" d="M302.124,113.106l49.363-28.5c-4.25-3.113-10.103-3.625-14.958-0.822l-38.5,22.228L302.124,113.106z
		"/>
	<path style="fill:#FF0C38;" d="M266.842,106.826c1.132-4.223,1.766-6.591,2.897-10.814l4.6-2.656l-0.138-0.238
		c-4.223-1.132-6.591-1.766-10.813-2.897l-10.031,5.791c-1.132,4.223-1.766,6.591-2.897,10.814l25.247,43.73l12.287-7.094
		L266.842,106.826z"/>
</g>
<circle style="fill:#D8D7DA;" cx="275.85" cy="328.799" r="51.785"/>
<path style="fill:#ACABB1;" d="M255.877,354.69c-14.3-24.768-5.814-56.44,18.955-70.74c4.31-2.489,8.832-4.271,13.432-5.414
	c-12.536-3.097-26.237-1.552-38.303,5.414c-24.768,14.3-33.255,45.971-18.955,70.74c11.812,20.458,35.472,29.792,57.308,24.369
	C275.117,375.799,263.21,367.393,255.877,354.69z"/>
<circle style="fill:#45A2FF;" cx="275.85" cy="328.799" r="12.147"/>
<circle style="fill:#D8D7DA;" cx="452.71" cy="226.689" r="51.785"/>
<g>
	<circle style="fill:#ACABB1;" cx="287.85" cy="328.799" r="12.147"/>
	<circle style="fill:#ACABB1;" cx="464.71" cy="226.689" r="12.147"/>
	<path style="fill:#ACABB1;" d="M433.177,252.584c-14.3-24.768-5.814-56.44,18.955-70.74c4.242-2.449,8.688-4.214,13.213-5.359
		c-12.598-3.172-26.392-1.65-38.531,5.359c-24.768,14.3-33.255,45.971-18.955,70.74c11.851,20.527,35.631,29.855,57.527,24.314
		C452.28,273.597,440.469,265.214,433.177,252.584z"/>
</g>
<circle style="fill:#45A2FF;" cx="452.71" cy="226.689" r="12.147"/>
<circle style="fill:#FFC477;" cx="343.38" cy="95.659" r="13.707"/>
<rect x="329.475" y="271.732" transform="matrix(-0.866 0.5 -0.5 -0.866 780.9546 353.0087)" style="fill:#D8D7DA;" width="27.414" height="18.806"/>
<path style="fill:#FF456D;" d="M275.707,150.556l-25.247-43.73c1.132-4.223,1.766-6.591,2.897-10.814l10.031-5.791l10.814,2.897
	l11.54,19.988l17.806-10.281l-16.054-27.806c-6.738-1.805-10.515-2.818-17.253-4.623l-37.479,21.639
	c-1.805,6.738-2.818,10.515-4.623,17.253l98.476,170.565l23.742-13.707l-49.042-84.944l19.615-11.325l5.849-26.815l-9.524-16.495
	L275.707,150.556z"/>
<g>
	<path style="fill:#FF0C38;" d="M276.241,96.65l9.501,16.456l17.291-9.983l-5.776-10.005l-10.814-2.897l-10.031,5.791
		C276.352,96.236,276.298,96.436,276.241,96.65z"/>
	
		<rect x="302.246" y="124.556" transform="matrix(-0.5 -0.866 0.866 -0.5 342.021 474.5854)" style="fill:#FF0C38;" width="11.527" height="28.009"/>
	<path style="fill:#FF0C38;" d="M251.194,109.288c0.075-0.278,0.146-0.544,0.218-0.813l-0.952-1.65
		c1.132-4.223,1.766-6.591,2.898-10.814l1.649-0.952c0.255-0.951,0.522-1.947,0.81-3.025l30.171-17.419
		c-5.828-1.562-9.53-2.553-15.747-4.219l-37.479,21.639c-1.805,6.738-2.818,10.515-4.623,17.253l98.476,170.565l17.291-9.983
		L251.194,109.288z"/>
</g>
<circle style="fill:#ADDFBB;" cx="231.7" cy="47.059" r="39.458"/>
<path style="fill:#7CCC92;" d="M219.667,66.785c-10.896-18.872-4.43-43.005,14.443-53.901c2.785-1.608,5.686-2.828,8.641-3.696
	c-9.974-2.909-21.071-1.909-30.78,3.696c-18.872,10.896-25.339,35.028-14.443,53.901c9.288,16.087,28.192,23.15,45.26,18.138
	C233.372,82.177,224.957,75.949,219.667,66.785z"/>
<path style="fill:#45A2FF;" d="M218.094,47.54c5.776,10.004,18.569,13.432,28.573,7.656l24.08-13.89
	c-0.704-4.792-2.296-9.534-4.864-13.983c-1.499-2.597-3.257-4.95-5.21-7.064l-43.748,25.258L218.094,47.54z"/>
<g>
	<path style="fill:#1D1D1F;" d="M316.051,463.481L43.937,191.368L0,235.305v276.621h512v-48.444H316.051V463.481z M497,496.925
		H291.517l-51.41-51.409l-10.606,10.606l40.802,40.803H205.43l-62.221-62.221l-10.606,10.606l51.615,51.615H15V347.728
		l31.696,31.696l10.606-10.606L15,326.516v-84.998l28.937-28.937l265.9,265.9H497V496.925z"/>
	
		<rect x="58.862" y="424.312" transform="matrix(-0.7071 0.7071 -0.7071 -0.7071 418.6251 690.2245)" style="fill:#1D1D1F;" width="15" height="15"/>
	
		<rect x="94.23" y="459.677" transform="matrix(0.7071 0.7071 -0.7071 0.7071 360.1399 64.8992)" style="fill:#1D1D1F;" width="15" height="15"/>
	
		<rect x="76.546" y="441.982" transform="matrix(-0.7071 0.7071 -0.7071 -0.7071 461.3072 707.8835)" style="fill:#1D1D1F;" width="15" height="15"/>
	
		<rect x="168.285" y="112.268" transform="matrix(-0.5 -0.866 0.866 -0.5 143.8634 359.7623)" style="fill:#1D1D1F;" width="15" height="52.169"/>
	
		<rect x="108.885" y="165.143" transform="matrix(-0.5 -0.866 0.866 -0.5 25.0668 359.7582)" style="fill:#1D1D1F;" width="15" height="15"/>
	
		<rect x="130.535" y="152.642" transform="matrix(-0.5 -0.866 0.866 -0.5 68.3682 359.7558)" style="fill:#1D1D1F;" width="15" height="15"/>
	
		<rect x="138.703" y="225.782" transform="matrix(0.866 -0.5 0.5 0.866 -94.0408 115.6083)" style="fill:#1D1D1F;" width="59.999" height="15"/>
	
		<rect x="215.194" y="184.767" transform="matrix(-0.5 -0.866 0.866 -0.5 159.0198 496.0093)" style="fill:#1D1D1F;" width="15" height="34.666"/>
	
		<rect x="146.617" y="171.092" transform="matrix(-0.866 0.5 -0.5 -0.866 434.0003 240.8902)" style="fill:#1D1D1F;" width="76.218" height="15"/>
	<path style="fill:#1D1D1F;" d="M268.273,352.122l-4.631,14.267c3.963,1.286,8.081,1.938,12.24,1.938
		c2.017,0,4.048-0.157,6.04-0.466l-2.301-14.822C275.839,353.624,271.93,353.309,268.273,352.122z"/>
	<path style="fill:#1D1D1F;" d="M251.323,328.828c0-8.75,4.701-16.9,12.268-21.269l-7.5-12.99
		c-12.193,7.039-19.768,20.166-19.768,34.261c0,2.147,0.178,4.307,0.527,6.42l14.8-2.445
		C251.434,331.496,251.324,330.157,251.323,328.828z"/>
	<path style="fill:#1D1D1F;" d="M254.614,341.059c-0.195-0.337-0.38-0.676-0.557-1.019l-13.331,6.876
		c0.285,0.553,0.585,1.102,0.898,1.644c2.812,4.87,6.533,8.998,11.061,12.269l8.785-12.158
		C258.668,346.646,256.361,344.086,254.614,341.059z"/>
	<path style="fill:#1D1D1F;" d="M313.053,342.153c3.098-8.638,3.099-18.126,0.003-26.717l-14.111,5.084
		c1.917,5.321,1.913,11.206-0.011,16.571L313.053,342.153z"/>
	<path style="fill:#1D1D1F;" d="M477.236,226.662c0,5.14-1.654,10.258-4.657,14.414l12.158,8.786
		c4.836-6.691,7.499-14.931,7.499-23.2c0-1.746-0.118-3.508-0.35-5.238l-14.867,1.994
		C477.163,224.489,477.236,225.581,477.236,226.662z"/>
	<path style="fill:#1D1D1F;" d="M449.673,202.347c3.794-0.472,7.69-0.038,11.319,1.262l5.057-14.122
		c-5.835-2.089-12.104-2.785-18.226-2.025L449.673,202.347z"/>
	<path style="fill:#1D1D1F;" d="M473.943,214.427c0.32,0.554,0.62,1.124,0.893,1.693l13.529-6.479
		c-0.438-0.913-0.918-1.824-1.43-2.711c-2.604-4.51-6.002-8.396-10.1-11.552l-9.152,11.885
		C470.22,209.215,472.327,211.626,473.943,214.427z"/>
	<path style="fill:#1D1D1F;" d="M429.171,219.796l-14.396-4.214c-3.063,10.466-1.749,21.43,3.703,30.871
		c1.425,2.468,3.112,4.78,5.017,6.873l11.094-10.097c-1.182-1.298-2.231-2.737-3.12-4.276
		C428.085,233.095,427.27,226.292,429.171,219.796z"/>
	<path style="fill:#1D1D1F;" d="M224.611,93.478l-4.52,16.869l64.186,111.174l-7.409,48.017c-0.339-0.006-0.675-0.026-1.015-0.026
		c-32.69,0-59.286,26.595-59.286,59.285s26.595,59.285,59.286,59.285c32.689,0,59.285-26.595,59.285-59.285
		c0-12.66-4.002-24.397-10.789-34.038l1.45-1.32l7.474,12.945l36.732-21.208l-11.14-19.294l42.276-84.91l6.539,7.214
		c-8.879,10.368-14.26,23.815-14.26,38.503c0,32.69,26.596,59.285,59.285,59.285s59.285-26.595,59.285-59.285
		s-26.596-59.285-59.285-59.285c-12.606,0-24.297,3.967-33.915,10.702l-26.413-29.139l8.052-4.648l-35.897-50.046
		c-0.207-3.21-1.13-6.356-2.785-9.223c-5.848-10.127-18.844-13.61-28.97-7.762l-26.485,15.291l-13.855-24l-16.968-4.546
		c2.051-5.269,3.189-10.991,3.189-16.977c0-8.981-2.538-17.378-6.929-24.519l16.408-9.473l-7.5-12.99L261.73,10.988
		c-8.146-6.794-18.618-10.891-30.031-10.891c-25.893,0-46.958,21.065-46.958,46.958C184.742,70.539,202.07,90.051,224.611,93.478z
		 M325.016,106.259c1.067,1.849,2.383,3.498,3.9,4.916l-50.463,29.135l-19.943-34.544l1.289-4.812l4.65-2.685l4.812,1.29
		l13.737,23.792l39.711-22.928C323.178,102.446,323.948,104.41,325.016,106.259z M239.203,96.977l7.253-4.188l-2.364,8.825
		l-1.68,6.271l0,0v0.001l30.55,52.915l41.549-23.988l4.322,7.487l-4.524,20.741l-23.239,13.417l49.042,84.944l-10.751,6.207l0,0
		l-93.173-161.38L239.203,96.977z M280.5,328.798c0,2.562-2.084,4.646-4.646,4.646s-4.647-2.084-4.647-4.646
		c0-2.563,2.085-4.647,4.647-4.647S280.5,326.235,280.5,328.798z M285.883,309.484l3.524-22.842
		c4.986,1.607,9.585,4.078,13.629,7.232L285.883,309.484z M320.139,328.798c0,24.419-19.866,44.285-44.285,44.285
		s-44.286-19.866-44.286-44.285c0-23.983,19.167-43.56,42.985-44.252l-3.908,25.328c-8.31,2.291-14.439,9.896-14.439,18.924
		c0,10.833,8.813,19.646,19.647,19.646c10.833,0,19.646-8.813,19.646-19.646c0-2.353-0.437-4.6-1.199-6.693l18.843-17.148
		C317.563,311.845,320.139,320.024,320.139,328.798z M314.243,283.675c-6.466-5.509-14.123-9.652-22.529-11.99l4.539-29.419
		l21.869,37.879L314.243,283.675z M338.764,285.895l-1.903-3.297l10.751-6.207l1.903,3.296L338.764,285.895z M349.869,250.3
		l-26.941-46.664l64.855-37.401l2.543,2.806L349.869,250.3z M452.706,182.406c24.419,0,44.285,19.866,44.285,44.285
		s-19.866,44.285-44.285,44.285s-44.285-19.866-44.285-44.285c0-10.284,3.533-19.752,9.437-27.277l17.114,18.88
		c-1.213,2.55-1.912,5.39-1.912,8.397c0,10.833,8.813,19.647,19.646,19.647s19.646-8.813,19.646-19.647
		c0-10.833-8.813-19.646-19.646-19.646c-2.327,0-4.55,0.428-6.623,1.173l-17.116-18.883
		C435.834,184.956,443.975,182.406,452.706,182.406z M452.706,222.045c2.563,0,4.646,2.084,4.646,4.646
		c0,2.563-2.084,4.647-4.646,4.647s-4.646-2.084-4.646-4.647C448.06,224.129,450.144,222.045,452.706,222.045z M377.475,154.864
		l-62.048,35.781l-3.867-6.698l15.991-9.232l0.707-3.24l4.173-19.133l23.908,6.406l3.883-14.489l-28.501-7.637l-4.22-7.31
		l26.473-15.284c0.004-0.002,0.008-0.004,0.011-0.006l0,0l0,0c1.493-0.862,2.838-1.902,4.054-3.062l20.55,28.65l-9.81,5.663
		L377.475,154.864z M293.303,100.081l-4.815,2.78l-9.343-16.183l-15.096-4.046l7.253-4.187l11.251,3.015L293.303,100.081z
		 M258.731,30.04c1.469,2.326,2.654,4.849,3.488,7.527l-19.302,11.134c-3.103,1.792-6.719,2.268-10.181,1.34
		c-1.721-0.461-3.302-1.242-4.677-2.292L258.731,30.04z M231.699,15.098c5.713,0,11.076,1.514,15.722,4.152L206.68,42.772
		l4.919,8.518c3.795,6.573,9.923,11.275,17.255,13.24c2.449,0.656,4.933,0.98,7.402,0.98c4.923,0,9.783-1.291,14.159-3.818
		l12.341-7.119c-3.391,14.005-16.025,24.44-31.056,24.44c-17.622,0-31.958-14.336-31.958-31.958S214.078,15.098,231.699,15.098z
		 M349.59,95.658c0,3.429-2.779,6.208-6.208,6.208s-6.208-2.779-6.208-6.208s2.779-6.208,6.208-6.208S349.59,92.229,349.59,95.658z"
		/>
	
		<rect x="337.66" y="204.855" transform="matrix(-0.2589 0.9659 -0.9659 -0.2589 644.6517 -69.9044)" style="fill:#1D1D1F;" width="22.967" height="15"/>
</g>
<g>
	<path style="fill:#FFFFFF;" d="M275.883,368.328c-4.159,0-8.277-0.652-12.24-1.938l4.631-14.267
		c3.656,1.187,7.565,1.502,11.349,0.917l2.301,14.822C279.931,368.171,277.899,368.328,275.883,368.328z M252.685,360.829
		c-4.528-3.271-8.249-7.399-11.061-12.269c-0.313-0.542-0.613-1.091-0.898-1.644l13.331-6.876c0.177,0.342,0.362,0.682,0.557,1.019
		c1.748,3.027,4.054,5.588,6.856,7.612L252.685,360.829z M236.85,335.25c-0.349-2.113-0.526-4.273-0.527-6.42
		c0-14.095,7.575-27.222,19.768-34.261l7.5,12.99c-7.567,4.369-12.268,12.518-12.268,21.269c0,1.33,0.11,2.668,0.327,3.977
		L236.85,335.25z"/>
	<path style="fill:#FFFFFF;" d="M484.737,249.861l-12.158-8.786c3.003-4.155,4.657-9.274,4.657-14.414
		c0-1.081-0.073-2.172-0.217-3.244l14.867-1.994c0.231,1.73,0.35,3.492,0.35,5.238C492.236,234.931,489.573,243.17,484.737,249.861z
		 M474.836,216.12c-0.272-0.569-0.572-1.139-0.893-1.693c-1.616-2.8-3.724-5.212-6.26-7.165l9.152-11.885
		c4.098,3.156,7.495,7.042,10.1,11.552c0.512,0.888,0.992,1.799,1.43,2.711L474.836,216.12z M460.992,203.609
		c-3.629-1.3-7.525-1.734-11.319-1.262l-1.85-14.886c6.122-0.759,12.391-0.064,18.226,2.025L460.992,203.609z"/>
	<path style="fill:#FFFFFF;" d="M187.905,403.226l-96.42-96.42l10.606-10.606l96.42,96.42L187.905,403.226z M84.413,299.734
		l-10.606-10.606l10.606-10.606l10.606,10.606L84.413,299.734z M66.735,282.056L56.129,271.45l10.606-10.606l10.606,10.606
		L66.735,282.056z"/>
</g>
<g>
</g>
<g>
</g>
<g>
</g>
<g>
</g>
<g>
</g>
<g>
</g>
<g>
</g>
<g>
</g>
<g>
</g>
<g>
</g>
<g>
</g>
<g>
</g>
<g>
</g>
<g>
</g>
<g>
</g>
</svg>
