<svg id="Capa_1" enable-background="new 0 0 512 512" height="512" viewBox="0 0 512 512" width="512" xmlns="http://www.w3.org/2000/svg"><g><g><path d="m470.374 224.78c-13.493-14.896-29.138-37.463-29.138-74.927 0-61.398 12.488-78.049 12.488-108.228 0-22.988-20.718-41.625-43.708-41.625-22.989 0-43.707 18.637-43.707 41.626 0 30.179 12.488 46.829 12.488 108.228 0 37.463-15.645 60.031-29.138 74.927-18.326 20.231-41.626 39.545-41.626 100.943 0 48.51 34.121 152.078 43.454 179.499 1.38 4.054 5.184 6.777 9.467 6.777h98.127c4.282 0 8.087-2.723 9.467-6.777 9.331-27.422 43.452-130.99 43.452-179.499 0-61.399-23.3-80.713-41.626-100.944z" fill="#c9e2e7"/><path d="m504.181 273.554c-8.882 69.455-33.321 127.721-66.107 161.415-14.903 15.316-40.432.963-35.081-19.726 8.484-32.797 15.348-66.459 15.348-89.52 0-64.345-23.52-89.623-42.419-109.935-1.555-1.672-3.092-3.323-4.594-4.981-1.995-2.202-4.043-4.596-6.06-7.214-4.838 8.49-10.383 15.418-15.609 21.187-18.326 20.231-41.626 39.545-41.626 100.943 0 32.215 15.047 88.707 27.89 131.059 4.797 16.009 11.805 37.346 15.549 48.42 1.374 4.064 5.184 6.798 9.473 6.798h98.134c4.282 0 8.087-2.723 9.467-6.777 9.333-27.422 43.454-130.99 43.454-179.499 0-22.226-3.054-38.934-7.819-52.17z" fill="#a8d0d5"/><path d="m314.738 276.813h190.556c-6.162-18.987-15.764-31.097-25.321-41.626h-139.914c-9.557 10.529-19.158 22.639-25.321 41.626z" fill="#fa4954"/><path d="m392.574 235.187h-52.515c-9.557 10.529-19.158 22.639-25.321 41.626h97.833c-4.804-17.904-12.111-31.004-19.997-41.626z" fill="#fa2a3b"/></g><g><path d="m355.902 224.78c-13.493-14.896-29.138-37.463-29.138-74.927 0-61.398 12.488-78.049 12.488-108.228 0-22.988-20.718-41.625-43.707-41.625s-43.707 18.637-43.707 41.626c0 30.179 12.488 46.829 12.488 108.228 0 37.463-15.645 60.031-29.138 74.927-18.326 20.231-41.626 39.545-41.626 100.943 0 48.51 34.121 152.078 43.454 179.499 1.38 4.054 5.184 6.777 9.467 6.777h98.127c4.282 0 8.087-2.723 9.467-6.777 9.333-27.421 43.454-130.989 43.454-179.499-.003-61.399-23.302-80.713-41.629-100.944z" fill="#eff3f5"/><path d="m389.709 273.554c-8.196 64.095-29.642 118.662-58.669 153.182-11.486 13.659-33.49 2.126-28.786-15.09 3.767-13.787 5.779-28.29 5.779-43.256 0-58.536-30.753-110.017-76.945-139.158-17.518 18.837-37.526 39.594-37.526 96.492.3 48.341 31.565 144.101 43.015 178.207.153.45.3.883.441 1.298 1.379 4.053 5.184 6.771 9.464 6.771h98.127c4.282 0 8.087-2.723 9.467-6.777 9.333-27.421 43.454-130.989 43.454-179.499-.002-22.226-3.056-38.934-7.821-52.17z" fill="#c9e2e7"/><path d="m200.267 276.813h190.556c-6.162-18.987-15.764-31.097-25.321-41.626h-139.914c-9.557 10.529-19.159 22.639-25.321 41.626z" fill="#fb636f"/><path d="m239.885 235.187h-14.297c-9.557 10.529-19.158 22.639-25.321 41.626h79.837c-10.856-16.128-24.495-30.23-40.219-41.626z" fill="#fa4954"/></g><g><circle cx="143.61" cy="368.39" fill="#b9ea6a" r="143.61"/><path d="m231.993 255.196c19.056 24.37 30.416 55.049 30.416 88.383 0 79.313-64.296 143.61-143.61 143.61-33.334 0-64.013-11.36-88.383-30.416 26.285 33.616 67.214 55.227 113.194 55.227 79.313 0 143.61-64.296 143.61-143.61 0-45.979-21.611-86.909-55.227-113.194z" fill="#a1e42c"/><g fill="#434343"><circle cx="122.797" cy="277.854" r="17.691"/><circle cx="65.561" cy="316.358" r="17.691"/><circle cx="123.837" cy="343.415" r="17.691"/></g></g></g></svg>