<?xml version="1.0" encoding="iso-8859-1"?>
<!-- Generator: Adobe Illustrator 19.0.0, SVG Export Plug-In . SVG Version: 6.00 Build 0)  -->
<svg version="1.1" id="Capa_1" xmlns="http://www.w3.org/2000/svg" xmlns:xlink="http://www.w3.org/1999/xlink" x="0px" y="0px"
	 viewBox="0 0 511.989 511.989" style="enable-background:new 0 0 511.989 511.989;" xml:space="preserve">
<path style="fill:#455A64;" d="M263.518,397.803L114.185,248.47c-4.165-4.164-10.917-4.164-15.083,0l-80.853,80.853
	c-24.324,24.313-24.333,63.742-0.019,88.066c0.006,0.006,0.013,0.013,0.019,0.019l76.331,76.331
	c24.313,24.324,63.742,24.333,88.066,0.019c0.007-0.006,0.013-0.013,0.019-0.019l80.832-80.832
	c4.177-4.154,4.195-10.908,0.04-15.085C263.531,397.816,263.524,397.81,263.518,397.803z"/>
<g>
	<path style="fill:#CFD8DC;" d="M117.321,448.001c-2.831,0.005-5.548-1.115-7.552-3.115l-42.667-42.667
		c-4.093-4.237-3.976-10.99,0.262-15.083c4.134-3.993,10.687-3.993,14.821,0l42.667,42.667c4.159,4.172,4.149,10.926-0.024,15.085
		C122.834,446.876,120.136,447.995,117.321,448.001z"/>
	<path style="fill:#CFD8DC;" d="M159.987,426.667c-2.831,0.005-5.548-1.115-7.552-3.115l-64-64
		c-4.093-4.237-3.975-10.99,0.262-15.083c4.134-3.993,10.687-3.993,14.821,0l64,64c4.159,4.172,4.149,10.926-0.024,15.085
		C165.501,425.542,162.802,426.661,159.987,426.667z"/>
</g>
<path style="fill:#F44336;" d="M479.987,277.334L479.987,277.334v-10.667c2.657,0.027,5.228-0.94,7.211-2.709
	c16.018-16.364,24.928-38.392,24.789-61.291c0-38.677-67.563-202.667-202.667-202.667c-134.016,0-224,185.472-224,224
	c0,54.229,128,192,192,192c62.784,0,213.333-36.843,213.333-128C490.654,282.11,485.878,277.334,479.987,277.334z"/>
<g>
	<path style="fill:#C62828;" d="M373.321,320.001c-2.831,0.005-5.548-1.115-7.552-3.115c-21.699-22.204-27.826-55.32-15.509-83.819
		c8.208-23.676,30.028-39.95,55.061-41.067c51.2,0,85.333,57.771,85.333,96c0,5.891-4.776,10.667-10.667,10.667
		c-5.891,0-10.667-4.776-10.667-10.667c0-29.376-27.477-74.667-64-74.667c-16.297,1.393-30.198,12.359-35.349,27.883
		c-8.901,20.537-4.613,44.41,10.88,60.565c4.171,4.16,4.179,10.914,0.019,15.085C378.87,318.873,376.154,320,373.321,320.001z"/>
	<path style="fill:#C62828;" d="M351.987,298.667c-46.933,0-138.667-105.899-138.667-138.667
		c4.254-36.086,21.127-69.507,47.637-94.357c4.984-3.146,11.574-1.656,14.72,3.328c3.146,4.984,1.656,11.574-3.328,14.72
		c-20.254,20.856-33.441,47.55-37.696,76.309c0,18.837,80.512,117.333,117.333,117.333c5.891,0,10.667,4.776,10.667,10.667
		C362.654,293.892,357.878,298.667,351.987,298.667z"/>
	<path style="fill:#C62828;" d="M236.937,126.827c-3.509,0.003-6.796-1.72-8.789-4.608l-12.949-18.816
		c-3.173-4.963-1.722-11.559,3.241-14.733c4.724-3.02,10.979-1.868,14.317,2.637l12.949,18.816
		c3.346,4.848,2.128,11.492-2.72,14.838c-1.778,1.227-3.887,1.885-6.048,1.888V126.827z"/>
</g>
<g>
</g>
<g>
</g>
<g>
</g>
<g>
</g>
<g>
</g>
<g>
</g>
<g>
</g>
<g>
</g>
<g>
</g>
<g>
</g>
<g>
</g>
<g>
</g>
<g>
</g>
<g>
</g>
<g>
</g>
</svg>
