<?xml version="1.0" encoding="iso-8859-1"?>
<!-- Generator: Adobe Illustrator 19.0.0, SVG Export Plug-In . SVG Version: 6.00 Build 0)  -->
<svg version="1.1" id="Layer_1" xmlns="http://www.w3.org/2000/svg" xmlns:xlink="http://www.w3.org/1999/xlink" x="0px" y="0px"
	 viewBox="0 0 512 512" style="enable-background:new 0 0 512 512;" xml:space="preserve">
<path style="fill:#54747B;" d="M144.372,272.207c-2.183,0-4.368-0.833-6.034-2.499c-3.333-3.333-3.333-8.735,0-12.068
	l138.781-138.782c3.332-3.331,8.735-3.331,12.067,0c3.333,3.333,3.333,8.735,0,12.068L150.405,269.708
	C148.739,271.374,146.556,272.207,144.372,272.207z"/>
<path style="fill:#FDD349;" d="M150.406,257.64c-7.537-7.539-19.325-9.628-28.986-5.086c-9.689,4.555-15.602,14.954-14.606,25.602
	c0.994,10.614,8.768,19.725,19.101,22.369c10.475,2.681,21.764-1.651,27.748-10.659C160.318,279.849,158.895,266.128,150.406,257.64
	z"/>
<path style="fill:#FCAF27;" d="M126.964,293.843c-4.835-4.835-7.499-11.264-7.499-18.102s2.663-13.267,7.499-18.102
	c3.292-3.293,7.324-5.574,11.721-6.698c-2.06-0.526-4.199-0.8-6.382-0.8c-6.838,0-13.267,2.662-18.101,7.498
	c-4.835,4.835-7.499,11.264-7.499,18.102s2.663,13.267,7.499,18.102c4.991,4.991,11.547,7.486,18.102,7.486
	c2.147,0,4.289-0.295,6.381-0.831C134.389,299.399,130.32,297.199,126.964,293.843z"/>
<path style="fill:#FDD349;" d="M397.799,10.246C397.798,10.245,397.798,10.245,397.799,10.246
	c-13.309-13.308-34.963-13.307-48.273-0.001l-54.305,54.306c-0.649,0.649-1.188,1.398-1.599,2.218l-24.135,48.272
	c-1.643,3.285-0.999,7.253,1.599,9.851l12.068,12.067c2.57,2.57,6.598,3.223,9.85,1.598l48.272-24.137
	c0.82-0.411,1.569-0.95,2.218-1.598l54.306-54.306C411.107,45.209,411.107,23.555,397.799,10.246z"/>
<path style="fill:#FCAF27;" d="M281.554,127.109l24.135-48.272c0.41-0.82,0.95-1.569,1.599-2.218l54.306-54.306
	c11.226-11.223,28.39-12.98,41.474-5.269c-1.43-2.428-3.187-4.715-5.269-6.797c-0.001-0.001-0.001-0.001-0.001-0.001
	c-13.308-13.308-34.963-13.307-48.272,0l-54.305,54.305c-0.649,0.649-1.188,1.398-1.599,2.218l-24.135,48.272
	c-1.643,3.285-0.999,7.253,1.599,9.851l12.065,12.065C280.556,134.359,279.913,130.393,281.554,127.109z"/>
<path style="fill:#3C6168;" d="M367.628,272.206c-2.183,0-4.368-0.833-6.034-2.499L222.813,130.926
	c-3.333-3.333-3.333-8.735,0-12.068c3.332-3.331,8.735-3.331,12.067,0l138.781,138.781c3.333,3.333,3.333,8.735,0,12.068
	C371.996,271.373,369.812,272.206,367.628,272.206z"/>
<path style="fill:#FDD349;" d="M397.798,257.64c-7.537-7.539-19.325-9.628-28.986-5.086c-9.689,4.555-15.602,14.954-14.606,25.601
	c0.994,10.614,8.768,19.725,19.101,22.369c10.475,2.681,21.764-1.651,27.748-10.659C407.71,279.848,406.287,266.128,397.798,257.64z
	"/>
<path style="fill:#FCAF27;" d="M374.431,293.843c-4.835-4.835-7.499-11.264-7.499-18.102s2.663-13.267,7.499-18.102
	c3.283-3.283,7.301-5.562,11.683-6.688c-2.071-0.532-4.223-0.811-6.418-0.811c-6.838,0-13.267,2.662-18.102,7.498
	c-4.835,4.835-7.499,11.264-7.499,18.102c0,6.838,2.663,13.267,7.499,18.102c4.991,4.991,11.547,7.486,18.101,7.486
	c2.16,0,4.315-0.298,6.418-0.839C381.833,299.387,377.777,297.189,374.431,293.843z"/>
<path style="fill:#FDD349;" d="M242.513,115.041l-24.135-48.272c-0.41-0.82-0.95-1.569-1.599-2.218l-54.306-54.306
	c-13.309-13.309-34.963-13.309-48.272,0c0,0,0,0,0,0.001c-13.308,13.309-13.308,34.962,0,48.272l54.306,54.305
	c0.649,0.647,1.397,1.187,2.218,1.598l48.272,24.137c3.251,1.626,7.281,0.972,9.85-1.598l12.068-12.067
	C243.513,122.294,244.156,118.326,242.513,115.041z"/>
<path style="fill:#FCAF27;" d="M240.914,124.892c-1.638,1.638-3.822,2.499-6.036,2.499c-1.295,0-2.601-0.294-3.813-0.901
	l-48.272-24.137c-0.82-0.411-1.569-0.95-2.218-1.598L126.269,46.45c-11.226-11.227-12.982-28.391-5.269-41.475
	c-2.428,1.431-4.716,3.187-6.798,5.27c0,0,0,0,0,0.001c-13.308,13.308-13.308,34.962,0,48.272l54.306,54.305
	c0.649,0.647,1.397,1.187,2.218,1.598l48.272,24.137c3.251,1.626,7.28,0.972,9.85-1.598L240.914,124.892
	c0.001-0.001,0.002-0.002,0.003-0.003L240.914,124.892z"/>
<path style="fill:#38ABEC;" d="M460.8,511.736c-13.941,0-26.342-6.721-34.133-17.093c-7.791,10.373-20.192,17.093-34.133,17.093
	s-26.342-6.721-34.133-17.093c-7.791,10.373-20.192,17.093-34.133,17.093s-26.342-6.721-34.133-17.093
	c-7.791,10.373-20.192,17.093-34.133,17.093c-13.941,0-26.342-6.721-34.133-17.093c-7.791,10.373-20.192,17.093-34.133,17.093
	c-13.941,0-26.342-6.721-34.133-17.093c-7.791,10.373-20.192,17.093-34.133,17.093s-26.342-6.721-34.133-17.093
	c-7.791,10.373-20.192,17.093-34.133,17.093c-23.526,0-42.667-19.14-42.667-42.667c0-4.713,3.821-8.533,8.533-8.533
	s8.533,3.821,8.533,8.533c0,14.115,11.485,25.6,25.6,25.6s25.6-11.485,25.6-25.6c0-4.713,3.821-8.533,8.533-8.533
	s8.533,3.821,8.533,8.533c0,14.115,11.485,25.6,25.6,25.6s25.6-11.485,25.6-25.6c0-4.713,3.821-8.533,8.533-8.533
	c4.713,0,8.533,3.821,8.533,8.533c0,14.115,11.485,25.6,25.6,25.6s25.6-11.485,25.6-25.6c0-4.713,3.821-8.533,8.533-8.533
	c4.713,0,8.533,3.821,8.533,8.533c0,14.115,11.485,25.6,25.6,25.6c14.115,0,25.6-11.485,25.6-25.6c0-4.713,3.821-8.533,8.533-8.533
	c4.713,0,8.533,3.821,8.533,8.533c0,14.115,11.485,25.6,25.6,25.6s25.6-11.485,25.6-25.6c0-4.713,3.821-8.533,8.533-8.533
	s8.533,3.821,8.533,8.533c0,14.115,11.485,25.6,25.6,25.6s25.6-11.485,25.6-25.6c0-4.713,3.821-8.533,8.533-8.533
	s8.533,3.821,8.533,8.533c0,14.115,11.485,25.6,25.6,25.6s25.6-11.485,25.6-25.6c0-4.713,3.821-8.533,8.533-8.533
	c4.713,0,8.533,3.821,8.533,8.533C503.467,492.595,484.326,511.736,460.8,511.736z"/>
<path style="fill:#94C54B;" d="M473.543,273.847c-3.827-2.802-9.659-1.778-12.206,2.257c-2.61,4.133-0.537,9.276-0.537,13.764
	c0,23.526-19.14,42.667-42.667,42.667H93.867c-23.526,0-42.667-19.14-42.667-42.667c0-4.482,2.071-9.636-0.538-13.762
	c-2.553-4.035-8.369-5.071-12.206-2.26C14.377,291.488,0,319.808,0,349.603c0,51.758,42.109,93.867,93.867,93.867h324.267
	c51.758,0,93.867-42.109,93.867-93.867C512,319.808,497.624,291.488,473.543,273.847z"/>
<path style="fill:#75B22D;" d="M435.2,426.959H110.933c-51.758,0-93.867-42.109-93.867-93.867c0-21.49,7.482-42.211,20.686-58.713
	C14.099,292.054,0,320.102,0,349.603c0,51.758,42.109,93.867,93.867,93.867h324.267c29.579,0,56.001-13.756,73.218-35.202
	C475.682,420.001,456.238,426.959,435.2,426.959z"/>
<g>
	<path style="fill:#659C2F;" d="M478.933,349.603h-1.067c-4.713,0-8.533-3.821-8.533-8.533c0-4.713,3.821-8.533,8.533-8.533h1.067
		c4.713,0,8.533,3.821,8.533,8.533C487.467,345.782,483.646,349.603,478.933,349.603z"/>
	<path style="fill:#659C2F;" d="M35.2,349.603h-1.067c-4.713,0-8.533-3.821-8.533-8.533c0-4.713,3.821-8.533,8.533-8.533H35.2
		c4.713,0,8.533,3.821,8.533,8.533C43.733,345.782,39.913,349.603,35.2,349.603z"/>
</g>
<path style="fill:#FF8B1B;" d="M15.232,400.803h481.536c5.102-7.81,9.077-16.419,11.683-25.6H3.549
	C6.155,384.384,10.13,392.993,15.232,400.803z"/>
<path style="fill:#F57811;" d="M27.059,375.203H3.549c2.606,9.181,6.581,17.79,11.683,25.6h30.759
	C38.318,393.44,31.892,384.789,27.059,375.203z"/>
<g>
</g>
<g>
</g>
<g>
</g>
<g>
</g>
<g>
</g>
<g>
</g>
<g>
</g>
<g>
</g>
<g>
</g>
<g>
</g>
<g>
</g>
<g>
</g>
<g>
</g>
<g>
</g>
<g>
</g>
</svg>
