<?xml version="1.0" encoding="iso-8859-1"?>
<!-- Generator: Adobe Illustrator 19.0.0, SVG Export Plug-In . SVG Version: 6.00 Build 0)  -->
<svg version="1.1" id="Layer_1" xmlns="http://www.w3.org/2000/svg" xmlns:xlink="http://www.w3.org/1999/xlink" x="0px" y="0px"
	 viewBox="0 0 511.966 511.966" style="enable-background:new 0 0 511.966 511.966;" xml:space="preserve">
<g>
	<path style="fill:#E6E9ED;" d="M223.708,412.284H53.435c-5.89,0-10.656-4.781-10.656-10.688c0-5.891,4.766-10.656,10.656-10.656
		h170.272c5.89,0,10.671,4.766,10.671,10.656C234.379,407.503,229.598,412.284,223.708,412.284z"/>
	<path style="fill:#E6E9ED;" d="M117.229,348.255H74.684c-5.89,0-10.671-4.781-10.671-10.688c0-5.89,4.781-10.655,10.671-10.655
		h42.544c5.891,0,10.671,4.766,10.671,10.655C127.9,343.474,123.119,348.255,117.229,348.255z"/>
	<path style="fill:#E6E9ED;" d="M74.544,284.227H10.656C4.765,284.227,0,279.446,0,273.54c0-5.883,4.765-10.664,10.656-10.664
		h63.887c5.89,0,10.671,4.781,10.671,10.664C85.215,279.446,80.434,284.227,74.544,284.227z"/>
	<path style="fill:#E6E9ED;" d="M117.135,220.191H74.684c-5.89,0-10.671-4.773-10.671-10.671c0-5.89,4.781-10.671,10.671-10.671
		h42.451c5.891,0,10.671,4.781,10.671,10.671C127.806,215.419,123.025,220.191,117.135,220.191z"/>
</g>
<path style="fill:#4A89DC;" d="M341.225,99.682H234.52c-11.781,0-21.343,9.562-21.343,21.343c0,11.788,9.562,21.343,21.343,21.343
	h106.706c11.78,0,21.342,9.554,21.342,21.342v21.343h42.686V163.71C405.253,128.353,376.598,99.682,341.225,99.682z"/>
<path style="fill:#656D78;" d="M437.282,198.849H181.163c-41.186,0-74.699,33.514-74.699,74.691v64.027
	c0,41.186,33.514,74.716,74.699,74.716h256.119c41.186,0,74.684-33.53,74.684-74.716V273.54
	C511.965,232.363,478.467,198.849,437.282,198.849z"/>
<path style="opacity:0.2;fill:#FFFFFF;enable-background:new    ;" d="M437.282,198.849H415.94
	c41.186,0,74.684,33.514,74.684,74.691v64.027c0,41.186-33.498,74.716-74.684,74.716h21.342c41.186,0,74.684-33.53,74.684-74.716
	V273.54C511.965,232.363,478.467,198.849,437.282,198.849z"/>
<path style="fill:#5D9CEC;" d="M475.717,209.52l-41.561-32.014c-2.03-2-4.718-3.125-7.562-3.125h-234.76
	c-2.828,0-5.546,1.125-7.546,3.125l-41.56,32.014L475.717,209.52L475.717,209.52z"/>
<g>
</g>
<g>
</g>
<g>
</g>
<g>
</g>
<g>
</g>
<g>
</g>
<g>
</g>
<g>
</g>
<g>
</g>
<g>
</g>
<g>
</g>
<g>
</g>
<g>
</g>
<g>
</g>
<g>
</g>
</svg>
