<svg id="Layer_1" enable-background="new 0 0 512 512" height="512" viewBox="0 0 512 512" width="512" xmlns="http://www.w3.org/2000/svg"><g><g fill="#a16035"><ellipse cx="90.656" cy="333.235" rx="21.126" ry="21.152"/><ellipse cx="421.344" cy="333.235" rx="21.126" ry="21.152"/></g><path d="m169.603 146.862h-42.22c-2.277 0-4.123-1.846-4.123-4.123v-39.2c0-2.277 1.846-4.123 4.123-4.123h42.22c13.094 0 23.709 10.615 23.709 23.709v.029c0 13.094-10.615 23.708-23.709 23.708z" fill="#ffd54f"/><path d="m169.618 99.415h-30.905c13.086 0 23.694 10.621 23.694 23.723 0 13.102-10.608 23.724-23.694 23.724h30.905c13.086 0 23.694-10.621 23.694-23.724 0-13.101-10.608-23.723-23.694-23.723z" fill="#ffca28"/><path d="m90.659 242.468c-50.072 0-90.659 40.636-90.659 90.771 0 50.124 40.587 90.761 90.659 90.761 50.062 0 90.649-40.637 90.649-90.761 0-50.135-40.587-90.771-90.649-90.771zm0 150.762c-33.047 0-59.927-26.913-59.927-59.991 0-33.088 26.88-60.001 59.927-60.001 33.037 0 59.917 26.913 59.917 60.001 0 33.078-26.88 59.991-59.917 59.991z" fill="#607d8b"/><path d="m421.341 242.468c-50.062 0-90.649 40.637-90.649 90.771 0 50.124 40.587 90.761 90.649 90.761 50.072 0 90.659-40.637 90.659-90.761 0-50.135-40.587-90.771-90.659-90.771zm0 150.762c-33.037 0-59.917-26.913-59.917-59.991 0-33.088 26.88-60.001 59.917-60.001 33.047 0 59.927 26.913 59.927 60.001 0 33.078-26.88 59.991-59.927 59.991z" fill="#607d8b"/><path d="m425.694 327.781-121.293-124.589 16.439-48.571c1.328-3.923-.776-8.181-4.7-9.508-3.925-1.329-8.181.776-9.508 4.7l-16.324 48.232h-144.773l12.838-36.839c16.023-46.041 47.986-58.206 62.648-58.206h20.312c4.142 0 7.5-3.358 7.5-7.5s-3.358-7.5-7.5-7.5h-20.312c-25.552 0-60.489 21.366-76.815 68.273l-60.633 173.994c-1.363 3.911.703 8.187 4.614 9.55.817.285 1.649.419 2.468.419 3.102 0 6.004-1.939 7.083-5.034l41.112-117.975 108.108 120.787c1.423 1.589 3.455 2.498 5.588 2.498h167.774c3.015 0 5.737-1.806 6.91-4.583s.567-5.987-1.536-8.148zm-140.463-114.736-35.669 105.389-94.326-105.389zm-22.229 112.468 35.999-106.365 103.551 106.365z" fill="#f05656"/><path d="m342.057 165.526h-56.641c-8.54 0-15.462-6.923-15.462-15.462v-.019c0-8.54 6.923-15.462 15.462-15.462h56.641c8.54 0 15.462 6.923 15.462 15.462v.019c0 8.539-6.923 15.462-15.462 15.462z" fill="#a16035"/><path d="m342.066 134.582h-30.905c8.534 0 15.453 6.927 15.453 15.472 0 8.545-6.918 15.472-15.453 15.472h30.905c8.534 0 15.453-6.927 15.453-15.472 0-8.545-6.919-15.472-15.453-15.472z" fill="#945831"/></g></svg>