<svg id="icons" enable-background="new 0 0 64 64" height="512" viewBox="0 0 64 64" width="512" xmlns="http://www.w3.org/2000/svg"><g><g><path d="m38.51 12.501c-.553 0-1-.448-1-1v-4c0-.552.447-1 1-1s1 .448 1 1v4c0 .552-.447 1-1 1z" fill="#545c66"/></g><g><path d="m34.51 12.501c-.553 0-1-.448-1-1v-4c0-.552.447-1 1-1s1 .448 1 1v4c0 .552-.447 1-1 1z" fill="#545c66"/></g><g><path d="m30.51 12.501c-.553 0-1-.448-1-1v-4c0-.552.447-1 1-1s1 .448 1 1v4c0 .552-.447 1-1 1z" fill="#545c66"/></g><g><path d="m26.502 12.501c-.553 0-1-.448-1-1v-4c0-.552.447-1 1-1s1 .448 1 1v4c0 .552-.447 1-1 1z" fill="#545c66"/></g><g><path d="m22.494 12.501c-.553 0-1-.448-1-1v-4c0-.552.447-1 1-1s1 .448 1 1v4c0 .552-.447 1-1 1z" fill="#545c66"/></g><path d="m3.5 1.5c-.55 0-1 .451-1 1v29.001 1.502s0 .952 0 1.502v2.002 2 10.996c0 .55.45 1 1 1h14c.55 0 1-.45 1-1v-10.996c0-.55 0-1.45 0-2v-2.002c0-.55 0-1.226 0-1.502s0-.952 0-1.502v-17.001c0-.549 0-1.449 0-2v-5c0-.549 0-1.449 0-2v-3c0-.549-.45-1-1-1z" fill="#e6e9ed"/><g><path d="m36.5 50.49 1-1 1 1 1-1 1 1 1-1 1 1 1-1 1 1 1-1 1 1 1-1 1 1 1-1 1 1 1-1 1 1 1-1 1 1 1-1 1 1 1-1 1 1 1-1 1 1 1-1 1 1v12.01h-62v-12h21v-1.01l1 1 1-1 1 1 1-1 1 1 1-1 1 1 1-1 1 1 1-1 1 1 1-1 1 1 1-1z" fill="#4a89dc"/></g><path d="m41.51 10.5h-2c-.55 0-1.45 0-2 0h-2c-.55 0-1.45 0-2 0h-2c-.55 0-1.45 0-2 0h-2.01c-.55 0-1.45 0-2 0h-2.01c-.55 0-1.45 0-2 0h-2.972v3h22.992c.55 0 1-.449 1-1v-1c0-.549-.45-1-1-1z" fill="#656d78"/><g><path d="m22.501 50.491v1.01h-22.001v-.01-2.99h2 16 3z" fill="#656d78"/></g><g><path d="m40.509 8.501h-19.989c-.553 0-1-.448-1-1s.447-1 1-1h19.989c.553 0 1 .448 1 1s-.447 1-1 1z" fill="#656d78"/></g><g><g><path d="m30.502 30.498c-.553 0-1-.447-1-1v-1.996c0-.553.447-1 1-1s1 .447 1 1v1.996c0 .553-.447 1-1 1z" fill="#545c66"/></g><g><path d="m26.502 30.498c-.553 0-1-.447-1-1v-1.996c0-.553.447-1 1-1s1 .447 1 1v1.996c0 .553-.447 1-1 1z" fill="#545c66"/></g><g><path d="m22.502 30.498c-.553 0-1-.447-1-1v-1.996c0-.553.447-1 1-1s1 .447 1 1v1.996c0 .553-.447 1-1 1z" fill="#545c66"/></g><g><path d="m18.502 30.498c-.553 0-1-.447-1-1v-1.996c0-.553.447-1 1-1s1 .447 1 1v1.996c0 .553-.447 1-1 1z" fill="#545c66"/></g><g><path d="m14.502 30.498c-.553 0-1-.447-1-1v-1.996c0-.553.447-1 1-1s1 .447 1 1v1.996c0 .553-.447 1-1 1z" fill="#545c66"/></g><g><path d="m10.502 30.498c-.553 0-1-.447-1-1v-1.996c0-.553.447-1 1-1s1 .447 1 1v1.996c0 .553-.447 1-1 1z" fill="#545c66"/></g><g><path d="m6.502 30.498c-.553 0-1-.447-1-1v-1.996c0-.553.447-1 1-1s1 .447 1 1v1.996c0 .553-.447 1-1 1z" fill="#545c66"/></g></g><g><path d="m39.5 59.503c-.256 0-.512-.098-.707-.293l-1-1c-.391-.391-.391-1.023 0-1.414s1.023-.391 1.414 0l1 1c.391.391.391 1.023 0 1.414-.195.195-.451.293-.707.293z"/></g><g><g><path d="m35.5 59.501c-.256 0-.513-.098-.708-.294-.39-.391-.39-1.023.002-1.414l1-.998c.391-.389 1.023-.391 1.414.002.39.391.39 1.023-.002 1.414l-1 .998c-.195.194-.45.292-.706.292z" fill="#5d9cec"/></g><g><path d="m37.5 59.503c-.256 0-.512-.098-.707-.293l-1-1c-.391-.391-.391-1.023 0-1.414s1.023-.391 1.414 0l1 1c.391.391.391 1.023 0 1.414-.195.195-.451.293-.707.293z" fill="#5d9cec"/></g><g><path d="m37.5 59.501c-.256 0-.513-.098-.708-.294-.39-.391-.39-1.023.002-1.414l1-.998c.391-.389 1.023-.391 1.414.002.39.391.39 1.023-.002 1.414l-1 .998c-.195.194-.45.292-.706.292z" fill="#5d9cec"/></g><g><path d="m39.5 59.501c-.256 0-.513-.098-.708-.294-.39-.391-.39-1.023.002-1.414l1-.998c.391-.389 1.023-.391 1.414.002.39.391.39 1.023-.002 1.414l-1 .998c-.195.194-.45.292-.706.292z" fill="#5d9cec"/></g><g><path d="m41.5 59.503c-.256 0-.512-.098-.707-.293l-1-1c-.391-.391-.391-1.023 0-1.414s1.023-.391 1.414 0l1 1c.391.391.391 1.023 0 1.414-.195.195-.451.293-.707.293z" fill="#5d9cec"/></g><g><path d="m41.5 59.501c-.256 0-.513-.098-.708-.294-.39-.391-.39-1.023.002-1.414l1-.998c.391-.389 1.023-.391 1.414.002.39.391.39 1.023-.002 1.414l-1 .998c-.195.194-.45.292-.706.292z" fill="#5d9cec"/></g><g><path d="m43.5 59.503c-.256 0-.512-.098-.707-.293l-1-1c-.391-.391-.391-1.023 0-1.414s1.023-.391 1.414 0l1 1c.391.391.391 1.023 0 1.414-.195.195-.451.293-.707.293z" fill="#5d9cec"/></g><g><path d="m43.5 59.501c-.256 0-.513-.098-.708-.294-.39-.391-.39-1.023.002-1.414l1-.998c.391-.389 1.023-.391 1.414.002.39.391.39 1.023-.002 1.414l-1 .998c-.195.194-.45.292-.706.292z" fill="#5d9cec"/></g><g><path d="m45.5 59.503c-.256 0-.512-.098-.707-.293l-1-1c-.391-.391-.391-1.023 0-1.414s1.023-.391 1.414 0l1 1c.391.391.391 1.023 0 1.414-.195.195-.451.293-.707.293z" fill="#5d9cec"/></g><g><path d="m45.5 59.501c-.256 0-.513-.098-.708-.294-.39-.391-.39-1.023.002-1.414l1-.998c.391-.389 1.023-.391 1.414.002.39.391.39 1.023-.002 1.414l-1 .998c-.195.194-.45.292-.706.292z" fill="#5d9cec"/></g><g><path d="m47.5 59.503c-.256 0-.512-.098-.707-.293l-1-1c-.391-.391-.391-1.023 0-1.414s1.023-.391 1.414 0l1 1c.391.391.391 1.023 0 1.414-.195.195-.451.293-.707.293z" fill="#5d9cec"/></g><g><path d="m47.5 59.501c-.256 0-.513-.098-.708-.294-.39-.391-.39-1.023.002-1.414l1-.998c.391-.389 1.023-.391 1.414.002.39.391.39 1.023-.002 1.414l-1 .998c-.195.194-.45.292-.706.292z" fill="#5d9cec"/></g><g><path d="m49.5 59.503c-.256 0-.512-.098-.707-.293l-1-1c-.391-.391-.391-1.023 0-1.414s1.023-.391 1.414 0l1 1c.391.391.391 1.023 0 1.414-.195.195-.451.293-.707.293z" fill="#5d9cec"/></g><g><path d="m49.5 59.501c-.256 0-.513-.098-.708-.294-.39-.391-.39-1.023.002-1.414l1-.998c.391-.389 1.023-.391 1.414.002.39.391.39 1.023-.002 1.414l-1 .998c-.195.194-.45.292-.706.292z" fill="#5d9cec"/></g><g><path d="m51.5 59.503c-.256 0-.512-.098-.707-.293l-1-1c-.391-.391-.391-1.023 0-1.414s1.023-.391 1.414 0l1 1c.391.391.391 1.023 0 1.414-.195.195-.451.293-.707.293z" fill="#5d9cec"/></g><g><path d="m14.5 57.499c-.256 0-.513-.098-.708-.294-.39-.391-.39-1.023.002-1.414l1-.998c.391-.389 1.023-.391 1.414.002.39.391.39 1.023-.002 1.414l-1 .998c-.195.194-.45.292-.706.292z" fill="#5d9cec"/></g><g><path d="m16.5 57.501c-.256 0-.512-.098-.707-.293l-1-1c-.391-.391-.391-1.023 0-1.414s1.023-.391 1.414 0l1 1c.391.391.391 1.023 0 1.414-.195.195-.451.293-.707.293z" fill="#5d9cec"/></g><g><path d="m16.5 57.499c-.256 0-.513-.098-.708-.294-.39-.391-.39-1.023.002-1.414l1-.998c.391-.389 1.023-.391 1.414.002.39.391.39 1.023-.002 1.414l-1 .998c-.195.194-.45.292-.706.292z" fill="#5d9cec"/></g><g><path d="m18.5 57.501c-.256 0-.512-.098-.707-.293l-1-1c-.391-.391-.391-1.023 0-1.414s1.023-.391 1.414 0l1 1c.391.391.391 1.023 0 1.414-.195.195-.451.293-.707.293z" fill="#5d9cec"/></g><g><path d="m18.5 57.499c-.256 0-.513-.098-.708-.294-.39-.391-.39-1.023.002-1.414l1-.998c.391-.389 1.023-.391 1.414.002.39.391.39 1.023-.002 1.414l-1 .998c-.195.194-.45.292-.706.292z" fill="#5d9cec"/></g><g><path d="m20.5 57.501c-.256 0-.512-.098-.707-.293l-1-1c-.391-.391-.391-1.023 0-1.414s1.023-.391 1.414 0l1 1c.391.391.391 1.023 0 1.414-.195.195-.451.293-.707.293z" fill="#5d9cec"/></g><g><path d="m20.5 57.499c-.256 0-.513-.098-.708-.294-.39-.391-.39-1.023.002-1.414l1-.998c.391-.389 1.023-.391 1.414.002.39.391.39 1.023-.002 1.414l-1 .998c-.195.194-.45.292-.706.292z" fill="#5d9cec"/></g><g><path d="m22.5 57.501c-.256 0-.512-.098-.707-.293l-1-1c-.391-.391-.391-1.023 0-1.414s1.023-.391 1.414 0l1 1c.391.391.391 1.023 0 1.414-.195.195-.451.293-.707.293z" fill="#5d9cec"/></g><g><path d="m22.5 57.499c-.256 0-.513-.098-.708-.294-.39-.391-.39-1.023.002-1.414l1-.998c.391-.389 1.023-.391 1.414.002.39.391.39 1.023-.002 1.414l-1 .998c-.195.194-.45.292-.706.292z" fill="#5d9cec"/></g><g><path d="m24.5 57.501c-.256 0-.512-.098-.707-.293l-1-1c-.391-.391-.391-1.023 0-1.414s1.023-.391 1.414 0l1 1c.391.391.391 1.023 0 1.414-.195.195-.451.293-.707.293z" fill="#5d9cec"/></g><g><g><path d="m22.5 51.491c-.256 0-.512-.098-.707-.293-.391-.391-.391-1.023 0-1.414l1-1c.391-.391 1.023-.391 1.414 0s.391 1.023 0 1.414l-1 1c-.195.196-.451.293-.707.293z" fill="#5d9cec"/></g><g><path d="m24.5 51.491c-.256 0-.512-.098-.707-.293l-1-1c-.391-.391-.391-1.023 0-1.414s1.023-.391 1.414 0l1 1c.391.391.391 1.023 0 1.414-.195.196-.451.293-.707.293z" fill="#5d9cec"/></g><g><path d="m22.5 51.491c-.256 0-.512-.098-.707-.293l-1-1c-.391-.391-.391-1.023 0-1.414s1.023-.391 1.414 0l1 1c.391.391.391 1.023 0 1.414-.195.196-.451.293-.707.293z" fill="#5d9cec"/></g><g><path d="m24.5 51.491c-.256 0-.512-.098-.707-.293-.391-.391-.391-1.023 0-1.414l1-1c.391-.391 1.023-.391 1.414 0s.391 1.023 0 1.414l-1 1c-.195.196-.451.293-.707.293z" fill="#5d9cec"/></g><g><path d="m26.5 51.491c-.256 0-.512-.098-.707-.293l-1-1c-.391-.391-.391-1.023 0-1.414s1.023-.391 1.414 0l1 1c.391.391.391 1.023 0 1.414-.195.196-.451.293-.707.293z" fill="#5d9cec"/></g><g><path d="m26.5 51.491c-.256 0-.512-.098-.707-.293-.391-.391-.391-1.023 0-1.414l1-1c.391-.391 1.023-.391 1.414 0s.391 1.023 0 1.414l-1 1c-.195.196-.451.293-.707.293z" fill="#5d9cec"/></g><g><path d="m28.5 51.491c-.256 0-.512-.098-.707-.293l-1-1c-.391-.391-.391-1.023 0-1.414s1.023-.391 1.414 0l1 1c.391.391.391 1.023 0 1.414-.195.196-.451.293-.707.293z" fill="#5d9cec"/></g><g><path d="m28.5 51.491c-.256 0-.512-.098-.707-.293-.391-.391-.391-1.023 0-1.414l1-1c.391-.391 1.023-.391 1.414 0s.391 1.023 0 1.414l-1 1c-.195.196-.451.293-.707.293z" fill="#5d9cec"/></g><g><path d="m30.5 51.491c-.256 0-.512-.098-.707-.293l-1-1c-.391-.391-.391-1.023 0-1.414s1.023-.391 1.414 0l1 1c.391.391.391 1.023 0 1.414-.195.196-.451.293-.707.293z" fill="#5d9cec"/></g><g><path d="m30.5 51.491c-.256 0-.512-.098-.707-.293-.391-.391-.391-1.023 0-1.414l1-1c.391-.391 1.023-.391 1.414 0s.391 1.023 0 1.414l-1 1c-.195.196-.451.293-.707.293z" fill="#5d9cec"/></g><g><path d="m32.5 51.491c-.256 0-.512-.098-.707-.293l-1-1c-.391-.391-.391-1.023 0-1.414s1.023-.391 1.414 0l1 1c.391.391.391 1.023 0 1.414-.195.196-.451.293-.707.293z" fill="#5d9cec"/></g><g><path d="m32.5 51.491c-.256 0-.512-.098-.707-.293-.391-.391-.391-1.023 0-1.414l1-1c.391-.391 1.023-.391 1.414 0s.391 1.023 0 1.414l-1 1c-.195.196-.451.293-.707.293z" fill="#5d9cec"/></g><g><path d="m34.5 51.491c-.256 0-.512-.098-.707-.293l-1-1c-.391-.391-.391-1.023 0-1.414s1.023-.391 1.414 0l1 1c.391.391.391 1.023 0 1.414-.195.196-.451.293-.707.293z" fill="#5d9cec"/></g><g><path d="m34.5 51.491c-.256 0-.512-.098-.707-.293-.391-.391-.391-1.023 0-1.414l1-1c.391-.391 1.023-.391 1.414 0s.391 1.023 0 1.414l-1 1c-.195.196-.451.293-.707.293z" fill="#5d9cec"/></g><g><path d="m36.5 51.491c-.256 0-.512-.098-.707-.293l-1-1c-.391-.391-.391-1.023 0-1.414s1.023-.391 1.414 0l1 1c.391.391.391 1.023 0 1.414-.195.196-.451.293-.707.293z" fill="#5d9cec"/></g><g><path d="m36.5 51.491c-.256 0-.512-.098-.707-.293-.391-.391-.391-1.023 0-1.414l1-1c.391-.391 1.023-.391 1.414 0s.391 1.023 0 1.414l-1 1c-.195.196-.451.293-.707.293z" fill="#5d9cec"/></g><g><path d="m38.5 51.491c-.256 0-.512-.098-.707-.293l-1-1c-.391-.391-.391-1.023 0-1.414s1.023-.391 1.414 0l1 1c.391.391.391 1.023 0 1.414-.195.196-.451.293-.707.293z" fill="#5d9cec"/></g><g><path d="m38.5 51.491c-.256 0-.512-.098-.707-.293-.391-.391-.391-1.023 0-1.414l1-1c.391-.391 1.023-.391 1.414 0s.391 1.023 0 1.414l-1 1c-.195.196-.451.293-.707.293z" fill="#5d9cec"/></g><g><path d="m40.5 51.491c-.256 0-.512-.098-.707-.293l-1-1c-.391-.391-.391-1.023 0-1.414s1.023-.391 1.414 0l1 1c.391.391.391 1.023 0 1.414-.195.196-.451.293-.707.293z" fill="#5d9cec"/></g><g><path d="m40.5 51.491c-.256 0-.512-.098-.707-.293-.391-.391-.391-1.023 0-1.414l1-1c.391-.391 1.023-.391 1.414 0s.391 1.023 0 1.414l-1 1c-.195.196-.451.293-.707.293z" fill="#5d9cec"/></g><g><path d="m42.5 51.491c-.256 0-.512-.098-.707-.293l-1-1c-.391-.391-.391-1.023 0-1.414s1.023-.391 1.414 0l1 1c.391.391.391 1.023 0 1.414-.195.196-.451.293-.707.293z" fill="#5d9cec"/></g><g><path d="m42.5 51.491c-.256 0-.512-.098-.707-.293-.391-.391-.391-1.023 0-1.414l1-1c.391-.391 1.023-.391 1.414 0s.391 1.023 0 1.414l-1 1c-.195.196-.451.293-.707.293z" fill="#5d9cec"/></g><g><path d="m44.5 51.491c-.256 0-.512-.098-.707-.293l-1-1c-.391-.391-.391-1.023 0-1.414s1.023-.391 1.414 0l1 1c.391.391.391 1.023 0 1.414-.195.196-.451.293-.707.293z" fill="#5d9cec"/></g><g><path d="m44.5 51.491c-.256 0-.512-.098-.707-.293-.391-.391-.391-1.023 0-1.414l1-1c.391-.391 1.023-.391 1.414 0s.391 1.023 0 1.414l-1 1c-.195.196-.451.293-.707.293z" fill="#5d9cec"/></g><g><path d="m46.5 51.491c-.256 0-.512-.098-.707-.293l-1-1c-.391-.391-.391-1.023 0-1.414s1.023-.391 1.414 0l1 1c.391.391.391 1.023 0 1.414-.195.196-.451.293-.707.293z" fill="#5d9cec"/></g><g><path d="m46.5 51.491c-.256 0-.512-.098-.707-.293-.391-.391-.391-1.023 0-1.414l1-1c.391-.391 1.023-.391 1.414 0s.391 1.023 0 1.414l-1 1c-.195.196-.451.293-.707.293z" fill="#5d9cec"/></g><g><path d="m48.5 51.491c-.256 0-.512-.098-.707-.293l-1-1c-.391-.391-.391-1.023 0-1.414s1.023-.391 1.414 0l1 1c.391.391.391 1.023 0 1.414-.195.196-.451.293-.707.293z" fill="#5d9cec"/></g><g><path d="m48.5 51.491c-.256 0-.512-.098-.707-.293-.391-.391-.391-1.023 0-1.414l1-1c.391-.391 1.023-.391 1.414 0s.391 1.023 0 1.414l-1 1c-.195.196-.451.293-.707.293z" fill="#5d9cec"/></g><g><path d="m50.5 51.491c-.256 0-.512-.098-.707-.293l-1-1c-.391-.391-.391-1.023 0-1.414s1.023-.391 1.414 0l1 1c.391.391.391 1.023 0 1.414-.195.196-.451.293-.707.293z" fill="#5d9cec"/></g><g><path d="m50.5 51.491c-.256 0-.512-.098-.707-.293-.391-.391-.391-1.023 0-1.414l1-1c.391-.391 1.023-.391 1.414 0s.391 1.023 0 1.414l-1 1c-.195.196-.451.293-.707.293z" fill="#5d9cec"/></g><g><path d="m52.5 51.491c-.256 0-.512-.098-.707-.293l-1-1c-.391-.391-.391-1.023 0-1.414s1.023-.391 1.414 0l1 1c.391.391.391 1.023 0 1.414-.195.196-.451.293-.707.293z" fill="#5d9cec"/></g><g><path d="m52.5 51.491c-.256 0-.512-.098-.707-.293-.391-.391-.391-1.023 0-1.414l1-1c.391-.391 1.023-.391 1.414 0s.391 1.023 0 1.414l-1 1c-.195.196-.451.293-.707.293z" fill="#5d9cec"/></g><g><path d="m54.5 51.491c-.256 0-.512-.098-.707-.293l-1-1c-.391-.391-.391-1.023 0-1.414s1.023-.391 1.414 0l1 1c.391.391.391 1.023 0 1.414-.195.196-.451.293-.707.293z" fill="#5d9cec"/></g><g><path d="m54.5 51.491c-.256 0-.512-.098-.707-.293-.391-.391-.391-1.023 0-1.414l1-1c.391-.391 1.023-.391 1.414 0s.391 1.023 0 1.414l-1 1c-.195.196-.451.293-.707.293z" fill="#5d9cec"/></g><g><path d="m56.5 51.491c-.256 0-.512-.098-.707-.293l-1-1c-.391-.391-.391-1.023 0-1.414s1.023-.391 1.414 0l1 1c.391.391.391 1.023 0 1.414-.195.196-.451.293-.707.293z" fill="#5d9cec"/></g><g><path d="m56.5 51.491c-.256 0-.512-.098-.707-.293-.391-.391-.391-1.023 0-1.414l1-1c.391-.391 1.023-.391 1.414 0s.391 1.023 0 1.414l-1 1c-.195.196-.451.293-.707.293z" fill="#5d9cec"/></g><g><path d="m58.5 51.491c-.256 0-.512-.098-.707-.293l-1-1c-.391-.391-.391-1.023 0-1.414s1.023-.391 1.414 0l1 1c.391.391.391 1.023 0 1.414-.195.196-.451.293-.707.293z" fill="#5d9cec"/></g><g><path d="m58.5 51.491c-.256 0-.512-.098-.707-.293-.391-.391-.391-1.023 0-1.414l1-1c.391-.391 1.023-.391 1.414 0s.391 1.023 0 1.414l-1 1c-.195.196-.451.293-.707.293z" fill="#5d9cec"/></g><g><path d="m60.5 51.491c-.256 0-.512-.098-.707-.293l-1-1c-.391-.391-.391-1.023 0-1.414s1.023-.391 1.414 0l1 1c.391.391.391 1.023 0 1.414-.195.196-.451.293-.707.293z" fill="#5d9cec"/></g><g><path d="m60.5 51.491c-.256 0-.512-.098-.707-.293-.391-.391-.391-1.023 0-1.414l1-1c.391-.391 1.023-.391 1.414 0s.391 1.023 0 1.414l-1 1c-.195.196-.451.293-.707.293z" fill="#5d9cec"/></g><g><path d="m62.5 51.491c-.256 0-.512-.098-.707-.293l-1-1c-.391-.391-.391-1.023 0-1.414s1.023-.391 1.414 0l1 1c.391.391.391 1.023 0 1.414-.195.196-.451.293-.707.293z" fill="#5d9cec"/></g></g></g><g><g><path d="m50.496 43.511c-.553 0-1-.447-1-1v-15.008c0-.552.447-1 1-1s1 .448 1 1v15.008c0 .552-.447 1-1 1z" fill="#656d78"/></g><g><path d="m50.496 43.511c-.256 0-.512-.098-.707-.293-.391-.391-.391-1.023 0-1.414l2-2c.391-.391 1.023-.391 1.414 0s.391 1.023 0 1.414l-2 2c-.195.195-.451.293-.707.293z" fill="#656d78"/></g><g><path d="m50.496 43.511c-.256 0-.512-.098-.707-.293l-2.002-2c-.391-.39-.391-1.023 0-1.414s1.023-.391 1.414 0l2.002 2c.391.39.391 1.023 0 1.414-.195.195-.451.293-.707.293z" fill="#656d78"/></g><g><path d="m44.494 36.507c-.553 0-1-.447-1-1v-15.007c0-.553.447-1 1-1s1 .447 1 1v15.007c0 .553-.447 1-1 1z" fill="#656d78"/></g><g><path d="m44.494 36.507c-.256 0-.512-.098-.707-.293-.391-.39-.391-1.023 0-1.414l2-2.002c.391-.391 1.023-.391 1.414 0 .391.39.391 1.023 0 1.414l-2 2.002c-.195.195-.451.293-.707.293z" fill="#656d78"/></g><g><path d="m44.494 36.507c-.256 0-.512-.098-.707-.293l-2.002-2.002c-.391-.391-.391-1.023 0-1.414s1.023-.391 1.414 0l2.002 2.002c.391.391.391 1.023 0 1.414-.195.195-.451.293-.707.293z" fill="#656d78"/></g><g><path d="m56.496 36.507c-.553 0-1-.447-1-1v-15.007c0-.553.447-1 1-1s1 .447 1 1v15.007c0 .553-.447 1-1 1z" fill="#656d78"/></g><g><path d="m56.496 36.507c-.256 0-.512-.098-.707-.293-.391-.391-.391-1.023 0-1.414l2.002-2.002c.391-.391 1.023-.391 1.414 0s.391 1.023 0 1.414l-2.002 2.002c-.195.195-.451.293-.707.293z" fill="#656d78"/></g><g><path d="m56.496 36.507c-.256 0-.512-.098-.707-.293l-2-2.002c-.391-.391-.391-1.024 0-1.414.391-.391 1.023-.391 1.414 0l2 2.002c.391.391.391 1.024 0 1.414-.195.195-.451.293-.707.293z" fill="#656d78"/></g></g><path d="m33.5 29.5h-2c-.55 0-1.45 0-2 0h-2c-.55 0-1.45 0-2 0h-2c-.55 0-1.45 0-2 0h-2c-.55 0-1.45 0-2 0h-2c-.55 0-1.45 0-2 0h-2c-.55 0-1.45 0-2 0h-2c-.55 0-2.451 0-3.001 0h-2v3.001h15.001 2 14c.55 0 1-.45 1-1v-1.001c0-.549-.45-1-1-1z" fill="#656d78"/><g><path d="m32.501 27.501h-27.997c-.553 0-1-.448-1-1s.447-1 1-1h27.997c.553 0 1 .448 1 1s-.447 1-1 1z" fill="#656d78"/></g></g></svg>