<svg id="rider" enable-background="new 0 0 300 300" height="512" viewBox="0 0 300 300" width="512" xmlns="http://www.w3.org/2000/svg"><g><circle cx="165.898" cy="126.557" fill="#e5efef" r="86"/><g><path d="m161.804 211.091 58.643-20.851-23.457-20.85-15.638 11.728 19.547 7.819-27.366 15.638" fill="#e7d1c4"/><path d="m161.804 215.092c-1.645 0-3.187-1.022-3.769-2.661-.74-2.081.347-4.368 2.429-5.108l9.098-3.235c.15-1.208.848-2.334 1.986-2.984l20.173-11.528-11.854-4.742c-1.343-.537-2.291-1.756-2.48-3.189s.409-2.857 1.565-3.725l15.638-11.729c1.521-1.142 3.636-1.053 5.058.21l23.457 20.851c1.057.939 1.539 2.366 1.269 3.755-.271 1.388-1.254 2.529-2.586 3.003l-58.643 20.851c-.444.157-.897.231-1.341.231zm27.642-35.044 12.938 5.175c1.426.57 2.398 1.905 2.505 3.437.092 1.319-.474 2.583-1.484 3.395l9.33-3.316-15.96-14.187z" fill="#4c241d"/></g><path d="m161.804 235.942c-2.209 0-4-1.791-4-4v-20.851c0-2.209 1.791-4 4-4s4 1.791 4 4v20.851c0 2.209-1.791 4-4 4z" fill="#4c241d"/><g><path d="m211.332 122.476h17.538c10.462 0 18.943 8.481 18.943 18.943v17.36c0 9.936 4.509 24.828 10.02 33.095l6.215 9.322s-35.783-6.92-35.783-27.897v-35.06c0-4.843-2.816-9.244-7.212-11.274z" fill="#e7d1c4"/><path d="m264.049 205.195c-.253 0-.507-.023-.761-.073-1.593-.308-39.022-7.822-39.022-31.823v-35.06c0-3.271-1.919-6.271-4.89-7.643l-9.722-4.489c-1.705-.787-2.633-2.655-2.23-4.49.403-1.834 2.029-3.142 3.907-3.142h17.539c12.65 0 22.942 10.292 22.942 22.943v17.36c0 9.135 4.281 23.274 9.349 30.876l6.215 9.322c.895 1.342.896 3.091.003 4.434-.751 1.129-2.009 1.785-3.33 1.785zm-36.756-78.719c3.118 3.043 4.973 7.272 4.973 11.763v35.06c0 7.039 5.263 13.168 15.641 18.218 2.312 1.125 4.629 2.065 6.774 2.839l-.176-.264c-5.996-8.994-10.692-24.505-10.692-35.313v-17.36c0-8.24-6.703-14.943-14.942-14.943z" fill="#4c241d"/></g><path d="m63.006 51.314c-.202 0-.406-.015-.612-.047-2.161-.332-3.651-2.337-3.355-4.496.051-.482.287-4.293-4.58-6.726-1.976-.988-2.776-3.39-1.789-5.366.989-1.977 3.393-2.777 5.367-1.789 10.308 5.153 8.98 14.63 8.919 15.031-.305 1.977-2.008 3.393-3.95 3.393z" fill="#4c241d"/><g><path d="m81.184 209.541-40.574-40.574 45.646-10.144 5.177 14.476h-42.914" fill="#e7d1c4"/><path d="m81.184 213.541c-1.023 0-2.048-.391-2.828-1.172l-40.574-40.574c-1.032-1.033-1.421-2.545-1.013-3.947s1.548-2.47 2.973-2.787l45.646-10.144c1.968-.438 3.955.659 4.635 2.558l5.177 14.476c.438 1.225.253 2.587-.496 3.651-.75 1.063-1.97 1.696-3.271 1.696h-36.834l29.413 29.414c1.562 1.562 1.562 4.095 0 5.656-.78.783-1.805 1.173-2.828 1.173zm-23.629-44.242h28.199l-2.076-5.805z" fill="#4c241d"/></g><g><path d="m221.558 143.879c-4.261-31.124-32.695-29.463-43.89-27.557-3.553.605-7.143.968-10.747.968h-22.267c-4.281 0-8.534-.69-12.596-2.044l-8.389-2.796c-3.76-1.253-6.389-4.638-6.735-8.587-1.777-20.309-11.721-35.142-20.508-44.5-4.892-5.21-11.135-8.79-17.922-10.607 4.868-12.334-10.527-16.199-10.527-16.199l.292 14.811c-7.723 0-13.984 6.261-13.984 13.984l-17.026 26.739c-2.483 3.9-1.392 9.069 2.454 11.633 2.901 1.934 6.688 1.899 9.553-.086l19.002-17.309c13.984 0 6.992 34.961 6.992 34.961-11.796 35.387 10.595 50.925 17.893 54.923l-32.256 22.113-20.287 40.574 25.359-30.431 30.793-6.843c8.678-1.929 14.853-9.626 14.853-18.516v-5.733c22.315 3.122 37.083 1.846 46.568-.439 2.777 20.731 23.908 38.715 23.908 38.715l-10.258 31.406-20.172 24.383 45.646-45.646-5.072-15.215 26.983-48.578c2.179-4.356 3-9.297 2.34-14.124z" fill="#bf7e68"/><path d="m151.659 271.443c-.962 0-1.927-.346-2.691-1.042-1.579-1.438-1.751-3.862-.39-5.508l19.688-23.797 9.217-28.221c-5.146-4.851-18.502-18.705-22.472-35.183-10.88 1.98-24.093 2.062-39.397.236v1.181c0 10.848-7.396 20.066-17.984 22.42l-29.462 6.548-24.485 29.383c-1.302 1.562-3.563 1.896-5.263.787-1.699-1.111-2.297-3.32-1.389-5.137l20.287-40.574c.304-.606.757-1.127 1.316-1.51l27.303-18.717c-9.948-7.393-24.97-24.468-14.554-56.041 1.84-9.403 2.764-24.427-.9-28.894-.298-.363-.603-.621-.949-.79l-17.574 16.011c-.131.119-.27.229-.415.331-4.241 2.941-9.759 2.989-14.051.127-5.613-3.742-7.232-11.417-3.609-17.109l16.44-25.821c.54-7.969 6.296-14.529 13.872-16.289l-.221-11.197c-.024-1.246.533-2.432 1.508-3.208.976-.777 2.258-1.055 3.465-.75.964.242 9.519 2.562 13.049 9.437.942 1.833 1.775 4.532 1.321 7.976 6.145 2.259 11.627 5.855 16.021 10.535 8.791 9.361 19.67 25.096 21.577 46.889.208 2.379 1.784 4.396 4.015 5.14l8.39 2.796c3.661 1.221 7.474 1.839 11.331 1.839h22.267c3.181 0 6.477-.298 10.075-.912 8.135-1.384 23.503-2.444 35.055 6.031 7.419 5.444 11.951 13.831 13.471 24.927.773 5.654-.169 11.345-2.725 16.457-.026.052-.054.103-.081.154l-26.129 47.039 4.516 13.547c.479 1.438.104 3.021-.967 4.093l-45.646 45.646c-.78.778-1.803 1.17-2.83 1.17zm6.524-102.504c.8 0 1.589.24 2.261.7.935.64 1.554 1.646 1.704 2.769 2.536 18.931 22.339 36.032 22.538 36.203 1.232 1.052 1.711 2.745 1.208 4.286l-7.11 21.768 13.947-13.946-4.291-12.871c-.354-1.063-.246-2.227.298-3.207l26.939-48.498c1.805-3.646 2.468-7.698 1.918-11.722-1.214-8.867-4.672-15.448-10.278-19.561-9.172-6.731-22.096-5.768-28.978-4.594-4.048.689-7.782 1.025-11.419 1.025h-22.267c-4.72 0-9.383-.757-13.86-2.25l-8.39-2.796c-5.259-1.753-8.97-6.477-9.454-12.033-1.708-19.512-11.515-33.669-19.44-42.109-4.257-4.533-9.804-7.812-16.04-9.482-1.102-.295-2.025-1.046-2.538-2.064-.513-1.019-.567-2.208-.148-3.268.857-2.174.891-3.979.1-5.519-.602-1.173-1.64-2.16-2.782-2.956l.167 8.476c.021 1.074-.391 2.112-1.143 2.879-.753.768-1.782 1.2-2.856 1.2-5.506 0-9.984 4.479-9.984 9.984 0 .761-.217 1.506-.626 2.148l-17.026 26.738c-1.304 2.048-.721 4.81 1.299 6.157 1.481.987 3.368 1.011 4.868.078l18.774-17.102c.736-.671 1.697-1.043 2.693-1.043 3.365 0 6.271 1.375 8.403 3.976 3.428 4.181 4.803 11.374 4.205 21.991-.412 7.309-1.642 13.519-1.694 13.779-.032.163-.074.323-.127.48-10.525 31.577 7.697 45.59 16.021 50.149 1.219.668 2.004 1.92 2.073 3.309s-.587 2.713-1.733 3.499l-31.403 21.527-4.413 8.827 3.297-3.957c.566-.68 1.342-1.152 2.205-1.344l30.793-6.844c6.901-1.534 11.721-7.542 11.721-14.611v-5.733c0-1.158.502-2.258 1.375-3.018s2.026-1.104 3.18-.943c18.283 2.559 33.448 2.435 45.077-.366.309-.074.623-.111.936-.111z" fill="#4c241d"/></g><path d="m52.341 255.489c-1.216 0-2.417-.552-3.203-1.6l-11.729-15.639c-1.325-1.768-.967-4.275.8-5.601 1.768-1.324 4.274-.968 5.601.8l11.729 15.639c1.325 1.768.967 4.275-.8 5.601-.72.54-1.563.8-2.398.8z" fill="#4c241d"/><g><path d="m124.637 55.353 20.478 4.096c11.246 2.249 22.021 6.415 31.856 12.316l16.197 9.718c4.139 2.483 7.253 6.365 8.779 10.944 2.997 8.991-.653 18.857-8.779 23.733l-23.564 14.139 7.495 52.462-22.484 7.495 14.989-14.989-18.508-43.186c-2.401-5.602-1.149-12.102 3.161-16.412l7.853-7.853-40.566 3.926 23.792-14.275s-20.699-12.134-13.205-27.123z" fill="#9dc1e4"/><path d="m154.617 194.254c-1.357.001-2.659-.692-3.403-1.897-.976-1.577-.738-3.619.574-4.931l13.073-13.074-17.441-40.696c-3.058-7.133-1.496-15.287 3.978-20.786l-29.467 2.852c-1.868.18-3.599-.954-4.185-2.729-.586-1.776.138-3.72 1.741-4.683l18.543-11.126c-7.148-5.922-14.464-15.807-10.313-26.728l-6.657-13.315c-.683-1.366-.528-3.002.399-4.216s2.461-1.795 3.963-1.495l20.479 4.095c11.729 2.346 22.875 6.655 33.129 12.808l16.197 9.718c4.955 2.973 8.689 7.629 10.517 13.109 3.617 10.853-.707 22.542-10.517 28.428l-21.287 12.771 7.12 49.833c.273 1.913-.861 3.749-2.695 4.36l-22.483 7.494c-.418.142-.845.208-1.265.208zm17.78-16.125-2.973 2.973 3.243-1.081zm-10.286-74.314c1.536 0 2.951.884 3.616 2.293.721 1.527.405 3.342-.789 4.536l-7.854 7.853c-3.171 3.172-4.079 7.885-2.312 12.008l16.23 37.873-5.359-37.513c-.228-1.593.521-3.168 1.902-3.996l23.564-14.138c6.569-3.941 9.465-11.77 7.042-19.038-1.224-3.671-3.725-6.789-7.042-8.78l-16.197-9.718c-9.467-5.68-19.756-9.658-30.582-11.824l-12.459-2.492 3.837 7.674c.562 1.126.562 2.451 0 3.577-5.723 11.446 11.481 21.784 11.655 21.887 1.214.717 1.964 2.022 1.969 3.432s-.73 2.72-1.939 3.445l-8.595 5.157 22.925-2.219c.131-.012.26-.017.388-.017z" fill="#4c241d"/></g><path d="m159.474 96.416c-1.675 0-3.235-1.06-3.794-2.736l-4.859-14.578c-.698-2.096.435-4.361 2.53-5.06 2.091-.695 4.361.434 5.06 2.53l4.859 14.578c.698 2.096-.435 4.361-2.53 5.06-.419.139-.846.206-1.266.206z" fill="#4c241d"/><g><path d="m121.342 69.799-6.673 4.234-10.997-17.334c-2.796-4.407-1.49-10.246 2.917-13.042l3.026-1.92c4.407-2.796 10.246-1.49 13.042 2.917l3.186 5.022c4.313 6.799 2.298 15.808-4.501 20.123z" fill="#ffe8dc"/><path d="m114.669 78.032c-.291 0-.584-.032-.873-.096-1.035-.232-1.937-.865-2.505-1.761l-10.998-17.333c-1.924-3.034-2.553-6.636-1.769-10.141.784-3.506 2.887-6.497 5.921-8.421l3.026-1.92c3.032-1.925 6.631-2.555 10.141-1.769 3.506.784 6.497 2.887 8.422 5.921l3.186 5.021c2.658 4.19 3.526 9.166 2.443 14.01-1.084 4.843-3.988 8.975-8.18 11.634l-6.672 4.233c-.645.409-1.389.622-2.142.622zm-.003-33.768c-1.022 0-2.024.289-2.908.85l-3.027 1.92c-2.537 1.61-3.292 4.984-1.682 7.522l8.854 13.956 3.295-2.09c2.387-1.514 4.04-3.867 4.657-6.625s.123-5.591-1.392-7.978l-3.186-5.022c-.779-1.229-1.991-2.081-3.412-2.398-.398-.091-.799-.135-1.199-.135z" fill="#4c241d"/></g></g></svg>