<?xml version="1.0" encoding="iso-8859-1"?>
<!-- Generator: Adobe Illustrator 19.0.0, SVG Export Plug-In . SVG Version: 6.00 Build 0)  -->
<svg version="1.1" id="Capa_1" xmlns="http://www.w3.org/2000/svg" xmlns:xlink="http://www.w3.org/1999/xlink" x="0px" y="0px"
	 viewBox="0 0 186.026 186.026" style="enable-background:new 0 0 186.026 186.026;" xml:space="preserve">
<g>
	<g>
		<path d="M50.464,147.507l-11.943-11.943c-1.333-1.333-3.494-1.333-4.826,0L3.473,165.786c-4.623,4.623-4.623,12.146,0,16.77
			c2.311,2.311,5.349,3.468,8.385,3.468c3.038,0,6.074-1.157,8.385-3.468l30.222-30.222
			C51.797,151.001,51.797,148.84,50.464,147.507z M15.416,177.727c-1.963,1.959-5.154,1.959-7.117,0
			c-1.961-1.961-1.961-5.156,0-7.117l27.808-27.808l7.117,7.117L15.416,177.727z"/>
	</g>
</g>
<g>
	<g>
		<path d="M61.383,124.645c-10.643-10.643-27.964-10.643-38.607,0c-1.333,1.333-1.333,3.494,0,4.826l33.78,33.78
			c0.667,0.667,1.539,1,2.413,1c0.872,0,1.746-0.334,2.413-1C72.028,152.609,72.028,135.288,61.383,124.645z M58.769,155.81
			L30.218,127.26c7.992-5.685,19.18-4.949,26.339,2.212S64.455,147.82,58.769,155.81z"/>
	</g>
</g>
<g>
	<g>
		<path d="M185.026,1.002c-1.333-1.333-3.494-1.333-4.826,0L58.97,122.232c-1.333,1.333-1.333,3.494,0,4.826
			c0.667,0.667,1.539,1,2.413,1s1.746-0.334,2.413-1l121.23-121.23C186.359,4.496,186.359,2.335,185.026,1.002z"/>
	</g>
</g>
<g>
	<g>
		<path d="M182.553,165.786l-30.222-30.222c-1.333-1.333-3.494-1.333-4.826,0l-11.943,11.943c-1.333,1.333-1.333,3.494,0,4.826
			l30.222,30.222c2.311,2.311,5.349,3.468,8.385,3.468c3.036,0,6.072-1.157,8.385-3.468
			C187.177,177.932,187.177,170.409,182.553,165.786z M177.727,177.727c-1.963,1.959-5.154,1.959-7.117,0l-27.808-27.808
			l7.117-7.117l27.808,27.808C179.688,172.572,179.688,175.766,177.727,177.727z"/>
	</g>
</g>
<g>
	<g>
		<path d="M163.249,124.645c-10.643-10.643-27.964-10.643-38.607,0c-10.644,10.643-10.644,27.964,0,38.607
			c0.667,0.667,1.539,1,2.413,1c0.874,0,1.748-0.334,2.413-1l33.78-33.78C164.582,128.139,164.582,125.978,163.249,124.645z
			 M127.259,155.81c-5.687-7.991-4.948-19.18,2.212-26.339c3.99-3.992,9.233-5.987,14.476-5.987c4.163,0,8.325,1.258,11.863,3.775
			L127.259,155.81z"/>
	</g>
</g>
<g>
	<g>
		<path d="M127.056,122.232L5.826,1.002C4.493-0.331,2.333-0.331,1,1.002c-1.333,1.333-1.333,3.494,0,4.826l121.23,121.23
			c0.667,0.667,1.539,1,2.413,1c0.874,0,1.748-0.334,2.413-1C128.389,125.725,128.389,123.565,127.056,122.232z"/>
	</g>
</g>
<g>
</g>
<g>
</g>
<g>
</g>
<g>
</g>
<g>
</g>
<g>
</g>
<g>
</g>
<g>
</g>
<g>
</g>
<g>
</g>
<g>
</g>
<g>
</g>
<g>
</g>
<g>
</g>
<g>
</g>
</svg>
