<?xml version="1.0" encoding="iso-8859-1"?>
<!-- Generator: Adobe Illustrator 19.0.0, SVG Export Plug-In . SVG Version: 6.00 Build 0)  -->
<svg version="1.1" id="Capa_1" xmlns="http://www.w3.org/2000/svg" xmlns:xlink="http://www.w3.org/1999/xlink" x="0px" y="0px"
	 viewBox="0 0 512 512" style="enable-background:new 0 0 512 512;" xml:space="preserve">
<path style="fill:#FFD33F;" d="M237.517,221.867c10.206-0.068,18.423-8.397,18.355-18.611c-0.06-8.943-6.511-16.555-15.317-18.082
	l-19.541-3.277l-3.089,39.97H237.517z"/>
<path style="fill:#D62121;" d="M300.203,275.772L247.467,256H179.2l38.647,49.698l21.086-7.031l50.227,12.553
	c9.967,2.492,20.053-3.567,22.545-13.534C314.001,288.521,309.052,279.091,300.203,275.772z"/>
<path style="fill:#EA3836;" d="M251.733,396.399c-5.12-25.267-12.8-63.599-12.8-63.599L179.2,256l-42.667,34.133l59.733,59.733
	l12.194,56.132c2.509,11.52,13.79,18.901,25.353,16.58l0.546-0.111c11.964-2.355,19.755-13.969,17.399-25.933
	C251.75,396.484,251.742,396.442,251.733,396.399z"/>
<path style="fill:#91CECE;" d="M153.6,196.267l51.2,25.6h13.124l3.081-39.97L204.8,179.2l-62.618-34.782
	c-8.977-4.992-19.721-5.675-29.252-1.86l-16.87,6.75c-6.477,2.594-10.726,8.866-10.726,15.846v7.774
	c0,4.122,0.896,8.201,2.628,11.947l48.572,105.259L179.2,256L153.6,196.267z"/>
<path style="fill:#83B2B7;" d="M188.39,110.276L170.667,128l-30.848,15.428c0.777,0.358,1.613,0.563,2.364,0.99l46.327,25.728
	l24.823-16.546l9.31-13.961L188.39,110.276z"/>
<path style="fill:#FFD33F;" d="M234.53,121.805c6.298-9.472,3.729-22.246-5.743-28.553c-8.158-5.427-19.012-4.352-25.95,2.577
	l-14.447,14.447l34.253,29.363L234.53,121.805z"/>
<polygon style="fill:#874D1B;" points="315.733,0 247.467,0 247.467,179.2 315.733,247.467 315.733,349.867 375.467,409.6 
	375.467,512 426.667,512 460.8,512 460.8,213.333 460.8,0 "/>
<path style="fill:#383856;" d="M89.6,42.667H128v25.6c-27.204,0.009-53.299,10.769-72.593,29.943
	c-2.731-5.308-4.173-11.179-4.207-17.143C51.2,59.861,68.395,42.667,89.6,42.667z"/>
<path style="fill:#FFD33F;" d="M128,81.067c0.051,21.154-17.05,38.34-38.195,38.4c-14.575,0.034-27.904-8.201-34.398-21.257
	C74.701,79.036,100.796,68.275,128,68.267V81.067z"/>
<path style="fill:#FFAC3E;" d="M119.467,68.685v3.849c0,21.205-17.195,38.4-38.4,38.4c-8.047-0.009-15.881-2.603-22.349-7.39
	c12.314,17.152,36.198,21.069,53.35,8.755C122.121,105.079,128.06,93.44,128,81.067v-12.8
	C125.141,68.267,122.3,68.454,119.467,68.685z"/>
<path style="fill:#202033;" d="M128,42.667c0.375,9.421-2.654,18.654-8.533,26.018c2.833-0.23,5.675-0.418,8.533-0.418V42.667z"/>
<polygon style="fill:#FFD33F;" points="426.667,512 426.667,247.467 460.8,213.333 460.8,0 315.733,0 315.733,93.867 375.467,153.6 
	375.467,512 "/>
<path style="fill:#6B3713;" d="M315.733,0h-68.267v20.48c17.28,2.645,41.677,6.989,68.267,13.653V0z"/>
<path style="fill:#FFAC3E;" d="M460.8,107.315V0H315.733v34.133C369.289,47.539,431.428,70.323,460.8,107.315z"/>
<g>
</g>
<g>
</g>
<g>
</g>
<g>
</g>
<g>
</g>
<g>
</g>
<g>
</g>
<g>
</g>
<g>
</g>
<g>
</g>
<g>
</g>
<g>
</g>
<g>
</g>
<g>
</g>
<g>
</g>
</svg>
