<?xml version="1.0" encoding="iso-8859-1"?>
<!-- Generator: Adobe Illustrator 19.0.0, SVG Export Plug-In . SVG Version: 6.00 Build 0)  -->
<svg version="1.1" id="Capa_1" xmlns="http://www.w3.org/2000/svg" xmlns:xlink="http://www.w3.org/1999/xlink" x="0px" y="0px"
	 viewBox="0 0 512 512" style="enable-background:new 0 0 512 512;" xml:space="preserve">
<path style="fill:#4BC999;" d="M512,256c0,141.385-114.615,256-256,256c-6.154,0-12.257-0.219-18.307-0.648
	c-108.878-7.69-198.959-83.466-227.913-185.02C3.406,303.982,0,280.388,0,256c0-57.334,18.85-110.279,50.688-152.952
	c23.448-31.41,53.938-57.271,89.119-75.222C174.676,10.031,214.162,0,256,0c114.542,0,211.519,75.222,244.203,178.97
	c7.492,23.771,11.609,49.037,11.786,75.233C512,254.798,512,255.404,512,256z"/>
<g>
	<path style="fill:#5BD3A2;" d="M268.163,345.14c0,5.193-2.111,9.895-5.507,13.302c-3.406,3.396-8.108,5.507-13.302,5.507H133.381
		c-10.386,0-18.808,8.422-18.808,18.808c0,5.193,2.1,9.895,5.507,13.302c3.406,3.396,8.108,5.507,13.302,5.507h52.82
		c10.386,0,18.808,8.422,18.808,18.808c0,5.193-2.111,9.895-5.507,13.302c-3.406,3.396-8.108,5.507-13.302,5.507h-15.956
		c-10.386,0-18.808,8.411-18.808,18.798c0,5.193,2.1,9.895,5.507,13.302c3.406,3.406,8.108,5.507,13.302,5.507h57.166
		c10.397,0,18.808,8.422,18.808,18.808c0,5.193-2.1,9.895-5.507,13.302c-0.92,0.919-1.923,1.745-3.02,2.456
		c-108.878-7.69-198.959-83.466-227.913-185.02h239.574C259.741,326.332,268.163,334.754,268.163,345.14z"/>
	<path style="fill:#5BD3A2;" d="M329.289,121.856c0,10.386-8.422,18.808-18.808,18.808H131.814c-5.193,0-9.895-2.1-13.302-5.507
		c-3.406-3.406-5.507-8.108-5.507-13.302c0-10.386-8.422-18.808-18.808-18.808h-43.51c23.448-31.41,53.938-57.271,89.119-75.222
		h141.417c5.193,0,9.895,2.1,13.302,5.507c3.396,3.396,5.507,8.098,5.507,13.302c0,10.386-8.422,18.798-18.808,18.798H220.62
		c-10.386,0-18.808,8.422-18.808,18.808s8.422,18.808,18.808,18.808h89.861c5.193,0,9.895,2.1,13.302,5.507
		C327.178,111.961,329.289,116.663,329.289,121.856z"/>
	<path style="fill:#5BD3A2;" d="M511.99,254.203h-85.535c-5.193,0-9.895-2.1-13.291-5.507c-3.406-3.406-5.507-8.108-5.507-13.302
		c0-10.386-8.422-18.808-18.808-18.808h-29.78c-5.193,0-9.895-2.1-13.302-5.507c-3.396-3.406-5.507-8.108-5.507-13.302
		c0-10.386,8.422-18.808,18.808-18.808h141.134C507.695,202.742,511.812,228.007,511.99,254.203z"/>
</g>
<path style="fill:#5C5E70;" d="M450.443,374.621c0,25.741-17.381,47.438-41.056,53.971c-4.752,1.319-9.767,2.016-14.93,2.016
	c-5.163,0-10.177-0.697-14.929-2.016c-23.676-6.532-41.056-28.229-41.056-53.971c0-25.741,17.381-47.438,41.056-53.971
	c4.752-1.319,9.767-2.016,14.929-2.016c5.163,0,10.177,0.697,14.93,2.016C433.062,327.183,450.443,348.88,450.443,374.621z"/>
<path style="fill:#FFD15C;" d="M409.387,0v428.592c-4.752,1.319-9.767,2.016-14.93,2.016c-0.548,0-1.095-0.013-1.63-0.038
	c-4.591-0.112-9.045-0.796-13.299-1.978V0H409.387z"/>
<path style="fill:#EDBB4C;" d="M392.827,0v430.57c-4.591-0.112-9.045-0.796-13.299-1.978V0H392.827z"/>
<polygon style="fill:#FF525D;" points="379.527,0 379.527,150.429 326.229,126.815 209.703,75.208 "/>
<circle style="fill:#41B787;" cx="149.055" cy="260.023" r="55.411"/>
<circle style="fill:#F9EED7;" cx="177.601" cy="245.123" r="55.411"/>
<path style="fill:#E8DBC4;" d="M204.611,282.381c-25.469,0-46.116-20.646-46.116-46.116c0-21.289,14.43-39.199,34.04-44.507
	c-4.752-1.327-9.756-2.052-14.932-2.052c-30.604,0-55.414,24.81-55.414,55.414s24.81,55.414,55.414,55.414
	c17.708,0,33.464-8.316,43.608-21.245C216.06,281.278,210.465,282.381,204.611,282.381z"/>
<g>
	<path style="fill:#EF4152;" d="M379.527,6.196v144.232l-53.299-23.614C373.928,93.671,379.105,26.811,379.527,6.196z"/>
	<path style="fill:#EF4152;" d="M371.608,5.204V0C371.608,0,371.681,1.891,371.608,5.204z"/>
</g>
<g>
</g>
<g>
</g>
<g>
</g>
<g>
</g>
<g>
</g>
<g>
</g>
<g>
</g>
<g>
</g>
<g>
</g>
<g>
</g>
<g>
</g>
<g>
</g>
<g>
</g>
<g>
</g>
<g>
</g>
</svg>
