<?xml version="1.0" encoding="iso-8859-1"?>
<!-- Generator: Adobe Illustrator 19.0.0, SVG Export Plug-In . SVG Version: 6.00 Build 0)  -->
<svg version="1.1" id="Capa_1" xmlns="http://www.w3.org/2000/svg" xmlns:xlink="http://www.w3.org/1999/xlink" x="0px" y="0px"
	 viewBox="0 0 515.418 515.418" style="enable-background:new 0 0 515.418 515.418;" xml:space="preserve">
<path style="fill:#FFD15C;" d="M339.442,89.6c0,0,18.133,9.6,20.267,10.667c0,0,7.467,5.333,14.933,16c0,0,12.8,16,18.133,26.667
	c5.333,10.667,9.6,21.333,11.733,24.533c2.133,3.2,4.267,11.733,0,19.2c-4.267,7.467-16,18.133-16,18.133l-13.867,2.133
	c0,0-12.8,0-19.2-7.467l14.933-5.333l14.933-11.733c0,0,7.467-3.2,5.333-7.467c-2.133-5.333-6.4-10.667-6.4-10.667
	s-13.867-16-16-17.067c-2.133-1.067-14.933-13.867-17.067-19.2c0,0-6.4-7.467-12.8-7.467c-6.4,0-16-3.2-16-3.2l-9.6-12.8
	L339.442,89.6z"/>
<ellipse style="fill:#E8EAE8;" cx="361.843" cy="174.93" rx="27.734" ry="27.734"/>
<g>
	<polygon style="fill:#2F4251;" points="365.042,185.6 362.909,174.933 371.442,168.533 378.909,174.933 375.709,185.6 	"/>
	<polygon style="fill:#2F4251;" points="343.709,194.133 352.242,200.533 360.776,199.467 357.576,193.067 346.909,189.867 	"/>
	<polygon style="fill:#2F4251;" points="343.709,178.133 351.176,170.667 349.042,161.067 341.576,161.067 338.376,171.733 	"/>
	<polygon style="fill:#2F4251;" points="359.709,154.667 369.309,157.867 376.776,153.6 369.309,148.267 359.709,148.267 	"/>
	<path style="fill:#2F4251;" d="M386.376,162.133h-1.067l1.067,9.6l3.2,6.4l0,0c0-1.067,0-2.133,0-2.133
		C389.576,170.667,388.509,165.333,386.376,162.133z"/>
	<path style="fill:#2F4251;" d="M384.242,192v-2.133l-5.333,3.2l-7.467,7.467h1.067l0,0
		C377.842,199.467,381.042,196.267,384.242,192z"/>
</g>
<path style="fill:#FFD15C;" d="M138.909,146.133l-3.2,1.067c0,0,0-6.4-12.8-21.333c0,0-8.533-24.533-9.6-30.933
	c0-5.333,1.067-6.4,1.067-6.4s3.2-9.6,2.133-18.133c-1.067-7.467-1.067-16-1.067-16s-2.133-3.2-4.267,0
	c-2.133,3.2-2.133,8.533-2.133,8.533s0,5.333,1.067,6.4c0,0-2.133,0-3.2-3.2c-1.067-3.2,0-5.333,0-5.333s1.067-4.267,1.067-5.333
	s3.2-7.467,3.2-7.467s1.067-1.067,0-3.2c0,0-1.067-1.067-2.133,0c0,0,0-2.133-1.067-3.2c-2.133-1.067-2.133,0-2.133,0l-2.133,3.2
	c0,0-2.133-3.2-4.267-1.067c-1.067,2.133-5.333,7.467-6.4,9.6c0,0-4.267,4.267-5.333,12.8v5.333c0,0-1.067,3.2,1.067,7.467
	c0,0,2.133,9.6,4.267,12.8c2.133,3.2,2.133,6.4,2.133,6.4l3.2,14.933c0,0,6.4,30.933,9.6,38.4c3.2,8.533,8.533,21.333,8.533,21.333
	s3.2,9.6,14.933,7.467c11.733-3.2,32-9.6,37.333-21.333c5.333-10.667-4.267-14.933-4.267-14.933L138.909,146.133z"/>
<path style="fill:#F5B54C;" d="M251.976,293.333c0,0,10.667,43.733,23.467,53.333s13.867,22.4,13.867,22.4s6.4,17.067,25.6,23.467
	l11.733,6.4l13.867-34.133c0,0-9.6-2.133-12.8-10.667s-6.4-24.533-6.4-24.533s-2.133-18.133-4.267-26.667
	c-2.133-7.467-10.667-16-10.667-16L251.976,293.333z"/>
<path style="fill:#F26F5A;" d="M312.776,391.467c0,0,11.733-1.067,17.067-12.8c5.333-10.667,5.333-13.867,2.133-17.067
	c0,0,10.667,4.267,13.867,6.4c0,0,14.933,10.667,22.4,24.533c4.267,8.533,11.733,19.2,17.067,25.6c2.133,3.2,4.267,6.4,6.4,9.6
	c2.133,3.2,6.4,8.533,11.733,10.667c0,0,7.467,14.933,3.2,20.267c-4.267,5.333-9.6,10.667-9.6,10.667l-6.4,1.067l-8.533-6.4
	c0-8.533-6.4-18.133-16-28.8c-3.2-3.2-6.4-6.4-10.667-8.533c-8.533-6.4-24.533-19.2-26.667-21.333
	C326.642,400,312.776,391.467,312.776,391.467z"/>
<path style="fill:#425A6B;" d="M411.976,448l6.4-7.467c0,0,6.4,2.133,6.4,11.733l3.2,3.2l-2.133,4.267h-5.333V464l3.2,2.133
	l-3.2,3.2l-5.333,1.067c0,0-7.467,11.733-7.467,14.933c-1.067,4.267,1.067,5.333,1.067,5.333l-1.067,3.2h-2.133l-1.067,3.2
	l2.133,2.133l-2.133,3.2h-3.2l-2.133,2.133l2.133,2.133l-5.333,2.133l-2.133-1.067l-2.133,2.133l1.067,2.133l-3.2,2.133
	l-2.133-1.067c0,0-5.333,3.2-7.467,2.133l7.467-14.933L411.976,448z"/>
<path style="fill:#E8EAE8;" d="M378.909,455.467c0,0,3.2,3.2,3.2,5.333c0,0,7.467-2.133,8.533,2.133c0,0,11.733-4.267,11.733-10.667
	c0-5.333-1.067-10.667-1.067-10.667l1.067-6.4c0,0,7.467,0,8.533,1.067s4.267,2.133,6.4,2.133c0,0,4.267,12.8-1.067,21.333
	c-5.333,8.533-10.667,17.067-12.8,24.533s-7.467,23.467-23.467,28.8c0,0-3.2-1.067,0-8.533c3.2-6.4,3.2-24.533,3.2-24.533
	s-1.067-14.933-6.4-25.6C376.776,454.4,377.842,454.4,378.909,455.467z"/>
<path style="fill:#344A5E;" d="M272.242,292.267c0,0,9.6,13.867,16,12.8c6.4-1.067,6.4-4.267,6.4-4.267l23.467,2.133l-7.467-22.4
	l-14.933,2.133L272.242,292.267z"/>
<path style="fill:#FFD15C;" d="M261.576,244.267l-20.267,4.267c0,0-32,21.333-39.467,26.667c0,0-23.467,11.733-20.267,32
	c2.133,20.267,1.067,26.667,1.067,26.667h40.533c0,0-1.067-13.867-2.133-17.067c0,0,24.533-10.667,33.067-10.667
	c24.533,0,40.533-16,40.533-16L261.576,244.267z"/>
<path style="fill:#425A6B;" d="M241.309,248.533c0,0,16,8.533,25.6,21.333c9.6,12.8,12.8,17.067,12.8,17.067
	s12.8,17.067,8.533,18.133c0,0,3.2,1.067,5.333-2.133c3.2-3.2,17.067-13.867,19.2-16s18.133-16,18.133-33.067
	s-1.067-28.8-4.267-33.067c-4.267-4.267-19.2-8.533-19.2-8.533L264.776,224l-24.533,17.067
	C241.309,240,244.509,241.067,241.309,248.533z"/>
<path style="fill:#344A5E;" d="M292.509,216.533L264.776,224l-24.533,17.067c0,0,3.2,0,0,7.467c3.2-2.133,8.533-5.333,14.933-6.4
	c8.533-1.067,14.933-8.533,14.933-8.533s3.2-6.4,14.933-10.667C290.376,221.867,292.509,218.667,292.509,216.533z"/>
<path style="fill:#F5B54C;" d="M245.576,50.133l-1.067,9.6V108.8h-34.133l-9.6-36.267l28.8-36.267
	C228.509,37.333,243.442,38.4,245.576,50.133z"/>
<path style="fill:#FFD15C;" d="M184.776,28.8l-1.067,6.4c0,0-1.067,3.2,1.067,5.333c1.067,2.133,2.133,6.4,2.133,6.4
	s-4.267,6.4,0,8.533l2.133,1.067c0,0-1.067,5.333,1.067,6.4C191.176,64,191.176,64,191.176,64l-1.067,1.067
	c0,1.067,1.067,4.267,0,8.533c0,0-1.067,8.533,10.667,8.533s32-12.8,36.267-34.133l-3.2-23.467L225.309,9.6h-25.6
	C199.709,9.6,184.776,12.8,184.776,28.8z"/>
<path style="fill:#425A6B;" d="M249.842,36.267c0,16-5.333,24.533-5.333,24.533c-7.467-5.333-4.267-8.533-6.4-19.2
	c-1.067-4.267-3.2-6.4-5.333-5.333c-4.267,0-6.4,4.267-6.4,7.467v6.4L221.042,48c0-1.067,0-3.2,0-5.333
	c0-4.267-4.267-13.867-4.267-13.867s-5.333,1.067-3.2-9.6c2.133-9.6-13.867-4.267-13.867-4.267c-12.8,1.067-13.867,12.8-13.867,12.8
	c-2.133-4.267-1.067-7.467,0-10.667c0,1.067-1.067,2.133-2.133,3.2c0,0,0-4.267,3.2-7.467l1.067-1.067c-1.067,0-3.2,1.067-4.267,3.2
	c0,0,2.133-3.2,5.333-4.267c3.2-3.2,6.4-5.333,8.533-6.4c0,0,0,0-1.067,0c0,0,0,0,1.067,0l0,0l0,0c2.133-1.067,3.2-1.067,3.2-1.067
	c-1.067-1.067-2.133-3.2-2.133-3.2c1.067,1.067,3.2,3.2,4.267,3.2l0,0l0,0c-1.067-1.067-2.133-2.133-2.133-3.2
	c1.067,1.067,3.2,2.133,3.2,2.133l0,0c25.6-6.4,36.267,10.667,36.267,10.667C247.709,14.933,249.842,20.267,249.842,36.267z"/>
<g>
	<path style="fill:#FFD15C;" d="M194.376,5.333h1.067H194.376z"/>
	<path style="fill:#FFD15C;" d="M235.976,32c-3.2-1.067-7.467,4.267-7.467,4.267l0,0l-1.067,3.2c0,0,0,0,0,1.067
		c0,3.2-1.067,7.467-1.067,10.667c4.267,3.2,6.4-1.067,6.4-1.067c4.267,0,5.333-6.4,6.4-8.533
		C241.309,38.4,240.242,33.067,235.976,32z"/>
</g>
<path style="fill:#67C5B8;" d="M318.109,192c3.2,1.067,3.2,7.467,3.2,7.467s0,2.133,1.067,3.2c1.067,1.067,0,4.267,0,4.267V208
	c0,0,1.067,1.067,2.133,2.133c1.067,2.133-2.133,1.067-2.133,1.067s2.133,0,2.133,3.2c0,4.267,2.133,5.333,2.133,5.333
	s-35.2,2.133-41.6,3.2c-7.467,1.067-32,13.867-32,13.867s-10.667,5.333-11.733,2.133c0,0-2.133-6.4,0-7.467
	c2.133-1.067-1.067-4.267-1.067-4.267s0-2.133,1.067-3.2c1.067-1.067-2.133-1.067-2.133-1.067s-2.133-2.133-1.067-4.267
	c0,0,0-2.133-2.133-4.267c-2.133-2.133-1.067-4.267-1.067-4.267s-3.2-4.267-2.133-6.4c0,0-9.6-14.933-11.733-20.267
	s-2.133-8.533-2.133-8.533s-18.133-24.533-24.533-29.867s-7.467-3.2-7.467-3.2L163.442,166.4c0,0,0-4.267-8.533-9.6
	c-7.467-5.333-20.267-10.667-20.267-10.667l16-14.933c0,0,5.333-6.4,7.467-11.733c1.067-5.333,13.867-18.133,24.533-18.133
	c0,0,7.467-7.467,10.667-6.4c0,0,2.133-2.133,3.2-2.133c0,0,2.133-8.533,5.333-7.467c0,0,2.133-7.467,5.333-3.2
	c0,0,1.067,11.733,10.667,16c9.6,5.333,12.8,6.4,17.067-2.133c2.133-9.6,2.133-9.6,2.133-9.6l8.533-25.6c0,0,1.067,2.133,4.267,3.2
	c3.2,0,7.467,0,8.533,2.133c0,0,1.067,1.067,2.133,0s3.2,0,3.2,0s5.333,0,6.4,1.067c0,0,16,2.133,20.267,0
	c3.2-2.133,3.2-1.067,6.4,1.067c3.2,2.133,5.333,2.133,6.4,1.067c1.067-1.067,2.133-1.067,2.133,0s0,2.133,1.067,2.133
	c1.067,0,2.133,2.133,2.133,2.133s1.067,1.067,4.267,1.067c3.2,0,3.2,2.133,3.2,2.133s1.067,1.067,1.067,0
	c1.067-1.067,1.067,1.067,1.067,1.067l22.4,11.733c0,0,1.067,6.4-3.2,16c-5.333,8.533-10.667,12.8-10.667,12.8l-5.333-2.133
	c0,0-4.267-3.2-6.4-2.133c-1.067,1.067-2.133,0-3.2-1.067c-1.067-1.067-3.2-1.067-4.267,1.067c0,0,3.2,23.467,3.2,30.933
	c1.067,8.533,3.2,32,5.333,33.067L318.109,192z"/>
<path style="fill:#FFFFFF;" d="M159.176,151.467c-6.4-4.267-14.933-8.533-19.2-10.667l-5.333,5.333c0,0,12.8,5.333,20.267,10.667
	c7.467,5.333,8.533,9.6,8.533,9.6l5.333-5.333C167.709,158.933,164.509,155.733,159.176,151.467z"/>
<path style="fill:#F26F5A;" d="M339.442,89.6c0,0,1.067,6.4-3.2,16c-4.267,8.533-9.6,12.8-9.6,12.8"/>
<path style="fill:#FFFFFF;" d="M333.042,85.333V89.6c0,0,0,5.333-3.2,12.8c-3.2,7.467-7.467,11.733-7.467,11.733l-2.133,2.133h1.067
	l6.4,2.133c0,0,5.333-4.267,9.6-13.867s3.2-16,3.2-16L333.042,85.333z"/>
<path style="fill:#F26F5A;" d="M181.576,323.2c0,0,0-2.133,1.067-3.2c1.067,0,24.533-3.2,33.067,1.067
	c8.533,3.2,6.4,6.4,7.467,7.467c0,2.133,1.067,5.333,1.067,7.467c0,0,5.333,11.733-6.4,35.2c-11.733,23.467-19.2,55.467-18.133,64
	l-3.2,10.667l-27.733-3.2l-5.333-9.6c0,0,13.867-16,16-38.4c2.133-22.4,4.267-54.4,4.267-57.6
	C181.576,333.867,181.576,323.2,181.576,323.2L181.576,323.2z"/>
<path style="fill:#425A6B;" d="M113.309,470.4c0,0,1.067,2.133,4.267,3.2v3.2l12.8,1.067v-2.133h3.2v3.2h6.4v-3.2
	c0,0,5.333,0,7.467,0l1.067,3.2h5.333l2.133-4.267h2.133l1.067,2.133h2.133l2.133-4.267c0,0,9.6-4.267,13.867-4.267l1.067,2.133
	l3.2-1.067l-1.067-3.2h2.133v4.267l6.4-1.067v-4.267l4.267-1.067l1.067,4.267l3.2-1.067v-4.267l5.333-5.333
	c0,0-1.067-13.867-3.2-17.067c-2.133-4.267-17.067,11.733-17.067,11.733l-32,9.6C150.642,461.867,117.576,466.133,113.309,470.4z"/>
<path style="fill:#E8EAE8;" d="M113.309,470.4c0,0,0-5.333,4.267-6.4s13.867-4.267,18.133-8.533
	c4.267-4.267,18.133-13.867,18.133-13.867s6.4-6.4,6.4-17.067c0,0,2.133-3.2,3.2,0c1.067,3.2,0,4.267,3.2,3.2
	c3.2-1.067,8.533,2.133,7.467,7.467l-1.067,2.133c0,0,16,9.6,18.133,2.133c3.2-7.467,5.333-10.667,5.333-10.667
	s6.4,8.533,3.2,14.933c0,0-13.867,14.933-27.733,21.333c-6.4,3.2-19.2,8.533-33.067,7.467
	C127.176,472.533,113.309,470.4,113.309,470.4z"/>
<g>
	<path style="fill:#FFD15C;" d="M389.576,181.333c0,0-5.333,3.2-7.467,8.533c-2.133,5.333-9.6,10.667-9.6,10.667
		s-5.333,4.267-2.133,8.533c0,0,1.067,2.133,5.333-2.133c4.267-4.267,7.467-7.467,11.733-7.467"/>
	<path style="fill:#FFD15C;" d="M392.776,142.933c-1.067-2.133-3.2-5.333-4.267-8.533h-30.933c4.267,5.333,9.6,10.667,11.733,11.733
		c2.133,1.067,16,17.067,16,17.067s5.333,5.333,6.4,10.667c0,1.067,0,2.133,0,3.2h16c0-4.267-1.067-8.533-2.133-10.667
		C402.376,164.267,398.109,154.667,392.776,142.933z"/>
</g>
<path style="fill:#F3F3F3;" d="M206.109,81.067c0,0,2.133,11.733,9.6,16c8.533,4.267,13.867,6.4,16,1.067s5.333-17.067,7.467-21.333
	c1.067-4.267,4.267-11.733,4.267-11.733s2.133-2.133-1.067-4.267c0,0,5.333,1.067,4.267,5.333c0,0-4.267,9.6-6.4,14.933
	c0,0-3.2,9.6-4.267,12.8c-1.067,3.2-2.133,8.533-6.4,10.667c-2.133,1.067-3.2,1.067-5.333,1.067l0,0
	c-8.533-2.133-16-8.533-18.133-17.067C206.109,83.2,206.109,81.067,206.109,81.067z"/>
<g>
</g>
<g>
</g>
<g>
</g>
<g>
</g>
<g>
</g>
<g>
</g>
<g>
</g>
<g>
</g>
<g>
</g>
<g>
</g>
<g>
</g>
<g>
</g>
<g>
</g>
<g>
</g>
<g>
</g>
</svg>
