<svg height="480pt" viewBox="0 0 480 480" width="480pt" xmlns="http://www.w3.org/2000/svg"><path d="m64 88h32v32h-32zm0 0" fill="#8c6852"/><path d="m384 88h32v32h-32zm0 0" fill="#8c6852"/><path d="m0 320h480v128h-480zm0 0" fill="#8c6239"/><path d="m64 480h-32v-464c0-8.839844 7.160156-16 16-16s16 7.160156 16 16zm0 0" fill="#bb8b6d"/><path d="m448 480h-32v-464c0-8.839844 7.160156-16 16-16s16 7.160156 16 16zm0 0" fill="#bb8b6d"/><path d="m160 352h160v64h-160zm0 0" fill="#e6e6e6"/><g fill="#8c6239"><path d="m96 96h288v16h-288zm0 0"/><path d="m184 376h112v16h-112zm0 0"/></g></svg>