<?xml version="1.0" encoding="iso-8859-1"?>
<!-- Generator: Adobe Illustrator 19.0.0, SVG Export Plug-In . SVG Version: 6.00 Build 0)  -->
<svg version="1.1" id="Capa_1" xmlns="http://www.w3.org/2000/svg" xmlns:xlink="http://www.w3.org/1999/xlink" x="0px" y="0px"
	 viewBox="0 0 512.001 512.001" style="enable-background:new 0 0 512.001 512.001;" xml:space="preserve">
<polygon style="fill:#BEBEBE;" points="374.207,181.196 398.525,115.161 450.852,167.487 "/>
<g>
	<path style="fill:#F0F0FA;" d="M391.228,288.729l55.659-55.209c19.234-19.079,19.298-50.158,0.141-69.314l0,0l-71.283,13.586
		l-32.355,71.614L391.228,288.729z"/>
	<path style="fill:#F0F0FA;" d="M341.148,254.368l60.294-133.453l-11.074-11.074c-10.657-10.657-26.414-14.39-40.719-9.649
		l-42.727,14.16c-7.128,2.363-14.979,0.502-20.29-4.808l-29.358-29.358l-45.336,45.336l48.424,48.424L341.148,254.368z"/>
</g>
<rect x="207.507" y="71.013" transform="matrix(0.7071 0.7071 -0.7071 0.7071 130.2357 -131.0158)" style="fill:#FFB487;" width="31.523" height="41.376"/>
<g>
	<path style="fill:#FFCDAC;" d="M209.7,34.72l10.642,10.642c7.448,7.448,7.448,19.524,0,26.972l-16.447,16.447
		c-7.448,7.448-19.524,7.448-26.972,0l-10.642-10.642c-7.448-7.448-7.448-19.524,0-26.972l16.447-16.447
		C190.176,27.272,202.252,27.272,209.7,34.72z"/>
	<path style="fill:#FFCDAC;" d="M343.961,254.023l8.616-8.615c7.448-7.448,19.524-7.448,26.972,0l14.107,14.107
		c7.448,7.448,7.448,19.524,0,26.972l-8.615,8.615c-7.448,7.448-19.524,7.448-26.972,0l-14.107-14.107
		C336.513,273.546,336.513,261.471,343.961,254.023z"/>
</g>
<polygon style="fill:#D7D7E6;" points="249.03,288.717 249.03,439.702 300.003,439.702 341.148,254.368 269.135,182.721 "/>
<path style="fill:#FFCDAC;" d="M420.913,147.019L420.913,147.019c-17.248-17.248-17.248-45.212,0-62.46l5.678-5.678
	c17.248-17.248,45.212-17.248,62.46,0l0,0c17.248,17.248,17.248,45.212,0,62.46l-5.678,5.678
	C466.125,164.267,438.161,164.267,420.913,147.019z"/>
<g>
	<path style="fill:#BEBEBE;" d="M349.343,482.853h-85.256c-8.315,0-15.057-6.741-15.057-15.057v-28.095h60.162
		c22.175,0,40.151,17.977,40.151,40.151V482.853z"/>
	<path style="fill:#BEBEBE;" d="M16.046,58.396L16.046,58.396c6.745-6.745,17.254-7.946,25.347-2.895l45.697,28.523l-29.753,29.754
		l-37.65-23.5C8.499,83.296,6.721,67.721,16.046,58.396z"/>
</g>
<polygon style="fill:#D7D7E6;" points="206.409,222.111 55.471,115.643 87.822,83.291 269.135,182.721 "/>
<polygon style="fill:#F0F0FA;" points="193.311,230.336 293.604,330.12 341.148,254.368 269.135,182.721 "/>
<path d="M496.15,71.783c-21.135-21.134-55.522-21.134-76.657,0l-5.678,5.678c-7.671,7.671-12.543,17.09-14.645,26.987l-1.702-1.702
	c-13.424-13.424-32.956-18.053-50.975-12.08l-42.727,14.159c-3.546,1.175-7.391,0.265-10.034-2.378L264.374,73.09
	c-3.92-3.92-10.276-3.92-14.197,0l-1.038,1.038l-13.265-13.265c0.558-8.111-2.248-16.412-8.435-22.598l-10.642-10.642
	c-11.351-11.35-29.817-11.35-41.168,0l-16.447,16.447c-11.35,11.35-11.35,29.818,0,41.168l10.643,10.643
	c5.675,5.674,13.13,8.512,20.584,8.512c0.673,0,1.344-0.031,2.015-0.077l13.265,13.265l-0.846,0.846
	c-3.92,3.92-3.92,10.276,0,14.197l7.515,7.515L92.649,74.49c-1.191-0.653-2.47-1.04-3.762-1.177l-42.18-26.325
	c-12.126-7.569-27.652-5.796-37.759,4.311c-6.621,6.621-9.81,15.754-8.747,25.056s6.227,17.481,14.17,22.439l31.468,19.641
	c0.625,2.158,1.956,4.067,3.819,5.39l38.98,27.69c4.519,3.21,10.785,2.149,13.996-2.37c3.21-4.519,2.15-10.786-2.37-13.996
	L70.97,114.34l18.627-18.627l159.73,87.593l-42.671,26.797l-51.908-35.656c-4.57-3.139-10.818-1.979-13.958,2.591
	c-3.139,4.569-1.979,10.819,2.591,13.958l44.752,30.741l-0.16,0.1c-2.591,1.627-4.298,4.347-4.637,7.388s0.728,6.07,2.896,8.228
	l52.761,52.493v149.757v28.095c0,13.837,11.257,25.095,25.095,25.095h85.257c5.544,0,10.038-4.494,10.038-10.038v-3
	c0-26.566-20.751-48.365-46.894-50.069l30.17-135.897l8.312,8.312c5.675,5.674,13.129,8.512,20.584,8.512s14.909-2.838,20.584-8.512
	l8.616-8.616c0.573-0.573,1.113-1.17,1.632-1.782l51.571-51.156c11.211-11.121,17.404-25.942,17.436-41.734
	c0.022-10.76-2.824-21.076-8.167-30.093c9.991-2.072,19.509-6.964,27.247-14.702l5.678-5.678
	C517.284,127.305,517.284,92.916,496.15,71.783z M226.746,80.126l8.094,8.093l-15.06,15.06l-8.095-8.095L226.746,80.126z
	 M173.379,71.041c-3.522-3.522-3.522-9.254,0-12.776l16.447-16.447c1.761-1.762,4.074-2.642,6.388-2.642
	c2.314,0,4.626,0.88,6.388,2.642l10.643,10.643c3.522,3.522,3.522,9.254,0,12.776l-16.447,16.447c-3.522,3.523-9.254,3.523-12.776,0
	L173.379,71.041z M403.751,140.185c2.529,5.026,5.874,9.742,10.064,13.932c1.86,1.86,3.827,3.547,5.875,5.08l-26.84,5.115
	L403.751,140.185z M279.535,116.643c8.043,8.043,19.747,10.818,30.545,7.238l42.727-14.16c10.767-3.569,22.442-0.803,30.463,7.219
	l6.167,6.166l-51.475,113.932l-57.596-57.304l40.686-9.154c5.408-1.217,8.806-6.588,7.591-11.996
	c-1.218-5.409-6.589-8.806-11.996-7.591l-53.094,11.945l-37.417-37.417l31.14-31.14L279.535,116.643z M20.147,74.077
	c-0.363-3.186,0.729-6.315,2.996-8.582c2.028-2.028,4.691-3.076,7.385-3.076c1.906,0,3.827,0.525,5.548,1.599l34.987,21.836
	l-15.182,15.182L25,81.763C22.28,80.065,20.511,77.263,20.147,74.077z M267.713,195.466l60.668,60.361l-16.384,26.104
	l-24.235-24.235c-3.92-3.92-10.276-3.92-14.197,0c-3.92,3.92-3.92,10.276,0,14.197l27.483,27.483l-9.27,14.771l-82.44-82.021
	L267.713,195.466z M286.524,337.236c1.892,1.882,4.442,2.922,7.08,2.922c0.378,0,0.759-0.021,1.139-0.064
	c3.031-0.346,5.741-2.053,7.363-4.637l16.645-26.521l-26.802,120.728h-32.882V309.918L286.524,337.236z M338.475,472.815h-74.388
	c-2.767,0-5.019-2.251-5.019-5.019v-18.057h40.935h9.189C323.374,449.739,335.298,459.593,338.475,472.815z M365.166,288.003
	l-14.107-14.107c-1.671-1.67-2.54-3.838-2.625-6.032l1.009-4.545c0.414-0.791,0.952-1.534,1.616-2.198l0,0l8.614-8.615
	c1.762-1.762,4.075-2.642,6.388-2.642c1.003,0,2.003,0.176,2.96,0.507c0.975,0.881,2.076,1.54,3.245,1.97
	c0.059,0.056,0.123,0.106,0.182,0.165l14.107,14.107c1.706,1.706,2.646,3.975,2.646,6.388c0,1.957-0.627,3.813-1.772,5.358
	l-3.272,3.245c-0.38,0.377-0.713,0.783-1.021,1.203l-5.198,5.198C374.42,291.526,368.688,291.526,365.166,288.003z M439.818,226.394
	l-33.691,33.419c-1.374-2.697-3.172-5.195-5.374-7.397l-10.147-10.147l15.993-15.993c3.92-3.92,3.92-10.276,0-14.197
	c-3.92-3.92-10.276-3.92-14.197,0l-18.731,18.731c-3.418-0.919-6.969-1.215-10.471-0.872l19.547-43.263l60.539-11.538
	c5.221,6.778,8.048,15.036,8.03,23.734C451.295,209.287,447.212,219.06,439.818,226.394z M481.954,134.243l-5.678,5.678
	c-13.306,13.307-34.959,13.307-48.265,0c-13.307-13.306-13.307-34.959,0-48.265l5.678-5.678c6.653-6.653,15.393-9.981,24.133-9.981
	c8.74,0,17.48,3.327,24.133,9.981C495.261,99.285,495.261,120.936,481.954,134.243z"/>
<path d="M129.631,170.039c1.867-1.857,2.941-4.447,2.941-7.097c0-2.64-1.074-5.23-2.941-7.097c-1.867-1.867-4.457-2.941-7.097-2.941
	c-2.64,0-5.23,1.074-7.097,2.941c-1.867,1.867-2.941,4.457-2.941,7.097c0,2.65,1.074,5.24,2.941,7.097
	c1.867,1.877,4.457,2.941,7.097,2.941C125.174,172.98,127.764,171.916,129.631,170.039z"/>
<path d="M252.805,226.893c-2.65,0-5.23,1.074-7.097,2.941c-1.867,1.867-2.941,4.457-2.941,7.097s1.074,5.23,2.941,7.097
	c1.867,1.867,4.447,2.941,7.097,2.941c2.64,0,5.23-1.074,7.097-2.941c1.867-1.867,2.941-4.457,2.941-7.097s-1.074-5.23-2.941-7.097
	C258.035,227.967,255.445,226.893,252.805,226.893z"/>
<path d="M143.227,222.852l-81.97-57.821c-4.53-3.195-10.793-2.113-13.989,2.416c-3.196,4.53-2.114,10.793,2.416,13.989l81.97,57.821
	c1.759,1.241,3.777,1.837,5.777,1.837c3.152,0,6.257-1.482,8.211-4.253C148.839,232.31,147.758,226.047,143.227,222.852z"/>
<g>
</g>
<g>
</g>
<g>
</g>
<g>
</g>
<g>
</g>
<g>
</g>
<g>
</g>
<g>
</g>
<g>
</g>
<g>
</g>
<g>
</g>
<g>
</g>
<g>
</g>
<g>
</g>
<g>
</g>
</svg>
