<?xml version="1.0" encoding="iso-8859-1"?>
<!-- Generator: Adobe Illustrator 19.0.0, SVG Export Plug-In . SVG Version: 6.00 Build 0)  -->
<svg version="1.1" id="Capa_1" xmlns="http://www.w3.org/2000/svg" xmlns:xlink="http://www.w3.org/1999/xlink" x="0px" y="0px"
	 viewBox="0 0 512 512" style="enable-background:new 0 0 512 512;" xml:space="preserve">
<circle style="fill:#F9DCA2;" cx="260.199" cy="82.369" r="68.883"/>
<path style="fill:#E5C691;" d="M228.932,82.369c0-31.519,21.178-58.075,50.075-66.262c-5.981-1.695-12.285-2.621-18.808-2.621
	c-38.042,0-68.883,30.84-68.883,68.882c0,38.043,30.84,68.883,68.883,68.883c6.523,0,12.827-0.927,18.808-2.621
	C250.109,140.444,228.932,113.89,228.932,82.369z"/>
<g>
	<path style="fill:#363D3F;" d="M270.903,105.286c-4.329,0-7.837-3.509-7.837-7.837v-9.727c0-4.328,3.508-7.837,7.837-7.837
		s7.837,3.509,7.837,7.837v9.727C278.739,101.777,275.232,105.286,270.903,105.286z"/>
	<path style="fill:#363D3F;" d="M306.97,99.65c-4.329,0-7.837-3.509-7.837-7.837v-9.726c0-4.328,3.508-7.837,7.837-7.837
		c4.329,0,7.837,3.509,7.837,7.837v9.727C314.807,96.141,311.299,99.65,306.97,99.65z"/>
</g>
<path style="fill:#D67C05;" d="M319.259,46.904c-6.092,15.611-47.793,24.064-75.41,15.611c-4.012-1.233-7.784-1.902-11.337-2.09
	c-20.866-1.118-33.813,14.576-40.27,33.228c-0.616-3.668-0.93-7.44-0.93-11.285c0-38.045,30.845-68.879,68.89-68.879
	c6.468,0,12.727,0.888,18.651,2.56C295.927,20.834,310.315,32.045,319.259,46.904z"/>
<path style="fill:#AD5F02;" d="M279.01,16.111c-21.87,6.186-39.309,22.894-46.498,44.314c-20.866-1.118-33.813,14.576-40.27,33.228
	c-0.616-3.668-0.93-7.44-0.93-11.285c0-38.045,30.845-68.879,68.89-68.879c6.468,0,12.727,0.888,18.651,2.56
	C278.906,16.079,278.958,16.1,279.01,16.111z"/>
<path style="fill:#EFBC4B;" d="M496.327,301.679v160.805l-421.29-85.759c-23.709-19.78-42.652-45.369-54.522-75.044h475.812V301.679
	z"/>
<g>
	<path style="fill:#C49433;" d="M496.327,301.679H82.164c0,0,0,0,0-0.001H20.515c11.87,29.675,30.814,55.264,54.522,75.044h61.649
		c-17.98-15-33.212-33.35-44.704-54.281h404.345v-20.762H496.327z"/>
	
		<rect x="200.132" y="313.662" transform="matrix(-0.9504 -0.3111 0.3111 -0.9504 298.8053 734.3572)" style="fill:#C49433;" width="15.674" height="59.373"/>
</g>
<path style="fill:#54BBEF;" d="M0.003,385.781c5.83,0.627,12.319,0.993,19.707,0.993c61.534,0,61.534-25.119,123.067-25.119
	c12.121,0,21.849,0.972,30.135,2.539l44.815,15.214c11.912,4.138,26.07,7.366,48.117,7.366c61.544,0,61.544-25.119,123.078-25.119
	S450.456,386.773,512,386.773v68.368H0L0.003,385.781z"/>
<path style="fill:#7FDD36;" d="M243.891,288.234l37.718-137.86l-78.971-22.295c-28.661-2.936-56.152,15.036-64.25,43.718
	l-28.014,98.533"/>
<g>
	<path style="fill:#70C129;" d="M140.677,270.331l28.014-98.533c5.881-20.831,21.994-36.002,41.352-41.628l-7.403-2.09
		c-28.661-2.936-56.152,15.036-64.25,43.718l-28.014,98.533l133.516,17.903l1.072-3.919L140.677,270.331z"/>
	<path style="fill:#70C129;" d="M230.527,179.447l-4.681,16.582l-39.257-11.086c2.581-9.153,12.1-14.482,21.253-11.901
		L230.527,179.447z"/>
</g>
<path style="fill:#EFBC4B;" d="M15.672,301.675h480.652c8.656,0,15.672-7.016,15.672-15.672l0,0c0-8.656-7.016-15.672-15.672-15.672
	H15.672C7.016,270.33,0,277.347,0,286.002l0,0C0,294.658,7.016,301.675,15.672,301.675z"/>
<path style="fill:#C49433;" d="M78.367,286.002c0-8.656,7.016-15.672,15.672-15.672H15.672C7.016,270.33,0,277.347,0,286.002
	c0,8.656,7.016,15.673,15.672,15.673h78.367C85.383,301.675,78.367,294.658,78.367,286.002z"/>
<g>
	<path style="fill:#A56247;" d="M188.925,387.113c-2.005,0-4.011-0.765-5.541-2.296c-3.061-3.06-3.061-8.023,0-11.082
		L405.209,151.91c3.062-3.06,8.023-3.06,11.083,0c3.06,3.06,3.06,8.023,0,11.082L194.467,384.818
		C192.936,386.348,190.931,387.113,188.925,387.113z"/>
	<path style="fill:#A56247;" d="M76.282,458.304L182.15,355.02c8.568-8.568,22.465-8.568,31.033,0
		c4.284,4.284,6.426,9.906,6.426,15.517s-2.142,11.233-6.426,15.517l-80.309,77.924"/>
</g>
<path style="fill:#0387D8;" d="M511.997,498.514c-61.544,0-61.544-25.119-123.078-25.119s-61.534,25.119-123.078,25.119
	c-61.534,0-61.534-25.119-123.067-25.119S81.24,498.514,19.707,498.514c-7.387,0-13.876-0.366-19.707-0.993v-77.697
	c5.83-0.627,12.33-0.993,19.717-0.993c61.534,0,61.534,25.109,123.078,25.109c61.534,0,61.534-25.109,123.067-25.109
	s61.534,25.109,123.067,25.109s61.534-25.109,123.067-25.109"/>
<path style="fill:#F9DCA2;" d="M377.423,177.421c15.611,4.409,25.318,20.438,21.19,36.122c-2.121,8.098-7.387,14.493-14.137,18.275
	c-6.593,3.678-14.608,4.869-22.455,2.654l-136.17-38.442l16.05-56.863L377.423,177.421z"/>
<path style="fill:#E5C691;" d="M388.656,215.1c-6.593,3.678-14.608,4.869-22.455,2.654l-135.671-38.3l-4.679,16.577l136.17,38.442
	c7.847,2.215,15.861,1.024,22.455-2.654c6.75-3.783,12.016-10.177,14.137-18.275c0.79-3,1.069-6.012,0.902-8.955
	C396.835,209.035,393.066,212.628,388.656,215.1z"/>
<g>
</g>
<g>
</g>
<g>
</g>
<g>
</g>
<g>
</g>
<g>
</g>
<g>
</g>
<g>
</g>
<g>
</g>
<g>
</g>
<g>
</g>
<g>
</g>
<g>
</g>
<g>
</g>
<g>
</g>
</svg>
