<svg height="512.05132pt" viewBox="0 0 512.05132 512.05132" width="512.05132pt" xmlns="http://www.w3.org/2000/svg"><path d="m486.25 34.1875c-1.238281-1.5-2.5625-3-3.972656-4.414062-1.414063-1.410157-2.914063-2.734376-4.414063-3.972657-30.808593-25.953125-85.453125-27.277343-122.703125-25.070312-44.140625 2.960937-87.339844 14.128906-127.382812 32.929687-15.367188 7.03125-30.335938 14.898438-44.84375 23.566406-25.855469 15.230469-49.824219 33.453126-71.414063 54.292969-21.371093 22.074219-39.957031 46.679688-55.351562 73.265625-8.316407 13.890625-15.832031 28.246094-22.507813 42.992188-18.800781 40.042968-29.96875 83.242187-32.929687 127.382812-2.207031 37.25-.882813 91.894532 25.070312 122.703125 1.238281 1.5 2.5625 3 3.972657 4.414063 1.414062 1.410156 2.914062 2.734375 4.414062 3.972656 30.808594 25.953125 85.453125 27.277344 122.703125 25.070312 44.140625-2.960937 87.339844-14.128906 127.382813-32.929687 14.75-6.675781 29.101562-14.191406 42.992187-22.507813 26.585937-15.394531 51.191406-33.980468 73.269531-55.347656 20.835938-21.589844 39.058594-45.5625 54.289063-71.417968 8.667969-14.503907 16.535156-29.476563 23.566406-44.84375 18.800781-40.042969 29.96875-83.242188 32.929687-127.382813 2.207032-37.25.882813-91.894531-25.070312-122.703125zm0 0" fill="#bdc3c7"/><g fill="#c03a2b"><path d="m182.933594 57.226562c-2.382813 24.894532-18.539063 55.792969-45.285156 82.539063-26.308594 26.308594-56.761719 42.375-81.480469 45.019531 15.394531-26.585937 33.980469-51.191406 55.351562-73.265625 21.589844-20.839843 45.558594-39.0625 71.414063-54.292969zm0 0"/><path d="m454.824219 329.117188c-15.230469 25.855468-33.453125 49.828124-54.289063 71.417968-22.078125 21.367188-46.683594 39.953125-73.269531 55.347656 2.648437-24.71875 18.714844-55.171874 45.019531-81.480468 26.746094-26.746094 57.644532-42.902344 82.539063-45.285156zm0 0"/><path d="m486.25 34.1875c-1.238281-1.5-2.5625-3-3.972656-4.414062-1.414063-1.410157-2.914063-2.734376-4.414063-3.972657-52.347656-40.957031-188.46875 20.921875-309.847656 142.214844-121.378906 121.289063-183.171875 257.5-142.214844 309.847656 1.238281 1.5 2.5625 3 3.972657 4.414063 1.414062 1.410156 2.914062 2.734375 4.414062 3.972656 52.347656 40.960938 188.46875-20.921875 309.847656-142.214844 121.378906-121.289062 183.175782-257.5 142.214844-309.847656zm-161.898438 279.128906c-1.765624 1.855469-3.621093 3.707032-5.472656 5.5625-1.855468 1.851563-3.707031 3.707032-5.5625 5.472656-106.019531 104.164063-218.042968 160.574219-252.117187 126.5-34.074219-34.074218 22.335937-146.097656 126.5-252.117187 1.765625-1.855469 3.621093-3.707031 5.472656-5.5625 1.855469-1.851563 3.707031-3.707031 5.5625-5.472656 106.019531-104.164063 218.042969-160.574219 252.117187-126.5 34.074219 34.074219-22.335937 146.097656-126.5 252.117187zm0 0"/></g><path d="m313.316406 324.351562c-106.019531 104.164063-218.042968 160.574219-252.117187 126.5-34.074219-34.074218 22.335937-146.097656 126.5-252.117187-76.003907 78.566406-110.167969 167.902344-76.179688 201.800781 33.984375 33.894532 123.230469-.179687 201.796875-76.183594zm0 0" fill="#802f34"/><path d="m324.351562 313.316406c76.003907-78.566406 110.167969-167.902344 76.183594-201.796875-33.988281-33.898437-123.234375.175781-201.800781 76.179688 106.019531-104.164063 218.042969-160.574219 252.117187-126.5 34.074219 34.074219-22.335937 146.097656-126.5 252.117187zm0 0" fill="#802f34"/><path d="m400.535156 111.519531c-33.898437-33.988281-123.234375.175781-201.800781 76.179688-1.855469 1.765625-3.707031 3.621093-5.5625 5.472656-1.851563 1.855469-3.707031 3.707031-5.472656 5.5625-76.003907 78.566406-110.167969 167.902344-76.179688 201.800781 33.984375 33.894532 123.230469-.179687 201.796875-76.183594 1.855469-1.765624 3.707032-3.621093 5.5625-5.472656 1.851563-1.855468 3.707032-3.707031 5.472656-5.5625 76.003907-78.566406 110.167969-167.902344 76.183594-201.796875zm-84.835937 135.0625c-19.066407 19.152344-45.8125 23.304688-59.671875 9.445313 13.859375 13.859375 9.707031 40.605468-9.445313 59.671875-5.328125 5.394531-11.574219 9.789062-18.453125 12.976562 7.0625-15.359375 6.269532-31.425781-3.53125-41.222656-9.796875-9.800781-25.863281-10.59375-41.222656-3.53125 3.1875-6.878906 7.582031-13.125 12.976562-18.449219 19.066407-19.15625 45.816407-23.304687 59.675782-9.445312-13.859375-13.859375-9.710938-40.609375 9.445312-59.675782 5.324219-5.394531 11.570313-9.789062 18.449219-12.976562-7.0625 15.359375-6.269531 31.425781 3.53125 41.222656 9.796875 9.800782 25.863281 10.59375 41.222656 3.53125-3.1875 6.878906-7.582031 13.125-12.976562 18.453125zm0 0" fill="#ecf0f1"/><path d="m246.582031 315.699219c-5.328125 5.394531-11.574219 9.789062-18.453125 12.976562 7.0625-15.359375 6.269532-31.425781-3.53125-41.222656-9.796875-9.800781-25.863281-10.59375-41.222656-3.53125 3.1875-6.878906 7.582031-13.125 12.976562-18.449219 19.066407-19.15625 45.816407-23.304687 59.675782-9.445312s9.707031 40.605468-9.445313 59.671875zm0 0" fill="#e64c3c"/><path d="m328.675781 228.128906c-3.1875 6.878906-7.582031 13.125-12.976562 18.453125-19.066407 19.152344-45.8125 23.304688-59.671875 9.445313s-9.710938-40.609375 9.445312-59.675782c5.324219-5.394531 11.570313-9.789062 18.449219-12.976562-7.0625 15.359375-6.269531 31.425781 3.53125 41.222656 9.796875 9.800782 25.863281 10.59375 41.222656 3.53125zm0 0" fill="#e64c3c"/></svg>