<?xml version="1.0" encoding="iso-8859-1"?>
<!-- Generator: Adobe Illustrator 19.0.0, SVG Export Plug-In . SVG Version: 6.00 Build 0)  -->
<svg version="1.1" id="Capa_1" xmlns="http://www.w3.org/2000/svg" xmlns:xlink="http://www.w3.org/1999/xlink" x="0px" y="0px"
	 viewBox="0 0 426.667 426.667" style="enable-background:new 0 0 426.667 426.667;" xml:space="preserve">
<polygon style="fill:#3EA69B;" points="238.621,33.294 326.999,33.294 238.621,93.766 "/>
<path style="fill:#E56353;" d="M244.13,98.396c0,0,109.753,6.569,109.746,113.516c-0.002,29.214-58.317,67.629-109.746,81.75
	C244.13,293.661,288.924,174.785,244.13,98.396z"/>
<path style="fill:#64798A;" d="M240.668,15.794h-4.093c-4.302,0-7.79,3.488-7.79,7.79v284.031h19.672V23.584
	C248.456,19.282,244.969,15.794,240.668,15.794z"/>
<path style="fill:#3A556A;" d="M133.263,397.808h237.41l55.993-90.193h-283.33c0,0-107.501,7.324-143.337-54.268l96.308,144.462
	H133.263z"/>
<polygon style="fill:#2F4859;" points="227.332,397.808 370.674,397.808 426.667,307.615 227.332,307.615 "/>
<polygon style="fill:#E56353;" points="228.785,87.491 21.184,277.311 124.985,270.144 "/>
<path style="fill:#27A2DB;" d="M222.574,410.873c-15.207,0.003-24.762-6.114-29.577-10.374
	c-37.196,17.257-62.128,5.279-70.852-0.425c-24.528,10.328-46.939,5.43-47.927,5.202l2.777-12.298
	c0.212,0.052,21.425,4.565,43.186-5.843l3.756-1.795l3.128,2.752c0.93,0.788,23.947,19.822,64.415-0.88l4.824-2.469l3.165,4.396
	c0.616,0.813,16.768,21.155,59.12-1.853l2.801-1.524l2.884,1.354c0.302,0.139,31.719,14.324,66.351-0.111l3.026-1.262l2.767,1.752
	c0.111,0.065,15.62,9.257,45.098,4.928l1.835,12.474c-26.936,3.956-44.064-2.084-50.639-5.15
	c-32.637,12.458-61.561,3.571-70.784,0.037C245.985,408.022,232.961,410.873,222.574,410.873z"/>
<g>
	<rect x="125.986" y="325.589" style="fill:#D5D6DB;" width="52.075" height="20.403"/>
	<rect x="212.215" y="325.589" style="fill:#D5D6DB;" width="52.075" height="20.403"/>
	<rect x="298.709" y="325.589" style="fill:#D5D6DB;" width="52.075" height="20.403"/>
</g>
<g>
</g>
<g>
</g>
<g>
</g>
<g>
</g>
<g>
</g>
<g>
</g>
<g>
</g>
<g>
</g>
<g>
</g>
<g>
</g>
<g>
</g>
<g>
</g>
<g>
</g>
<g>
</g>
<g>
</g>
</svg>
