<?xml version="1.0" encoding="iso-8859-1"?>
<!-- Generator: Adobe Illustrator 19.0.0, SVG Export Plug-In . SVG Version: 6.00 Build 0)  -->
<svg version="1.1" id="Layer_1" xmlns="http://www.w3.org/2000/svg" xmlns:xlink="http://www.w3.org/1999/xlink" x="0px" y="0px"
	 viewBox="0 0 976.274 976.274" style="enable-background:new 0 0 976.274 976.274;" xml:space="preserve">
<g>
	<g>
		<path d="M488.137,0C218.966,0,0,218.966,0,488.137s218.966,488.137,488.137,488.137s488.137-218.966,488.137-488.137
			S757.309,0,488.137,0z M508.865,42.757c229.33,10.69,413.96,195.32,424.649,424.324H792.613
			c-10.364-151.592-131.832-273.383-283.747-283.747V42.757z M608.633,509.191h141.874v0
			C740.143,637.46,637.46,740.465,509.191,750.507V608.633C559.721,599.888,599.887,559.721,608.633,509.191z M509.191,367.638
			V225.764c128.27,10.364,231.274,113.047,241.316,241.316H608.633C599.888,416.55,559.721,376.384,509.191,367.638z
			 M367.641,467.08H225.768c10.364-128.27,113.046-231.274,241.316-241.316v141.874C416.55,376.388,376.388,416.55,367.641,467.08z
			 M467.08,608.633v141.874c-128.27-10.364-231.274-113.046-241.316-241.316h141.874C376.388,559.721,416.55,599.887,467.08,608.633
			z M467.08,42.757v140.902C315.489,194.023,193.697,315.49,183.333,467.406H42.431C53.446,238.076,238.076,53.446,467.08,42.757z
			 M467.406,933.84c-229.33-11.015-413.96-195.645-424.649-424.649h140.902c10.364,151.592,131.832,273.383,283.747,283.747V933.84z
			 M488.136,568.466c-44.374,0-80.33-35.953-80.33-80.329s35.955-80.329,80.329-80.329c44.376,0,80.329,35.955,80.329,80.329
			C568.463,532.513,532.511,568.466,488.136,568.466z M509.191,933.515V792.613c151.592-10.364,273.383-131.832,283.747-283.747
			H933.84C922.825,738.195,738.195,922.825,509.191,933.515z"/>
	</g>
</g>
<g>
</g>
<g>
</g>
<g>
</g>
<g>
</g>
<g>
</g>
<g>
</g>
<g>
</g>
<g>
</g>
<g>
</g>
<g>
</g>
<g>
</g>
<g>
</g>
<g>
</g>
<g>
</g>
<g>
</g>
</svg>
