<?xml version="1.0" encoding="iso-8859-1"?>
<!-- Generator: Adobe Illustrator 19.0.0, SVG Export Plug-In . SVG Version: 6.00 Build 0)  -->
<svg version="1.1" id="Capa_1" xmlns="http://www.w3.org/2000/svg" xmlns:xlink="http://www.w3.org/1999/xlink" x="0px" y="0px"
	 viewBox="0 0 512.002 512.002" style="enable-background:new 0 0 512.002 512.002;" xml:space="preserve">
<path style="fill:#5F6E9B;" d="M442.733,92.361c-5.759-10.214-18.778-13.538-28.697-7.477l-61.71,37.721H190.987l-46.096-26.11
	l22.519-69.545c3.505-10.823-2.428-22.438-13.251-25.942c-10.824-3.508-22.438,2.428-25.942,13.251l-27.648,85.383
	c-2.991,9.239,0.876,19.313,9.283,24.176l80.381,46.5v105.823l-58.389,49.423c-8.059,6.821-10.895,18.008-7.061,27.845
	l33.688,86.422c4.959,12.721,19.29,19.011,32.008,14.054c12.72-4.958,19.011-19.289,14.054-32.008l-27.279-69.98l39.644-33.557
	l111.275,1.675l-36.842,81.275c-5.637,12.434-0.126,27.083,12.307,32.719c12.481,5.66,27.106,0.075,32.719-12.308l51.772-114.206
	c7.167-15.807-3.804-33.947-21.175-34.888l-67.613-3.663v-105.14h58.783c3.791,0,7.509-1.046,10.744-3.023l66.236-40.489
	C444.635,114.466,448.22,102.092,442.733,92.361z"/>
<path style="fill:#FFB69E;" d="M442.733,92.361c-5.759-10.214-18.778-13.538-28.697-7.477l-61.71,37.721H190.987l-46.096-26.11
	l22.519-69.545c3.505-10.823-2.428-22.438-13.251-25.942c-10.824-3.508-22.438,2.428-25.942,13.251l-27.648,85.383
	c-2.991,9.239,0.876,19.313,9.283,24.176l80.381,46.5v105.823l0,0c7.34,15.748,23.141,25.816,40.516,25.816h25.275
	c18.785,0,35.565-11.744,41.998-29.393l1.32-3.621V163.804h58.783c3.791,0,7.509-1.046,10.744-3.023l66.236-40.489
	C444.635,114.466,448.22,102.092,442.733,92.361z"/>
<path style="fill:#64AFFF;" d="M264.842,122.606c0.388,11.205-10.023,20.713-20.893,20.713c-11.649,0-20.284-9.473-20.873-20.713
	h-32.089l-34.793-19.707l-10.682,41.55l44.721,25.87v105.823c7.34,15.748,23.141,25.816,40.516,25.816h25.275
	c18.785,0,35.566-11.744,41.999-29.393l1.32-3.621V163.804h45.555v-41.197H264.842z"/>
<circle style="fill:#FFB69E;" cx="244.785" cy="64.299" r="42.692"/>
<circle style="fill:#3C5A73;" cx="178.934" cy="477.878" r="34.124"/>
<circle style="fill:#FFFFFF;" cx="178.934" cy="477.878" r="12.532"/>
<circle style="fill:#3C5A73;" cx="347.969" cy="449.63" r="34.124"/>
<circle style="fill:#FFFFFF;" cx="347.969" cy="449.63" r="12.862"/>
<path style="fill:#6C9BAA;" d="M146.744,464.846c-25.806,0-51.059-7.667-72.803-22.361c-7.541-5.096-9.524-15.339-4.428-22.88
	c5.096-7.541,15.34-9.523,22.88-4.428c20.773,14.037,45.834,19.492,70.563,15.36l184.731-30.864
	c24.729-4.131,46.654-17.437,61.738-37.464c5.476-7.27,15.808-8.726,23.078-3.25c7.27,5.475,8.724,15.808,3.249,23.077
	c-20.189,26.806-49.534,44.615-82.634,50.144l-184.731,30.864C161.173,464.25,153.937,464.846,146.744,464.846z"/>
<g>
</g>
<g>
</g>
<g>
</g>
<g>
</g>
<g>
</g>
<g>
</g>
<g>
</g>
<g>
</g>
<g>
</g>
<g>
</g>
<g>
</g>
<g>
</g>
<g>
</g>
<g>
</g>
<g>
</g>
</svg>
