<svg enable-background="new 0 0 100 100" height="512" viewBox="0 0 100 100" width="512" xmlns="http://www.w3.org/2000/svg"><path d="m89.350647 50c0 7.343277-2.0137329 14.2180786-5.5119781 20.1012039 0 0 0 .0060883-.0060883.0060883-1.8129959 3.0541306-4.033638 5.828392-6.5766678 8.2801819-2.8533859 2.7377625-6.1143494 5.0496368-9.6916885 6.8322144-5.2869492 2.6465224-11.2552186 4.1309966-17.5642243 4.1309966-21.7316837 0-39.350647-17.6190033-39.350647-39.3506851 0-2.585659.2493868-5.1104927.7239494-7.5562363 1.1985111-6.1690483 3.8389778-11.8149281 7.5500698-16.5907764l.0060902-.0060902c5.9744339-7.671793 14.7230892-13.0743027 24.7432613-14.686552 2.0624524-.3406973 4.1735516-.5110274 6.3272763-.5110274 5.8223381 0 11.3464928 1.2654257 16.31707 3.528657 5.7005386 2.6038914 10.6711197 6.528017 14.5222015 11.3769054 4.8002777 6.0413132 7.8543396 13.5305958 8.4140854 21.707365.0669098.9064942.0972901 1.8190804.0972901 2.7377549z" fill="#ededed"/><g fill="#b1b2b6"><path d="m45.676506 36.3355026-18.6487007-3.1631164.2055683-1.1989575 18.4900685 3.1357861 14.1198272-1.3136215-4.9713935-21.9317599 1.1864814-.268547 5.2779618 23.2828111z"/><path d="m75.3301849 79.5145798h-1.216774v-10.6343537l-7.1001663-21.2490997-12.8284797 2.6224937-16.4318886 18.7145348-.9143677-.8032608 16.701622-19.0211105 14.2852936-2.9207497 7.5047607 22.4587517z"/><path d="m72.157692 36.612232h11.911454v1.216455h-11.911454z" transform="matrix(.989 -.151 .151 .989 -4.723 12.215)"/><path d="m29.2517509 70.9513702-6.3257141-6.764183-5.4407577-17.2422829-.2192326-7.4622879 1.2161865-.0356483.216858 7.3773269 5.3035106 16.7331086 6.13797 6.5633697z"/><path d="m43.0474014 82.9772034-.0891227-1.2132187 20.4548263-1.1722412 11.8380623-2.0550995.2079468 1.1989517-11.8974762 2.062233z"/><path d="m24.7045689 26.1461525-.9987355-.6951332 2.8868828-4.1500054 13.579464-8.8299779 9.5744247-.3927212.0499039 1.2155924-9.2411156.3796501-13.0999985 8.5174637z"/></g><g fill="#344d5b"><path d="m66.31707 14.1779747-.2008133.3832884-9.6673355.742219s-.0608215-.0060902-.1824722-.0243225c-1.7278824-.2372808-15.3801231-2.1172237-15.9034042-2.2084599-.5596733-.0912733 3.0663109-1.6730738 3.0663109-1.6730738l.2433701-.2372808c2.0624503-.3406973 4.1735495-.5110274 6.3272742-.5110274 5.8223381 0 11.3464928 1.2654257 16.31707 3.528657z"/><path d="m28.1952381 32.7277908-10.0991917 14.19981-6.7227421-4.4838371c1.1985111-6.1690483 3.8389778-11.8149281 7.5500698-16.5907764l.0060902-.0060902c3.4435101-1.7764893 7.8665199-3.9849491 8.0855312-4.0944557l.0060902-.0060902z"/><path d="m89.2533569 47.2622452-5.9378967-10.9388847-2.4761887-10.7684803c4.8002778 6.0413131 7.8543396 13.5305957 8.4140854 21.707365z"/><path d="m84.3984146 66.1831665-.5597458 3.9180374s0 .0060883-.0060883.0060883c-1.8129959 3.0541306-4.033638 5.828392-6.5766678 8.2801819-2.8533859 2.7377625-6.1143494 5.0496368-9.6916885 6.8322144l-4.1066322-4.0214539 11.2613106-12.4172287z"/><path d="m21.1540508 75.1343079 2.3101959-11.2622109 15.7382184 3.7540703 6.497425 14.8718948-11.262207 3.4652939z"/><path d="m58.7654839 26.2893734-14.3730698 9.2091274 5.8009605 18.3787995h19.5482865l4.0224533-16.0978852z"/></g></svg>