<svg id="Layer_1" enable-background="new 0 0 256 256" height="512" viewBox="0 0 256 256" width="512" xmlns="http://www.w3.org/2000/svg"><g><g><g><path d="m248 134.552c-20.002 0-20.002 12-40.004 12s-20.002-12-40.004-12c-19.999 0-19.999 12-39.998 12-20 0-20-12-40-12-19.999 0-19.999 12-39.998 12s-19.999-12-39.997-12v74h240v-74z" fill="#a4c9ff"/></g></g><g><g><path d="m248 210.552h-240c-1.104 0-2-.896-2-2v-74c0-1.104.896-2 2-2 10.553 0 15.878 3.195 21.027 6.285 4.898 2.939 9.524 5.715 18.97 5.715s14.072-2.776 18.97-5.715c5.149-3.09 10.474-6.285 21.027-6.285 10.554 0 15.879 3.195 21.029 6.285 4.898 2.939 9.525 5.715 18.971 5.715 9.445 0 14.072-2.776 18.97-5.715 5.15-3.09 10.475-6.285 21.029-6.285 10.555 0 15.88 3.195 21.03 6.285 4.899 2.939 9.526 5.715 18.973 5.715s14.074-2.776 18.973-5.715c5.15-3.09 10.476-6.285 21.031-6.285 1.104 0 2 .896 2 2v74c0 1.105-.896 2-2 2zm-238-4h236v-69.957c-8.126.364-12.433 2.948-16.973 5.671-5.15 3.09-10.476 6.285-21.031 6.285s-15.88-3.195-21.031-6.285c-4.899-2.939-9.526-5.715-18.973-5.715-9.446 0-14.072 2.776-18.971 5.715-5.149 3.09-10.475 6.285-21.028 6.285-10.554 0-15.879-3.195-21.028-6.285-4.898-2.939-9.525-5.715-18.971-5.715-9.445 0-14.071 2.776-18.969 5.715-5.15 3.09-10.475 6.285-21.028 6.285s-15.878-3.195-21.027-6.285c-4.54-2.724-8.845-5.307-16.97-5.671v69.957z" fill="#3762cc"/></g></g><g><g><path d="m135.074 91.301-1.276-.918h-37.869v.918c-.042-.001-.082-.006-.124-.006-3.298 0-5.971 2.649-5.971 5.918 0 3.268 2.673 5.918 5.971 5.918.217 0 .43-.013.641-.035 2.02 8.581 9.782 14.975 19.056 14.975s17.036-6.394 19.056-14.975c.211.022.424.035.641.035 3.298 0 5.971-2.649 5.971-5.918-.001-3.367-2.819-5.999-6.096-5.912z" fill="#f9cfcf"/></g></g><g><g><path d="m92.066 90.383.275 2.016c.978-.692 2.171-1.104 3.464-1.104.042 0 .082.005.124.006v-.918z" fill="#3762cc"/></g></g><g><g><path d="m135.074 91.301c1.086-.029 2.118.246 3.018.742l.181-1.661h-4.475z" fill="#3762cc"/></g></g><g><g><path d="m115.505 109.751c-1.539 0-2.981-.563-3.957-1.546-.774-.781-1.201-1.774-1.201-2.799 0-.829.671-1.5 1.5-1.5s1.5.671 1.5 1.5c0 .292.18.534.331.686.815.822 2.817.831 3.641 0 .151-.152.331-.394.331-.686 0-.829.671-1.5 1.5-1.5s1.5.671 1.5 1.5c0 1.025-.427 2.019-1.201 2.799-.975.983-2.413 1.546-3.944 1.546z" fill="#3762cc"/></g></g><g><g><path d="m115.714 61.091c-14.882 0-24.013 11.043-24.013 22.922v6.371h46.935v-6.371c0-12.66-10.263-22.922-22.922-22.922z" fill="#4671c6"/></g></g><g><g><path d="m138.636 92.383h-46.935c-1.104 0-2-.896-2-2v-6.371c0-12.082 9.117-24.922 26.013-24.922 13.742 0 24.922 11.18 24.922 24.922v6.371c0 1.104-.896 2-2 2zm-44.935-4h42.935v-4.371c0-11.536-9.386-20.922-20.922-20.922-14.298 0-22.013 10.779-22.013 20.922z" fill="#3762cc"/></g></g><g><g><path d="m115.501 120.07c-9.54 0-17.789-6.088-20.583-14.989-3.979-.439-7.084-3.801-7.084-7.869 0-3.803 2.713-6.988 6.317-7.746.333-.644 1.004-1.083 1.778-1.083h37.869c.419 0 .828.132 1.168.377l.773.557c1.875.124 3.68.921 5.04 2.246 1.541 1.5 2.389 3.507 2.389 5.65 0 4.068-3.104 7.429-7.084 7.869-2.793 8.899-11.043 14.988-20.583 14.988zm-19.054-18.975c.918 0 1.731.63 1.945 1.542 1.861 7.909 8.896 13.433 17.108 13.433s15.248-5.524 17.109-13.433c.231-.981 1.152-1.638 2.159-1.531.141.015.284.024.429.024 2.19 0 3.971-1.757 3.971-3.917 0-1.055-.419-2.044-1.18-2.785-.765-.744-1.815-1.163-2.862-1.127-.449.017-.866-.121-1.222-.376l-.752-.542h-35.541c-.081.126-.176.243-.285.349-.385.376-.894.591-1.444.569-.032-.001-.12-.005-.152-.008-2.115.002-3.896 1.759-3.896 3.919s1.781 3.917 3.971 3.917c.145 0 .288-.009.429-.024.072-.007.143-.01.213-.01z" fill="#3762cc"/></g></g><g><g><path d="m108.494 101.198h-6.748c-3.121 0-5.652-2.53-5.652-5.652v-1.248c0-3.121 2.53-5.652 5.652-5.652h6.748c3.121 0 5.652 2.53 5.652 5.652v1.248c0 3.122-2.53 5.652-5.652 5.652z" fill="#e0ebfc"/></g></g><g><g><path d="m102.568 98.407c-1.68 0-3.042-1.362-3.042-3.042v-.884c0-1.68 1.362-3.042 3.042-3.042h5.104c1.68 0 3.042 1.362 3.042 3.042v.884c0 1.68-1.362 3.042-3.042 3.042z" fill="#4671c6"/></g></g><g><g><path d="m129.251 101.198h-6.748c-3.121 0-5.652-2.53-5.652-5.652v-1.248c0-3.121 2.53-5.652 5.652-5.652h6.748c3.121 0 5.652 2.53 5.652 5.652v1.248c0 3.122-2.531 5.652-5.652 5.652z" fill="#e0ebfc"/></g></g><g><g><path d="m123.325 98.407c-1.68 0-3.042-1.362-3.042-3.042v-.884c0-1.68 1.362-3.042 3.042-3.042h5.104c1.68 0 3.042 1.362 3.042 3.042v.884c0 1.68-1.362 3.042-3.042 3.042z" fill="#4671c6"/></g></g><g><g><path d="m129.251 103.198h-6.749c-4.219 0-7.651-3.433-7.651-7.651v-1.248c0-4.219 3.433-7.651 7.651-7.651h6.749c4.219 0 7.651 3.433 7.651 7.651v1.248c0 4.219-3.432 7.651-7.651 7.651zm-6.749-12.551c-2.013 0-3.651 1.638-3.651 3.651v1.248c0 2.013 1.638 3.651 3.651 3.651h6.749c2.013 0 3.651-1.638 3.651-3.651v-1.248c0-2.013-1.638-3.651-3.651-3.651z" fill="#3762cc"/></g></g><g><g><path d="m108.494 103.198h-6.748c-4.219 0-7.652-3.433-7.652-7.651v-1.248c0-4.219 3.433-7.651 7.652-7.651h6.748c4.219 0 7.652 3.433 7.652 7.651v1.248c0 4.219-3.433 7.651-7.652 7.651zm-6.748-12.551c-2.014 0-3.652 1.638-3.652 3.651v1.248c0 2.013 1.638 3.651 3.652 3.651h6.748c2.014 0 3.652-1.638 3.652-3.651v-1.248c0-2.013-1.638-3.651-3.652-3.651z" fill="#3762cc"/></g></g><g><g><path d="m117.47 98.575h-3.938c-.427 0-.842-.136-1.186-.389l-1.003-.738c-.512-.377-.814-.975-.814-1.611v-1.522c0-1.104.896-2 2-2h5.944c1.104 0 2 .896 2 2v1.522c0 .636-.302 1.234-.814 1.611l-1.003.738c-.344.253-.759.389-1.186.389z" fill="#3762cc"/></g></g><g><g><path d="m164.097 95.891-24.537-41.302-5.952-8.927c-1.374-2.061-3.647-3.345-6.122-3.459l-18.749-.856c-.302-.014-.555.227-.555.53 0 1.384.813 2.639 2.076 3.205l17.283 7.738h-6.814c-1.245 0-2.254 1.009-2.254 2.254 0 .237.157.445.384.51l11.326 3.251 15.947 37.075c.284.659.201 1.419-.219 2.001l-16.131 22.401c-1.26-.25-1.81-.2-5.096-.199h-.119c0-2.475 0-3.279 0-4.264-2.712 1.41-5.79 2.22-9.065 2.22s-6.354-.811-9.065-2.22v4.264h-.028c-29.356 0-33.635 0-63.735 0l-15.462-2.514c-.422-.069-.851-.073-1.274-.014l-17.48 2.464c-.261.037-.456.261-.456.525 0 1.989 1.479 3.668 3.453 3.918l17.422 2.207-2.747.702c-1.09.279-1.852 1.26-1.852 2.385 0 .293.238.531.531.531h17.867l49.029 6.007 1.27 7.159h45.049l25.978-40.925c1.284-2.027 1.322-4.604.097-6.667z" fill="#f9cfcf"/></g></g><g><g><path d="m138.02 143.482v-.195c-4.695-.922-8.239-5.056-8.239-10.021v-11.469c0-.522 0-1.011 0-1.484-1.473-.292-3.324-.199-5.203-.199h-.012c-.208 4.833-4.181 8.69-9.065 8.69s-8.857-3.857-9.065-8.69h-.028c-1.103 0-2.159 0-3.194 0-.681 0-1.339 0-1.993 0v13.152c0 4.969-3.549 9.106-8.25 10.023v.193l2.098 24.703v12.128h40.858v-12.128l2.098-24.703z" fill="#4671c6"/></g></g><g><g><path d="m135.928 182.312h-40.859c-1.104 0-2-.896-2-2v-12.042l-2.083-24.528-.996-5.613-47.44-5.812h-17.744c-1.396 0-2.531-1.135-2.531-2.531 0-.657.144-1.287.404-1.856l-11.478-1.454c-2.965-.375-5.201-2.912-5.201-5.902 0-1.252.936-2.33 2.176-2.505l17.481-2.464c.625-.088 1.255-.081 1.874.02l15.303 2.489h61.602v-2.264c0-.699.365-1.347.962-1.709.597-.363 1.34-.388 1.96-.065 2.546 1.323 5.286 1.995 8.143 1.995s5.597-.671 8.143-1.995c.62-.323 1.363-.298 1.96.065s.962 1.011.962 1.709v2.257c.969-.003 1.649.001 2.298.056l15.425-21.42-15.568-36.247-10.415-2.989c-1.079-.311-1.833-1.311-1.833-2.433 0-1.731 1.039-3.224 2.526-3.887l-9.559-4.28c-1.98-.886-3.259-2.86-3.259-5.03 0-.688.285-1.354.782-1.83.497-.475 1.177-.73 1.863-.699l18.75.856c3.098.141 5.975 1.767 7.695 4.347l5.952 8.927c.019.029.038.058.055.088l24.537 41.302c1.62 2.726 1.57 6.083-.129 8.759l-25.709 40.501-2.05 24.14v12.042c.001 1.107-.895 2.002-1.999 2.002zm-38.859-4h36.858v-10.127c0-.057.002-.113.007-.169l2.087-24.577c.007-.358.11-.715.31-1.028l25.978-40.925c.887-1.397.913-3.148.068-4.572l-24.511-41.257-5.923-8.884c-1.017-1.526-2.718-2.486-4.549-2.57l-15.824-.723 16.787 7.517c.861.385 1.335 1.32 1.139 2.243-.197.922-1.013 1.582-1.956 1.582h-4.096l7.291 2.092c.577.166 1.048.581 1.286 1.132l15.947 37.075c.558 1.296.392 2.814-.433 3.96l-16.131 22.401c-.458.635-1.244.942-2.013.793-.888-.177-1.436-.175-3.251-.165l-1.562.004c-1.104 0-2.012-.896-2.012-2v-1.228c-4.527 1.575-9.602 1.575-14.131 0v1.228c0 .537-.215 1.05-.598 1.427-.383.376-.885.611-1.437.573h-63.728c-.107 0-.215-.009-.321-.026l-15.462-2.515c-.222-.036-.45-.038-.676-.007l-15.786 2.225c.307.384.757.651 1.276.717l17.422 2.207c.953.121 1.685.902 1.745 1.86.043.7-.28 1.35-.82 1.742h12.623c.081 0 .163.005.243.015l49.029 6.006c.872.107 1.573.771 1.726 1.636l1.27 7.159c.011.06.019.12.023.18l2.098 24.703c.005.057.007.113.007.169z" fill="#3762cc"/></g></g><g><g><path d="m248 166.552c-20.002 0-20.002 12-40.004 12s-20.002-12-40.004-12c-19.999 0-19.999 12-39.998 12-20 0-20-12-40-12-19.999 0-19.999 12-39.998 12s-19.999-12-39.997-12v74h240v-74z" fill="#e0ebfc"/></g></g><g><g><path d="m248 242.552h-240c-1.104 0-2-.896-2-2v-74c0-1.104.896-2 2-2 10.553 0 15.878 3.195 21.027 6.285 4.898 2.939 9.524 5.715 18.97 5.715s14.072-2.776 18.97-5.715c5.149-3.09 10.474-6.285 21.027-6.285 10.554 0 15.879 3.195 21.029 6.285 4.898 2.939 9.525 5.715 18.971 5.715 9.445 0 14.072-2.776 18.97-5.715 5.15-3.09 10.475-6.285 21.029-6.285 10.555 0 15.88 3.195 21.03 6.285 4.899 2.939 9.526 5.715 18.973 5.715s14.074-2.776 18.973-5.715c5.15-3.09 10.476-6.285 21.031-6.285 1.104 0 2 .896 2 2v74c0 1.105-.896 2-2 2zm-238-4h236v-69.957c-8.126.364-12.433 2.948-16.973 5.671-5.15 3.09-10.476 6.285-21.031 6.285s-15.88-3.195-21.031-6.285c-4.899-2.939-9.526-5.715-18.973-5.715-9.446 0-14.072 2.776-18.971 5.715-5.149 3.09-10.475 6.285-21.028 6.285-10.554 0-15.879-3.195-21.028-6.285-4.898-2.939-9.525-5.715-18.971-5.715-9.445 0-14.071 2.776-18.969 5.715-5.15 3.09-10.475 6.285-21.028 6.285s-15.878-3.195-21.027-6.285c-4.54-2.724-8.845-5.307-16.97-5.671v69.957z" fill="#3762cc"/></g></g><g><g><path d="m210.837 120.993-1.585-1.141h-47.042v1.141c-.052-.001-.102-.008-.154-.008-4.097 0-7.418 3.291-7.418 7.351s3.321 7.351 7.418 7.351c.269 0 .534-.016.796-.044 2.509 10.659 12.151 18.602 23.671 18.602s21.162-7.943 23.671-18.602c.262.028.527.044.796.044 4.097 0 7.418-3.291 7.418-7.351.001-4.181-3.5-7.451-7.571-7.343z" fill="#f9cfcf"/></g></g><g><g><path d="m157.412 119.852.341 2.504c1.214-.86 2.697-1.371 4.304-1.371.052 0 .102.007.154.008v-1.141z" fill="#3762cc"/></g></g><g><g><path d="m210.837 120.993c1.349-.036 2.632.306 3.749.922l.225-2.063h-5.559z" fill="#3762cc"/></g></g><g><g><path d="m186.529 143.549c-1.816 0-3.513-.661-4.657-1.814-.894-.9-1.386-2.044-1.386-3.221 0-.829.671-1.5 1.5-1.5s1.5.671 1.5 1.5c0 .486.28.87.516 1.107.576.581 1.521.928 2.528.928 1.012 0 1.927-.338 2.511-.927.235-.237.516-.622.516-1.107 0-.829.671-1.5 1.5-1.5s1.5.671 1.5 1.5c0 1.176-.492 2.319-1.386 3.221-1.145 1.152-2.837 1.813-4.642 1.813z" fill="#3762cc"/></g></g><g><g><path d="m186.788 83.465c-18.486 0-29.829 13.718-29.829 28.474v7.914h58.303v-7.914c0-15.726-12.748-28.474-28.474-28.474z" fill="#4671c6"/></g></g><g><g><path d="m215.262 121.853h-58.303c-1.104 0-2-.896-2-2v-7.914c0-14.773 11.155-30.474 31.83-30.474 16.803 0 30.474 13.67 30.474 30.474v7.914c-.001 1.104-.897 2-2.001 2zm-56.304-4h54.303v-5.914c0-14.598-11.876-26.474-26.474-26.474-18.076 0-27.83 13.64-27.83 26.474v5.914z" fill="#3762cc"/></g></g><g><g><path d="m186.524 156.246c-11.747 0-21.888-7.564-25.201-18.586-4.852-.373-8.684-4.412-8.684-9.323 0-4.575 3.325-8.393 7.702-9.196.287-.753 1.016-1.288 1.87-1.288h47.042c.419 0 .828.132 1.168.376l1.075.773c2.264.116 4.452 1.065 6.092 2.662 1.819 1.771 2.821 4.141 2.821 6.672 0 4.911-3.833 8.95-8.684 9.323-3.313 11.022-13.454 18.587-25.201 18.587zm-23.67-22.602c.918 0 1.731.63 1.945 1.542 2.364 10.044 11.298 17.06 21.725 17.06s19.36-7.016 21.724-17.06c.231-.981 1.159-1.642 2.158-1.531.192.021.387.033.584.033 2.987 0 5.418-2.4 5.418-5.351 0-1.442-.572-2.794-1.612-3.806-1.043-1.015-2.479-1.581-3.906-1.538-.439.021-.866-.12-1.222-.376l-1.062-.764h-44.591c-.1.209-.236.402-.405.568-.384.376-.9.597-1.438.572-.036 0-.142-.006-.177-.009-2.926.001-5.357 2.402-5.357 5.353s2.431 5.351 5.418 5.351c.198 0 .392-.012.584-.033.072-.008.144-.011.214-.011z" fill="#3762cc"/></g></g><g><g><path d="m177.82 133.288h-8.383c-3.877 0-7.021-3.143-7.021-7.021v-1.55c0-3.877 3.143-7.021 7.021-7.021h8.383c3.877 0 7.021 3.143 7.021 7.021v1.55c-.001 3.877-3.144 7.021-7.021 7.021z" fill="#e0ebfc"/></g></g><g><g><path d="m170.458 129.821c-2.087 0-3.779-1.692-3.779-3.779v-1.098c0-2.087 1.692-3.779 3.779-3.779h6.34c2.087 0 3.779 1.692 3.779 3.779v1.098c0 2.087-1.692 3.779-3.779 3.779z" fill="#4671c6"/></g></g><g><g><path d="m203.604 133.288h-8.383c-3.877 0-7.021-3.143-7.021-7.021v-1.55c0-3.877 3.143-7.021 7.021-7.021h8.383c3.877 0 7.021 3.143 7.021 7.021v1.55c0 3.877-3.144 7.021-7.021 7.021z" fill="#e0ebfc"/></g></g><g><g><path d="m196.243 129.821c-2.087 0-3.779-1.692-3.779-3.779v-1.098c0-2.087 1.692-3.779 3.779-3.779h6.34c2.087 0 3.779 1.692 3.779 3.779v1.098c0 2.087-1.692 3.779-3.779 3.779z" fill="#4671c6"/></g></g><g><g><path d="m203.604 135.288h-8.383c-4.974 0-9.021-4.046-9.021-9.021v-1.55c0-4.974 4.046-9.021 9.021-9.021h8.383c4.974 0 9.021 4.046 9.021 9.021v1.55c0 4.974-4.047 9.021-9.021 9.021zm-8.383-15.592c-2.769 0-5.021 2.252-5.021 5.021v1.55c0 2.769 2.252 5.021 5.021 5.021h8.383c2.769 0 5.021-2.252 5.021-5.021v-1.55c0-2.769-2.252-5.021-5.021-5.021z" fill="#3762cc"/></g></g><g><g><path d="m177.82 135.288h-8.383c-4.974 0-9.021-4.046-9.021-9.021v-1.55c0-4.974 4.047-9.021 9.021-9.021h8.383c4.974 0 9.021 4.046 9.021 9.021v1.55c-.001 4.974-4.047 9.021-9.021 9.021zm-8.383-15.592c-2.769 0-5.021 2.252-5.021 5.021v1.55c0 2.769 2.252 5.021 5.021 5.021h8.383c2.769 0 5.021-2.252 5.021-5.021v-1.55c0-2.769-2.252-5.021-5.021-5.021z" fill="#3762cc"/></g></g><g><g><path d="m188.97 129.544h-4.893c-.427 0-.842-.136-1.186-.389l-1.246-.917c-.512-.377-.814-.975-.814-1.611v-1.891c0-1.104.896-2 2-2h7.385c1.104 0 2 .896 2 2v1.891c0 .636-.302 1.234-.814 1.611l-1.246.917c-.344.253-.76.389-1.186.389z" fill="#3762cc"/></g></g><g><g><path d="m246.89 126.695-30.48-51.306-7.393-11.09c-1.707-2.561-4.531-4.156-7.605-4.296l-23.291-1.064c-.375-.017-.689.283-.689.658 0 1.719 1.01 3.278 2.579 3.981l21.47 9.613h-8.465c-1.546 0-2.8 1.253-2.8 2.8 0 .294.195.552.477.634l14.07 4.038 19.81 46.056c.352.819.249 1.763-.272 2.486l-20.038 27.827c-1.565-.311-2.249-.249-6.331-.247h-.147c0-3.075 0-4.073 0-5.296-3.368 1.751-7.193 2.758-11.261 2.758s-7.893-1.007-11.261-2.758v5.296h-.035c-36.466 0-41.782 0-79.173 0l-19.207-3.123c-.524-.085-1.057-.091-1.583-.017l-21.714 3.06c-.325.046-.567.324-.567.653 0 2.471 1.838 4.556 4.289 4.866l21.641 2.741-3.413.873c-1.354.346-2.301 1.566-2.301 2.963 0 .364.295.659.659.659h22.195l60.904 7.462 1.578 8.893h55.961l32.271-50.838c1.597-2.518 1.645-5.719.122-8.282z" fill="#f9cfcf"/></g></g><g><g><path d="m197.785 156.784c-.259 6.004-5.194 10.795-11.261 10.795s-11.002-4.792-11.261-10.795h-.035c-1.37 0-2.682 0-3.968 0-.846 0-1.664 0-2.475 0v16.338c0 6.173-4.409 11.311-10.248 12.451v.24l2.606 30.687h25.374.007 25.374l2.606-30.687h-.007v-.242c-5.832-1.145-10.234-6.281-10.234-12.449v-14.247c0-.648 0-1.255 0-1.844-1.83-.363-4.13-.247-6.463-.247z" fill="#4671c6"/></g></g><g><g><path d="m211.898 218.5h-50.755c-1.039 0-1.905-.795-1.993-1.831l-2.599-30.596-1.304-7.347-59.315-7.267h-22.073c-1.466 0-2.659-1.193-2.659-2.659 0-.982.282-1.91.779-2.697l-14.958-1.895c-3.442-.436-6.038-3.381-6.038-6.851 0-1.317.983-2.449 2.288-2.633l21.714-3.061c.729-.102 1.462-.094 2.184.023l19.047 3.098h77.047v-3.296c0-.699.365-1.347.962-1.709.598-.363 1.341-.388 1.96-.065 3.232 1.68 6.711 2.532 10.339 2.532 3.627 0 7.106-.852 10.339-2.532.62-.323 1.364-.298 1.96.065.597.363.962 1.011.962 1.709v3.292c1.716-.004 2.665-.006 3.57.089l19.322-26.833c.11-.152.132-.354.058-.527l-19.435-45.185-13.159-3.777c-1.135-.327-1.925-1.378-1.925-2.556 0-2.388 1.752-4.374 4.038-4.739l-13.061-5.848c-2.286-1.023-3.762-3.302-3.762-5.806 0-.723.3-1.424.823-1.924.523-.499 1.229-.757 1.96-.732l23.289 1.063c3.696.169 7.127 2.107 9.178 5.185l7.393 11.09c.019.029.038.058.055.088l30.48 51.306c1.918 3.229 1.859 7.203-.153 10.374l-32 50.412-2.566 30.21c-.087 1.035-.953 1.83-1.992 1.83zm-48.918-4h47.081l2.438-28.714c.004-.364.107-.726.31-1.044l32.271-50.838c1.2-1.891 1.235-4.262.091-6.187l-30.454-51.262-7.364-11.046c-1.348-2.022-3.604-3.296-6.033-3.407l-21.41-.978c.235.311.548.564.917.73l21.47 9.613c.861.385 1.335 1.32 1.139 2.243-.197.923-1.013 1.582-1.956 1.582h-8.465c-.02 0-.04.001-.06.002l12.359 3.547c.577.166 1.048.581 1.286 1.132l19.81 46.055c.626 1.457.439 3.16-.487 4.445l-20.037 27.827c-.458.635-1.246.941-2.013.793-1.123-.223-1.719-.223-4.223-.213l-1.851.004c-1.104 0-2.015-.896-2.015-2v-2.215c-2.956 1.114-6.059 1.677-9.261 1.677-3.203 0-6.306-.563-9.261-1.677v2.215c0 .535-.214 1.048-.596 1.424-.381.376-.884.573-1.432.576h-79.18c-.107 0-.215-.009-.321-.026l-19.208-3.124c-.325-.053-.655-.057-.983-.011l-20.329 2.865c.395.927 1.258 1.617 2.31 1.75l21.641 2.741c.953.121 1.685.902 1.745 1.86s-.57 1.824-1.501 2.062l-2.177.557h18.823c.082 0 .163.005.243.015l60.904 7.462c.872.107 1.573.771 1.726 1.636l1.578 8.893c.011.06.019.12.023.18zm83.788-79.525h.01z" fill="#3762cc"/></g></g><g><g><path d="m167.992 202.552c-19.999 0-19.999 12-39.998 12-20 0-20-12-40-12-19.999 0-19.999 12-39.998 12s-19.999-12-39.997-12v40c0 3.314 2.686 6 6 6h228c3.314 0 6-2.686 6-6v-40c-20.002 0-20.002 12-40.004 12-20.001 0-20.001-12-40.003-12z" fill="#a4c9ff"/></g></g><g><g><path d="m242 250.552h-228c-4.411 0-8-3.589-8-8v-40c0-1.104.896-2 2-2 10.553 0 15.878 3.195 21.027 6.285 4.898 2.939 9.524 5.715 18.97 5.715s14.072-2.776 18.97-5.715c5.149-3.09 10.474-6.285 21.027-6.285 10.554 0 15.879 3.195 21.029 6.285 4.898 2.939 9.525 5.715 18.971 5.715 9.445 0 14.072-2.776 18.97-5.715 5.15-3.09 10.475-6.285 21.029-6.285 10.555 0 15.88 3.195 21.03 6.285 4.899 2.939 9.526 5.715 18.973 5.715s14.074-2.776 18.973-5.715c5.15-3.09 10.476-6.285 21.031-6.285 1.104 0 2 .896 2 2v40c0 4.411-3.589 8-8 8zm-232-45.956v37.957c0 2.206 1.794 4 4 4h228c2.206 0 4-1.794 4-4v-37.957c-8.126.364-12.433 2.948-16.973 5.671-5.15 3.09-10.476 6.285-21.031 6.285s-15.88-3.195-21.031-6.285c-4.899-2.939-9.526-5.715-18.973-5.715-9.446 0-14.072 2.776-18.971 5.715-5.149 3.09-10.475 6.285-21.028 6.285-10.554 0-15.879-3.195-21.028-6.285-4.898-2.939-9.525-5.715-18.971-5.715-9.445 0-14.071 2.776-18.969 5.715-5.15 3.09-10.475 6.285-21.028 6.285s-15.878-3.195-21.027-6.285c-4.54-2.724-8.845-5.307-16.97-5.671z" fill="#3762cc"/></g></g></g></svg>