<?xml version="1.0" encoding="iso-8859-1"?>
<!-- Generator: Adobe Illustrator 19.0.0, SVG Export Plug-In . SVG Version: 6.00 Build 0)  -->
<svg version="1.1" id="Capa_1" xmlns="http://www.w3.org/2000/svg" xmlns:xlink="http://www.w3.org/1999/xlink" x="0px" y="0px"
	 viewBox="0 0 512 512" style="enable-background:new 0 0 512 512;" xml:space="preserve">
<path style="fill:#4BC999;" d="M512,256c0,12.037-0.836,23.886-2.445,35.485c-0.366,2.644-0.763,5.266-1.212,7.889
	c-1.285,7.544-2.905,14.984-4.848,22.298c-1.066,4.033-2.226,8.014-3.48,11.964c-1.264,3.992-2.633,7.952-4.096,11.86
	c-1.661,4.462-3.448,8.871-5.35,13.218c-3.783,8.62-8.025,16.99-12.706,25.078c-2.456,4.253-5.026,8.432-7.722,12.539
	c-1.578,2.414-3.197,4.786-4.859,7.137c-1.285,1.818-2.591,3.615-3.918,5.402c-43.593,58.483-111.595,97.708-188.907,102.609
	C267.013,511.822,261.527,512,256,512c-5.527,0-11.013-0.178-16.457-0.522c-79.684-5.047-149.462-46.561-192.836-108.032
	c-1.661-2.351-3.281-4.723-4.859-7.126C31.472,380.52,22.8,363.51,16.102,345.537c-2.936-7.837-5.486-15.851-7.638-24.022
	c-1.923-7.272-3.532-14.66-4.807-22.162c-0.449-2.623-0.857-5.245-1.212-7.889C0.825,279.876,0,268.037,0,256
	c0-1.317,0.01-2.633,0.031-3.939c0.021-1.087,0.042-2.173,0.073-3.25c0.042-1.714,0.104-3.427,0.188-5.12
	c0.125-2.55,0.282-5.089,0.481-7.617c0.533-7.032,1.358-13.981,2.456-20.846c0.993-6.217,2.215-12.372,3.657-18.432
	c1.275-5.423,2.738-10.773,4.357-16.05C43.384,76.079,140.81,0,256,0s212.616,76.079,244.757,180.746
	c3.438,11.191,6.134,22.706,8.014,34.482c1.097,6.865,1.923,13.814,2.456,20.846c0.199,2.529,0.355,5.068,0.481,7.617
	c0.136,2.779,0.219,5.569,0.261,8.38C511.99,253.377,512,254.683,512,256z"/>
<g>
	<path style="fill:#5BD3A2;" d="M500.015,333.636c-1.264,3.992-2.633,7.952-4.096,11.86c-1.661,4.462-3.448,8.871-5.35,13.218
		H464.52c-6.917,0-12.539,5.611-12.539,12.539c0,6.928,5.622,12.539,12.539,12.539h13.343c-2.456,4.253-5.026,8.432-7.722,12.539
		c-1.578,2.414-3.197,4.786-4.859,7.137c-1.285,1.818-2.591,3.615-3.918,5.402h-56.048c-3.459,0-6.593-1.4-8.861-3.668
		c-2.278-2.278-3.678-5.413-3.678-8.871c0-6.928-5.611-12.539-12.539-12.539h-59.904c-3.459,0-6.593-1.4-8.871-3.668
		c-2.267-2.278-3.668-5.413-3.668-8.871c0-6.928,5.611-12.539,12.539-12.539h40.406c3.459,0,6.593-1.4,8.861-3.668
		c2.278-2.278,3.678-5.413,3.678-8.871c0-6.917,5.611-12.539,12.539-12.539H500.015z"/>
	<path style="fill:#5BD3A2;" d="M150.246,259.49c0,6.928-5.611,12.539-12.539,12.539H18.599c-3.469,0-6.604-1.4-8.871-3.668
		c-2.267-2.278-3.668-5.413-3.668-8.871c0-4.514-2.382-8.464-5.956-10.679c0.042-1.714,0.104-3.427,0.188-5.12
		c0.125-2.55,0.282-5.089,0.481-7.617c0.533-7.032,1.358-13.981,2.456-20.846c0.993-6.217,2.215-12.372,3.657-18.432h111.313
		c3.469,0,6.604,1.4,8.871,3.668c2.267,2.278,3.668,5.413,3.668,8.871c0,6.928-5.611,12.539-12.539,12.539H77.803
		c-6.928,0-12.539,5.611-12.539,12.539c0,6.928,5.611,12.539,12.539,12.539h59.904c3.459,0,6.593,1.4,8.871,3.668
		C148.846,252.897,150.246,256.031,150.246,259.49z"/>
</g>
<path style="fill:#FCF8F2;" d="M272.457,157.236v354.241C267.013,511.822,261.527,512,256,512c-5.527,0-11.013-0.178-16.457-0.522
	V157.236H272.457z"/>
<path style="fill:#F9EED7;" d="M503.495,286.208v-39.267c2.623,2.038,5.475,3.762,8.474,5.13c-0.042-2.811-0.125-5.601-0.261-8.38
	c-3.385-2.006-6.468-4.566-9.101-7.638l-2.79-3.176l-2.748,3.208c-6.949,8.088-17.042,12.727-27.7,12.727
	c-10.668,0-20.762-4.639-27.753-12.79l-2.8-3.114l-2.727,3.176c-6.938,8.088-17.032,12.727-27.7,12.727
	c-10.658,0-20.752-4.639-27.721-12.758l-2.779-3.187l-2.759,3.208c-6.949,8.098-17.042,12.737-27.7,12.737
	c-10.668,0-20.762-4.639-27.753-12.79l-2.581-2.894l-2.738,2.738l-0.188,0.209c-6.949,8.088-17.042,12.737-27.711,12.737
	c-10.658,0-20.752-4.639-27.7-12.737l-2.769-3.041l-2.706,2.957l-0.084,0.084c-6.949,8.098-17.042,12.737-27.7,12.737
	c-10.668,0-20.762-4.639-27.7-12.737l-2.884-3.124l-2.685,3.124c-6.938,8.098-17.032,12.737-27.7,12.737
	c-10.658,0-20.752-4.639-27.7-12.737l-2.654-2.915l-2.717,2.717l-0.188,0.199c-6.949,8.098-17.042,12.737-27.7,12.737
	c-10.668,0-20.762-4.639-27.7-12.737l-2.685-2.894l-2.685,2.685l-0.188,0.209c-6.949,8.088-17.042,12.737-27.711,12.737
	c-10.658,0-20.752-4.65-27.7-12.737l-2.978-2.999l-2.57,2.999c-2.623,3.051-5.684,5.611-9.059,7.617
	c-0.136,2.769-0.219,5.559-0.261,8.37c2.988-1.369,5.82-3.093,8.432-5.12v39.278c-1.818,1.975-3.845,3.73-6.019,5.245
	c0.355,2.644,0.763,5.266,1.212,7.889c1.672-0.972,3.271-2.048,4.807-3.239v25.401c2.152,8.171,4.702,16.185,7.638,24.022
	c7.555,5.747,16.833,8.934,26.499,8.934c9.812,0,19.205-3.281,26.833-9.195v39.288C62.527,392.056,52.83,396.33,42.6,396.33
	c-0.251,0-0.502,0-0.752-0.01c1.578,2.403,3.197,4.775,4.859,7.126c4.274-0.397,8.432-1.421,12.361-3.009
	c5.172-2.1,9.937-5.183,14.012-9.132c8.14,7.889,19.038,12.34,30.49,12.34c11.463,0,22.392-4.472,30.48-12.33
	c8.14,7.879,19.038,12.33,30.48,12.33c11.421,0,22.309-4.43,30.48-12.34c8.14,7.889,19.038,12.34,30.49,12.34
	c5.716,0,11.295-1.108,16.468-3.208c5.172-2.1,9.937-5.183,14.012-9.132c8.14,7.889,19.038,12.34,30.48,12.34
	c11.431,0,22.319-4.441,30.48-12.34c8.14,7.889,19.038,12.34,30.49,12.34c11.442,0,22.34-4.451,30.48-12.34
	c8.14,7.889,19.038,12.351,30.48,12.351c11.431,0,22.319-4.441,30.49-12.351c7.158,6.949,16.468,11.233,26.405,12.163
	c1.661-2.351,3.281-4.723,4.859-7.137c-0.261,0.01-0.512,0.01-0.773,0.01c-10.23,0-19.937-4.284-26.843-11.786v-39.267
	c7.617,5.904,17.021,9.195,26.843,9.195c9.686,0,18.986-3.208,26.551-8.986c2.905-7.774,5.434-15.715,7.576-23.824v-25.558
	c1.546,1.191,3.166,2.288,4.848,3.26c0.449-2.623,0.846-5.245,1.212-7.889C507.371,289.97,505.334,288.204,503.495,286.208z
	 M69.433,335.391c-6.907,7.481-16.603,11.766-26.833,11.766c-10.219,0-19.916-4.274-26.823-11.766v-39.278
	c7.617,5.904,17.021,9.185,26.823,9.185c9.812,0,19.216-3.281,26.833-9.185V335.391z M69.433,286.208
	C62.527,293.7,52.83,297.984,42.6,297.984c-10.219,0-19.916-4.274-26.823-11.766v-39.278c7.617,5.904,17.021,9.185,26.823,9.185
	c9.812,0,19.216-3.281,26.833-9.185V286.208z M130.393,384.564c-6.896,7.492-16.593,11.766-26.823,11.766
	c-10.219,0-19.916-4.263-26.823-11.755v-39.278c7.617,5.893,17.011,9.174,26.823,9.174c9.822,0,19.237-3.291,26.823-9.174V384.564z
	 M130.393,335.391c-6.896,7.492-16.593,11.766-26.823,11.766c-10.219,0-19.916-4.274-26.823-11.755v-39.278
	c7.607,5.893,17.011,9.174,26.823,9.174s19.216-3.281,26.823-9.185V335.391z M130.393,286.208
	c-6.896,7.492-16.593,11.776-26.823,11.776s-19.916-4.274-26.823-11.755v-39.278c7.607,5.893,17.011,9.174,26.823,9.174
	s19.216-3.281,26.823-9.185V286.208z M191.363,384.564c-6.907,7.492-16.603,11.766-26.833,11.766
	c-10.23,0-19.937-4.284-26.823-11.755v-39.278c7.617,5.893,17.021,9.174,26.823,9.174s19.195-3.271,26.833-9.195L191.363,384.564
	L191.363,384.564z M191.363,335.391c-6.907,7.492-16.603,11.766-26.833,11.766c-10.23,0-19.937-4.284-26.823-11.755v-39.278
	c7.617,5.893,17.021,9.174,26.823,9.174c9.822,0,19.237-3.291,26.833-9.174L191.363,335.391L191.363,335.391z M191.363,286.208
	c-6.907,7.492-16.603,11.776-26.833,11.776c-10.219,0-19.916-4.274-26.823-11.755v-39.278c7.617,5.893,17.021,9.174,26.823,9.174
	c9.822,0,19.237-3.291,26.833-9.174L191.363,286.208L191.363,286.208z M252.322,384.575c-6.907,7.481-16.603,11.755-26.823,11.755
	c-10.23,0-19.916-4.274-26.823-11.755v-39.278c7.607,5.893,17.011,9.174,26.823,9.174c9.801,0,19.195-3.271,26.823-9.174V384.575z
	 M252.322,335.402c-6.907,7.481-16.603,11.755-26.823,11.755c-10.23,0-19.926-4.274-26.823-11.755v-39.278
	c7.607,5.893,17.011,9.174,26.823,9.174c9.801,0,19.205-3.281,26.823-9.174V335.402z M252.322,286.229
	c-6.907,7.481-16.603,11.755-26.823,11.755c-10.23,0-19.916-4.274-26.823-11.755v-39.278c7.607,5.893,17.011,9.174,26.823,9.174
	c9.801,0,19.205-3.281,26.823-9.174V286.229z M313.292,384.564c-6.907,7.492-16.603,11.766-26.833,11.766
	c-10.24,0-19.947-4.284-26.823-11.766v-39.278c7.607,5.904,17.011,9.185,26.823,9.185c9.801,0,19.205-3.281,26.833-9.185V384.564z
	 M313.292,335.391c-6.907,7.492-16.603,11.766-26.833,11.766c-10.24,0-19.947-4.284-26.823-11.766v-39.278
	c7.607,5.904,17.011,9.185,26.823,9.185s19.216-3.281,26.833-9.185V335.391z M313.292,286.218
	c-6.907,7.481-16.603,11.766-26.833,11.766c-10.23,0-19.926-4.284-26.823-11.776v-39.267c7.607,5.904,17.011,9.185,26.823,9.185
	s19.216-3.281,26.833-9.185V286.218z M374.262,384.554c-6.907,7.502-16.603,11.776-26.833,11.776
	c-10.209,0-19.884-4.253-26.823-11.755v-39.278c7.607,5.893,17.011,9.174,26.823,9.174s19.216-3.281,26.833-9.185V384.554z
	 M374.262,335.381c-6.907,7.492-16.603,11.776-26.833,11.776s-19.926-4.274-26.823-11.755v-39.278
	c7.607,5.893,17.011,9.174,26.823,9.174s19.226-3.291,26.833-9.185V335.381z M374.262,286.208
	c-6.907,7.492-16.603,11.776-26.833,11.776c-10.209,0-19.884-4.263-26.823-11.766v-39.278c7.607,5.904,17.011,9.185,26.823,9.185
	s19.226-3.291,26.833-9.185V286.208z M435.21,384.585c-6.907,7.481-16.593,11.755-26.823,11.755
	c-10.23,0-19.937-4.284-26.812-11.755v-39.288c7.607,5.904,17.011,9.185,26.812,9.185s19.195-3.281,26.823-9.185V384.585z
	 M435.21,335.402c-6.907,7.492-16.593,11.766-26.823,11.766c-10.23,0-19.937-4.284-26.812-11.766v-39.278
	c7.607,5.904,17.011,9.174,26.812,9.174c9.812,0,19.216-3.271,26.823-9.174V335.402z M435.21,286.229
	c-6.907,7.481-16.593,11.755-26.823,11.755c-10.209,0-19.895-4.263-26.812-11.755v-39.278c7.607,5.893,17.011,9.174,26.812,9.174
	c9.812,0,19.216-3.281,26.823-9.174V286.229z M496.18,335.402c-6.896,7.492-16.593,11.766-26.812,11.766
	c-10.23,0-19.937-4.284-26.843-11.786v-39.267c7.617,5.904,17.021,9.195,26.843,9.195c9.812,0,19.216-3.291,26.812-9.174V335.402z
	 M496.18,286.229c-6.896,7.481-16.593,11.766-26.812,11.766c-10.209,0-19.895-4.274-26.843-11.786v-39.267
	c7.617,5.904,17.021,9.185,26.843,9.185c9.812,0,19.216-3.281,26.812-9.164V286.229z"/>
<g>
	<path style="fill:#5C5E70;" d="M500.757,180.746H11.243C38.4,92.317,112.149,24.294,203.839,5.319C220.682,1.829,238.132,0,256,0
		c38.902,0,75.786,8.683,108.805,24.21C429.558,54.659,479.472,111.428,500.757,180.746z"/>
	<path style="fill:#5C5E70;" d="M511.227,236.074H0.773c0.533-7.032,1.358-13.981,2.456-20.846h505.543
		C509.868,222.093,510.694,229.042,511.227,236.074z"/>
</g>
<path style="fill:#797B89;" d="M380.615,52.423c0,5.193-4.211,9.404-9.404,9.404h-0.92c-2.591,0-4.953,1.055-6.646,2.759
	c-1.703,1.693-2.759,4.054-2.759,6.646c0,5.193-4.211,9.404-9.404,9.404H216.054c-2.602,0-4.942-1.055-6.646-2.759
	c-1.703-1.693-2.759-4.054-2.759-6.646c0-5.193,4.211-9.404,9.404-9.404h28.588c2.602,0,4.942-1.055,6.646-2.759
	c1.703-1.693,2.759-4.054,2.759-6.646c0-5.193-4.211-9.404-9.404-9.404h-7.983c-2.602,0-4.942-1.055-6.646-2.759
	c-1.703-1.693-2.759-4.054-2.759-6.646c0-5.193,4.211-9.404,9.404-9.404h26.415c2.602,0,4.942-1.055,6.646-2.759
	c1.703-1.693,2.759-4.054,2.759-6.646c0-5.193-4.211-9.404-9.404-9.404h-57.992c-0.418,0-0.836-0.031-1.243-0.084
	C220.682,1.829,238.132,0,256,0c38.902,0,75.786,8.683,108.805,24.21H353.97c-2.591,0-4.953,1.055-6.646,2.759
	c-1.703,1.693-2.759,4.054-2.759,6.646c0,5.193,4.211,9.404,9.404,9.404h17.241c2.591,0,4.953,1.055,6.646,2.759
	C379.559,47.47,380.615,49.831,380.615,52.423z"/>
<path style="fill:#FF525D;" d="M301.599,407.388c-19.439,19.439-42.721,32.347-66.748,38.539
	c-27.035,6.967-55.008,5.445-79.523-4.81c-13.018-5.452-28.04-2.387-38.014,7.588L78.25,487.769
	c-3.975,3.975-9.191,5.97-14.408,5.97c-5.216,0-10.432-1.995-14.408-5.97c-7.958-7.958-7.958-20.858,0-28.815l39.063-39.064
	c9.975-9.975,13.04-24.995,7.595-38.007c-10.263-24.523-11.784-52.496-4.81-79.523c6.192-24.027,19.1-47.309,38.539-66.748
	c52.946-52.946,134.309-57.409,181.743-9.975S354.545,354.442,301.599,407.388z"/>
<path style="fill:#EF4152;" d="M48.823,487.111c-7.337-7.987-7.13-20.414,0.613-28.158L88.5,419.889
	c9.975-9.975,13.04-24.995,7.595-38.006c-10.263-24.523-11.784-52.496-4.81-79.523c6.192-24.027,19.1-47.309,38.539-66.748
	c52.532-52.532,133.038-57.336,180.627-11.076c-41.125-39.573-116.251-29.481-168.718,22.986
	c-19.439,19.439-33.071,41.997-40.497,64.79c-8.363,25.639-8.889,51.565-1.034,73.679c4.16,11.726,0.266,25.919-9.708,35.893
	l-39.064,39.064C43.725,468.653,42.645,480.165,48.823,487.111z"/>
<path style="fill:#FFD15C;" d="M234.851,445.927c-27.035,6.967-55.008,5.445-79.523-4.81c-13.018-5.452-28.04-2.387-38.014,7.588
	L78.25,487.769c-3.975,3.975-9.191,5.97-14.408,5.97c-5.216,0-10.432-1.995-14.408-5.97c-7.958-7.958-7.958-20.858,0-28.815
	l39.064-39.064c9.975-9.975,13.04-24.995,7.595-38.007c-10.263-24.523-11.784-52.496-4.81-79.523L234.851,445.927z"/>
<path style="fill:#34ABE0;" d="M392.735,62.178c11.592,11.592,19.29,25.476,22.983,39.804c4.155,16.122,3.248,32.804-2.868,47.423
	c-3.252,7.764-1.423,16.722,4.525,22.669l23.295,23.295c2.371,2.371,3.56,5.482,3.56,8.592c0,3.111-1.19,6.221-3.56,8.592
	c-4.745,4.745-12.438,4.745-17.183,0l-23.295-23.295c-5.949-5.949-14.905-7.777-22.665-4.53c-14.623,6.12-31.305,7.028-47.423,2.868
	c-14.329-3.693-28.212-11.389-39.804-22.983c-31.574-31.574-34.235-80.095-5.949-108.381S361.161,30.603,392.735,62.178z"/>
<path style="fill:#279FC9;" d="M440.277,212.919c-4.763,4.375-12.174,4.252-16.792-0.366l-23.295-23.295
	c-5.949-5.949-14.905-7.777-22.665-4.53c-14.623,6.12-31.305,7.028-47.423,2.868c-14.329-3.693-28.212-11.389-39.804-22.983
	c-31.327-31.327-34.191-79.336-6.605-107.716c-23.599,24.525-17.58,69.326,13.707,100.613c11.592,11.592,25.044,19.721,38.637,24.15
	c15.289,4.987,30.75,5.301,43.938,0.616c6.992-2.481,15.456-0.159,21.405,5.79l23.295,23.295
	C429.27,215.959,436.135,216.602,440.277,212.919z"/>
<path style="fill:#FFD15C;" d="M415.718,101.982c4.155,16.122,3.248,32.804-2.868,47.423c-3.252,7.764-1.423,16.722,4.525,22.669
	l23.295,23.295c2.371,2.371,3.56,5.482,3.56,8.592c0,3.111-1.19,6.221-3.56,8.592c-4.745,4.745-12.438,4.745-17.183,0
	l-23.295-23.295c-5.949-5.949-14.905-7.777-22.665-4.53c-14.623,6.12-31.305,7.028-47.423,2.868L415.718,101.982z"/>
<path style="fill:#E8DBC4;" d="M193.432,110.874v0.136c0,19.477-15.788,35.265-35.265,35.265s-35.265-15.788-35.265-35.265
	s15.788-35.265,35.265-35.265c0.836,0,1.661,0.031,2.476,0.084C178.918,77.093,193.358,92.285,193.432,110.874z"/>
<path style="fill:#F9EED7;" d="M193.432,110.874c-2.978,12.769-14.42,22.277-28.087,22.277c-15.935,0-28.86-12.925-28.86-28.86
	c0-14.336,10.459-26.227,24.158-28.463C178.918,77.093,193.358,92.285,193.432,110.874z"/>
<circle style="fill:#FCF8F2;" cx="167.967" cy="95.629" r="9.665"/>
<g>
</g>
<g>
</g>
<g>
</g>
<g>
</g>
<g>
</g>
<g>
</g>
<g>
</g>
<g>
</g>
<g>
</g>
<g>
</g>
<g>
</g>
<g>
</g>
<g>
</g>
<g>
</g>
<g>
</g>
</svg>
