<svg height="512pt" viewBox="-95 0 512 512" width="512pt" xmlns="http://www.w3.org/2000/svg"><path d="m219.363281 0h-97.082031c-30.121094 0-55.875 18.632812-66.414062 44.988281h-3.980469c-11.65625 0-21.105469 9.449219-21.105469 21.105469v143.910156h260.101562v-138.484375c0-39.5-32.019531-71.519531-71.519531-71.519531zm0 0" fill="#52668e"/><path d="m219.363281 0h-24.910156c39.5 0 71.519531 32.019531 71.519531 71.519531v138.484375h24.910156v-138.484375c0-39.5-32.019531-71.519531-71.519531-71.519531zm0 0" fill="#233b5e"/><path d="m321.664062 394.859375v70.824219c0 5.625-3.226562 10.730468-8.285156 13.191406-42.8125 20.835938-95.53125 33.125-152.546875 33.125-57.011719 0-109.730469-12.289062-152.546875-33.125-5.054687-2.460938-8.28124975-7.566406-8.28124975-13.191406v-70.824219c0-9.328125 5.51562475-17.777344 14.05468775-21.542969l71.632812-31.578125c8.382813-3.6875 13.796875-12 13.796875-21.160156v-77.195313h122.691407v77.195313c0 9.160156 5.414062 17.472656 13.792968 21.160156l71.632813 31.578125c8.539062 3.765625 14.058593 12.214844 14.058593 21.542969zm0 0" fill="#f7bc94"/><path d="m222.179688 315.78125v-72.398438h-122.691407v48.816407c18.671875 22.050781 42.433594 38.527343 60.144531 38.527343h27.195313c10.441406 0 22.984375-5.730468 35.351563-14.945312zm0 0" fill="#e59876"/><path d="m307.605469 373.3125-71.632813-31.574219c-8.378906-3.6875-13.796875-12.003906-13.796875-21.164062v-77.191407h-122.6875v14.421876h98.8125v77.195312c0 9.160156 5.414063 17.472656 13.792969 21.164062l71.632812 31.574219c8.539063 3.769531 14.058594 12.214844 14.058594 21.546875v70.820313c0 2.269531-.53125 4.449219-1.492187 6.40625 5.851562-2.398438 11.554687-4.945313 17.085937-7.636719 5.054688-2.460938 8.28125-7.566406 8.28125-13.191406v-70.824219c0-9.328125-5.515625-17.777344-14.054687-21.546875zm0 0" fill="#e59876"/><path d="m321.664062 394.859375v70.828125c0 5.621094-3.226562 10.722656-8.285156 13.1875-27.519531 13.390625-59.128906 23.257812-93.347656 28.578125-13.785156 2.164063-27.980469 3.578125-42.507812 4.1875-5.515626.234375-11.082032.359375-16.691407.359375-57.011719 0-109.738281-12.289062-152.542969-33.125-5.0625-2.464844-8.289062-7.566406-8.289062-13.1875v-70.828125c0-9.328125 5.515625-17.773437 14.0625-21.546875l39.054688-17.207031 28.15625-12.414063c22.472656 38.546875 49.25 74.675782 79.558593 107.53125 30.3125-32.855468 57.085938-68.984375 79.5625-107.53125l28.15625 12.414063 39.050781 17.207031c8.546876 3.773438 14.0625 12.214844 14.0625 21.546875zm0 0" fill="#e6eff5"/><path d="m312.324219 376.101562c-4.234375-3.207031-3.964844-2.089843-43.773438-19.996093l-28.15625-12.414063c-3.867187 6.628906-7.867187 13.179688-11.984375 19.664063l55.316406 24.382812c8.539063 3.765625 14.058594 12.214844 14.058594 21.542969v70.824219c0 2.265625-.53125 4.441406-1.488281 6.398437 5.863281-2.402344 12.078125-5.195312 17.082031-7.628906 4.933594-2.402344 8.28125-7.457031 8.28125-13.191406v-70.824219c0-7.46875-3.542968-14.367187-9.335937-18.757813zm0 0" fill="#b4cbdb"/><g fill="#f7bc94"><path d="m271.882812 166.742188h-29.675781v61.347656h29.675781c12.996094 0 23.527344-10.535156 23.527344-23.527344v-14.292969c0-12.992187-10.53125-23.527343-23.527344-23.527343zm0 0"/><path d="m49.78125 166.742188h29.675781v61.347656h-29.675781c-12.992188 0-23.527344-10.535156-23.527344-23.527344v-14.292969c0-12.992187 10.535156-23.527343 23.527344-23.527343zm0 0"/><path d="m264.527344 205.3125c0 44.324219-56.15625 104.8125-90.097656 104.8125h-27.195313c-33.941406 0-90.097656-60.488281-90.097656-104.8125l.070312-83.992188c16.144531-6.339843 29.417969-18.398437 37.324219-33.675781 1.058594-2.035156 3.144531-3.328125 5.4375-3.328125 1.5625 0 3.058594.613282 4.203125 1.679688 39.375 36.785156 104.972656 56.445312 160.273437 19.425781zm0 0"/></g><path d="m264.445312 105.421875c-8.050781 5.390625-16.324218 9.574219-24.703124 12.683594l.0625 87.207031c0 44.324219-49.460938 104.8125-79.355469 104.8125h13.980469c33.941406 0 90.097656-60.488281 90.097656-104.8125zm0 0" fill="#e59876"/><path d="m115.605469 193.070312c-4.265625 0-7.722657-3.457031-7.722657-7.722656v-3.257812c0-4.269532 3.457032-7.726563 7.722657-7.726563 4.269531 0 7.726562 3.457031 7.726562 7.726563v3.257812c0 4.265625-3.457031 7.722656-7.726562 7.722656zm0 0" fill="#233b5e"/><path d="m206.058594 193.070312c-4.269532 0-7.726563-3.457031-7.726563-7.722656v-3.257812c0-4.269532 3.460938-7.726563 7.726563-7.726563s7.726562 3.457031 7.726562 7.726563v3.257812c0 4.265625-3.457031 7.722656-7.726562 7.722656zm0 0" fill="#233b5e"/><path d="m222.636719 163.042969c-1.144531 0-2.304688-.253907-3.398438-.792969-9.394531-4.609375-18.53125-4.609375-27.925781 0-3.835938 1.882812-8.460938.300781-10.339844-3.53125-1.882812-3.828125-.300781-8.460938 3.53125-10.339844 13.78125-6.765625 27.757813-6.765625 41.542969 0 3.828125 1.878906 5.410156 6.511719 3.527344 10.339844-1.339844 2.734375-4.085938 4.324219-6.9375 4.324219zm0 0" fill="#52668e"/><path d="m133.753906 163.042969c-1.144531 0-2.304687-.253907-3.398437-.792969-9.394531-4.609375-18.53125-4.609375-27.925781 0-3.835938 1.882812-8.460938.300781-10.339844-3.53125-1.878906-3.828125-.300782-8.460938 3.53125-10.339844 13.78125-6.765625 27.761718-6.765625 41.542968 0 3.828126 1.878906 5.410157 6.511719 3.53125 10.339844-1.34375 2.734375-4.085937 4.324219-6.941406 4.324219zm0 0" fill="#52668e"/><path d="m281.5625 492.113281v-52.136719c0-4.265624-3.457031-7.722656-7.726562-7.722656-4.265626 0-7.726563 3.457032-7.726563 7.722656v57.140626c5.246094-1.558594 10.402344-3.222657 15.453125-5.003907zm0 0" fill="#b4cbdb"/><path d="m55.554688 497.128906v-57.152344c0-4.265624-3.457032-7.722656-7.726563-7.722656-4.265625 0-7.726563 3.457032-7.726563 7.722656v52.136719c5.058594 1.78125 10.207032 3.457031 15.453126 5.015625zm0 0" fill="#b4cbdb"/><path d="m160.832031 239.429688c-9.710937 0-19.132812-2.976563-27.25-8.605469-3.507812-2.429688-4.378906-7.242188-1.949219-10.75 2.433594-3.507813 7.246094-4.382813 10.753907-1.949219 5.519531 3.828125 11.898437 5.851562 18.445312 5.851562 6.550781 0 12.929688-2.023437 18.445313-5.851562 3.511718-2.429688 8.324218-1.558594 10.753906 1.949219 2.433594 3.507812 1.558594 8.320312-1.945312 10.75-8.121094 5.628906-17.542969 8.605469-27.253907 8.605469zm0 0" fill="#b26344"/><path d="m53.117188 356.105469c23.804687 42.363281 52.765624 81.921875 85.910156 117.582031 7.082031 7.621094 14.351562 15.0625 21.804687 22.308594 7.453125-7.246094 14.722657-14.6875 21.804688-22.308594-41.679688-40.816406-77.585938-88.46875-101.363281-129.996094zm0 0" fill="#425677"/><path d="m101.632812 507.453125c13.785157 2.164063 27.980469 3.578125 42.507813 4.1875 5.660156-5.105469 11.226563-10.320313 16.691406-15.640625 7.453125-7.25 14.722657-14.691406 21.804688-22.3125 33.148437-35.660156 62.109375-75.21875 85.914062-117.582031l-28.15625-12.414063c-31.566406 55.128906-80.136719 115.066406-138.761719 163.761719zm0 0" fill="#52668e"/><path d="m240.390625 343.699219c-3.726563 6.507812-7.699219 13.082031-11.886719 19.695312l28.394532 12.515625c4.003906-6.53125 7.898437-13.128906 11.652343-19.804687l-28.15625-12.414063c-.003906.003906-.003906.007813-.003906.007813zm0 0" fill="#233b5e"/></svg>