<?xml version="1.0" encoding="iso-8859-1"?>
<!-- Generator: Adobe Illustrator 19.0.0, SVG Export Plug-In . SVG Version: 6.00 Build 0)  -->
<svg version="1.1" id="Capa_1" xmlns="http://www.w3.org/2000/svg" xmlns:xlink="http://www.w3.org/1999/xlink" x="0px" y="0px"
	 viewBox="0 0 512 512" style="enable-background:new 0 0 512 512;" xml:space="preserve">
<path style="fill:#4BC999;" d="M512,259.004c0,1.642-0.021,3.294-0.052,4.926c-0.165,8.612-0.754,17.131-1.755,25.506
	c-2.076,17.286-5.896,34.035-11.266,50.062c-9.944,29.636-25.217,56.825-44.692,80.421c-2.447,2.974-4.967,5.886-7.548,8.736
	c-2.292,2.54-4.636,5.029-7.032,7.466c-1.993,2.045-4.027,4.048-6.103,6.02c-4.389,4.192-8.943,8.22-13.631,12.092
	c-25.888,21.365-56.103,37.68-89.136,47.439c-22.749,6.722-46.84,10.326-71.778,10.326c-68.277,0-130.224-27.044-175.732-70.993
	c-12.319-11.906-23.43-25.031-33.137-39.209c-15.479-22.594-27.385-47.831-34.903-74.896c-6.01-21.603-9.221-44.372-9.221-67.895
	c0-14.426,1.208-28.562,3.542-42.327c1.239-7.425,2.819-14.746,4.698-21.943c3.697-14.126,8.581-27.767,14.55-40.82
	c0.145-0.299,0.279-0.609,0.423-0.909c0.217-0.485,0.444-0.971,0.671-1.446c1.291-2.747,2.623-5.463,4.017-8.158
	c3.707-7.218,7.755-14.23,12.133-21.024c1.404-2.21,2.86-4.378,4.337-6.537c1.941-2.819,3.924-5.587,5.969-8.323
	c6.258-8.344,13.011-16.295,20.229-23.792c2.323-2.427,4.709-4.812,7.135-7.146c7.507-7.218,15.458-13.971,23.802-20.229
	c2.736-2.045,5.514-4.038,8.333-5.958c2.138-1.487,4.306-2.933,6.506-4.337c6.795-4.378,13.817-8.426,21.035-12.144
	c2.695-1.384,5.421-2.726,8.168-4.017c0.475-0.227,0.95-0.454,1.435-0.671c0.299-0.134,0.599-0.279,0.898-0.413
	c13.052-5.969,26.704-10.863,40.84-14.56c20.518-5.38,42.059-8.24,64.271-8.24c68.824,0,131.216,27.478,176.827,72.057
	c11.607,11.338,22.119,23.781,31.371,37.164c7.869,11.369,14.818,23.41,20.766,36.018C503.388,183.943,512,220.466,512,259.004z"/>
<g>
	<path style="fill:#5BD3A2;" d="M467.205,115.232h-100.33c-5.132,0-9.779-2.076-13.135-5.442c-3.366-3.356-5.442-8.003-5.442-13.145
		c0-10.264,8.313-18.577,18.577-18.577h68.959C447.44,89.406,457.952,101.849,467.205,115.232z"/>
	<path style="fill:#5BD3A2;" d="M512,259.004c0,1.642-0.021,3.294-0.052,4.926H388.56c-5.132,0-9.779-2.086-13.145-5.442
		c-3.356-3.366-5.442-8.013-5.442-13.145c0-10.264,8.323-18.587,18.587-18.587h56.505c5.132,0,9.779-2.086,13.145-5.442
		c3.356-3.366,5.442-8.013,5.442-13.145c0-10.264-8.323-18.587-18.587-18.587h-15.768c-5.132,0-9.779-2.086-13.145-5.442
		c-3.366-3.366-5.442-8.013-5.442-13.145c0-10.264,8.323-18.587,18.587-18.587h52.199c2.272,0,4.461-0.413,6.475-1.157
		C503.388,183.943,512,220.466,512,259.004z"/>
	<path style="fill:#5BD3A2;" d="M217.196,309.603c0,10.275-8.323,18.587-18.587,18.587H22.04c-2.406,0-4.698-0.454-6.805-1.291
		c-6.01-21.603-9.221-44.372-9.221-67.895c0-14.426,1.208-28.562,3.542-42.327h160.139c5.132,0,9.779,2.086,13.145,5.442
		c3.366,3.366,5.442,8.013,5.442,13.145c0,10.264-8.323,18.587-18.587,18.587h-59.892c-10.264,0-18.587,8.323-18.587,18.587
		s8.323,18.587,18.587,18.587h88.806c5.132,0,9.779,2.076,13.145,5.442C215.12,299.824,217.196,304.471,217.196,309.603z"/>
	<path style="fill:#5BD3A2;" d="M446.686,428.654c-2.292,2.54-4.636,5.029-7.032,7.466c-1.993,2.045-4.027,4.048-6.103,6.02
		c-4.389,4.192-8.943,8.22-13.631,12.092c-25.888,21.365-56.103,37.68-89.136,47.439h-0.981c-5.132,0-9.779-2.076-13.145-5.442
		c-3.356-3.366-5.442-8.013-5.442-13.145c0-10.275-8.323-18.587-18.587-18.587h-29.43c-5.132,0-9.779-2.076-13.135-5.442
		c-3.366-3.366-5.442-8.013-5.442-13.145c0-10.264,8.313-18.587,18.577-18.587h176.579
		C442.225,427.322,444.559,427.797,446.686,428.654z"/>
</g>
<path style="fill:#FCF8F2;" d="M510.193,289.436c-2.076,17.286-5.896,34.035-11.266,50.062L83.275,441.005
	c-12.319-11.906-23.43-25.031-33.137-39.209L510.193,289.436z"/>
<g>
	<path style="fill:#F9EED7;" d="M266.74,325.055c-1.973,1.973-5.172,1.973-7.146,0l-237.6-237.6c-1.973-1.973-1.973-5.172,0-7.146
		c1.973-1.973,5.172-1.973,7.146,0l237.6,237.6C268.712,319.883,268.714,323.082,266.74,325.055z"/>
	<path style="fill:#F9EED7;" d="M335.098,218.47c-1.973,1.973-5.172,1.973-7.146,0L128.58,19.098c-1.973-1.973-1.973-5.172,0-7.146
		c1.973-1.973,5.172-1.973,7.146,0l199.372,199.372C337.07,213.297,337.071,216.496,335.098,218.47z"/>
	<path style="fill:#F9EED7;" d="M218.468,335.099c-1.973,1.973-5.172,1.973-7.146,0L11.951,135.728
		c-1.973-1.973-1.973-5.172,0-7.146s5.172-1.973,7.146,0l199.372,199.372C220.441,329.926,220.441,333.125,218.468,335.099z"/>
	<path style="fill:#F9EED7;" d="M325.055,266.741c-1.973,1.973-5.172,1.973-7.146,0l-237.6-237.6c-1.973-1.973-1.973-5.172,0-7.146
		c1.973-1.973,5.172-1.973,7.146,0l237.6,237.6C327.028,261.568,327.028,264.768,325.055,266.741z"/>
	<path style="fill:#F9EED7;" d="M306.079,306.081c-1.973,1.973-5.172,1.973-7.146,0L40.969,48.117c-1.973-1.973-1.973-5.172,0-7.146
		c1.973-1.973,5.172-1.973,7.146,0L306.08,298.936C308.052,300.908,308.052,304.107,306.079,306.081z"/>
	<path style="fill:#F9EED7;" d="M241.473,54.407L54.407,241.474c-1.973,1.973-5.172,1.973-7.146,0c-1.973-1.973-1.973-5.172,0-7.146
		L234.327,47.262c1.973-1.973,5.172-1.973,7.146,0C243.446,49.235,243.446,52.434,241.473,54.407z"/>
	<path style="fill:#F9EED7;" d="M318.362,152.462l-165.9,165.9c-1.973,1.973-5.172,1.973-7.146,0s-1.973-5.172,0-7.146l165.9-165.9
		c1.973-1.973,5.172-1.973,7.146,0S320.335,150.489,318.362,152.462z"/>
	<path style="fill:#F9EED7;" d="M201.733,35.834l-165.9,165.9c-1.973,1.973-5.172,1.973-7.146,0s-1.973-5.172,0-7.146l165.9-165.9
		c1.973-1.973,5.172-1.973,7.146,0S203.707,33.86,201.733,35.834z"/>
	<path style="fill:#F9EED7;" d="M157.432,25.28L25.28,157.432c-1.973,1.973-5.172,1.973-7.146,0s-1.973-5.172,0-7.146
		L150.286,18.135c1.973-1.973,5.172-1.973,7.146,0C159.405,20.108,159.405,23.307,157.432,25.28z"/>
	<path style="fill:#F9EED7;" d="M328.916,196.764L196.763,328.916c-1.973,1.973-5.172,1.973-7.146,0s-1.973-5.172,0-7.146
		L321.77,189.618c1.973-1.973,5.172-1.973,7.146,0C330.889,191.592,330.889,194.791,328.916,196.764z"/>
	<path style="fill:#F9EED7;" d="M299.788,112.722L112.721,299.789c-1.973,1.973-5.172,1.973-7.146,0
		c-1.973-1.973-1.973-5.172,0-7.146l187.066-187.066c1.973-1.973,5.172-1.973,7.146,0
		C301.761,107.549,301.762,110.748,299.788,112.722z"/>
	<path style="fill:#F9EED7;" d="M270.326,83.869L83.868,270.328c-1.973,1.973-5.172,1.973-7.146,0c-1.973-1.973-1.973-5.172,0-7.146
		L263.181,76.723c1.973-1.973,5.172-1.973,7.146,0C272.3,78.697,272.3,81.896,270.326,83.869z"/>
</g>
<path style="fill:#FF525D;" d="M410.502,401.994l-8.506,8.506c-3.496,3.496-9.144,3.558-12.717,0.143l-7.823-7.481
	c-33.557-32.04-77.408-52.793-123.469-58.433l-27.168-3.328l2.212-18.055l27.167,3.328c38.818,4.753,76.186,19.409,107.992,42.023
	c-24.68-33.892-39.984-73.973-43.979-116.309l-1.375-14.494c-0.032-0.341-0.045-0.683-0.039-1.024l9.179,0.157l8.968-0.851
	l1.375,14.498c4.994,52.903,29.127,101.996,67.958,138.241c1.803,1.683,2.845,4.026,2.887,6.492
	C413.207,397.873,412.245,400.251,410.502,401.994z"/>
<path style="fill:#279FC9;" d="M454.235,419.918c-4.626,5.607-9.49,11.018-14.581,16.202c-1.993,2.045-4.027,4.048-6.103,6.02
	c-4.389,4.192-8.943,8.22-13.631,12.092l-32.961-32.961c-4.358-4.368-5.504-10.729-3.449-16.14c0.733-1.941,1.89-3.748,3.449-5.308
	l12.866-12.867c1.477-1.466,3.18-2.582,4.998-3.315c5.473-2.23,11.999-1.126,16.45,3.315l19.475,19.486
	c0.114,0.103,0.217,0.207,0.33,0.32L454.235,419.918z"/>
<path style="fill:#34ABE0;" d="M454.235,419.918c-4.626,5.607-9.49,11.018-14.581,16.202c-1.993,2.045-4.027,4.048-6.103,6.02
	l-31.598-31.598l-2.127-2.127c-5.927-5.927-5.927-15.531,0-21.458c1.477-1.466,3.18-2.582,4.998-3.315
	c5.473-2.23,11.999-1.126,16.45,3.315l19.475,19.486c0.114,0.103,0.217,0.207,0.33,0.32L454.235,419.918z"/>
<path style="fill:#FF525D;" d="M344.333,195.581c-6.97-44.95-30.875-89.766-67.296-126.187
	c-24.484-24.484-52.757-43.308-82.3-55.142C180.311,8.479,165.585,4.38,150.85,2.087C104.33-5.12,63.118,6.497,34.803,34.801
	C6.489,63.116-5.128,104.328,2.09,150.847c2.292,14.746,6.392,29.471,12.164,43.887c11.824,29.554,30.648,57.817,55.132,82.3
	c36.431,36.421,81.237,60.326,126.187,67.296c19.248,2.984,37.598,2.747,54.492-0.578c12.67-2.468,24.525-6.681,35.336-12.557
	c9.614-5.225,18.412-11.772,26.218-19.579c7.311-7.311,13.507-15.479,18.536-24.37c5.669-9.975,9.882-20.859,12.598-32.476
	C347.007,236.596,347.596,216.636,344.333,195.581z M295.789,288.641c-1.115,1.26-2.272,2.489-3.47,3.686
	c-1.198,1.198-2.416,2.344-3.676,3.459c-7.992,7.104-17.245,12.639-27.499,16.522c-3.511,1.332-7.146,2.478-10.884,3.408
	c-12.629,3.201-26.507,4.172-41.233,2.798c-0.568-0.041-1.136-0.103-1.704-0.165c-2.499-0.258-5.019-0.589-7.569-0.981
	c-1.632-0.258-3.263-0.537-4.895-0.847c-0.878-0.155-1.745-0.32-2.623-0.506c-9.676-1.972-19.331-4.843-28.872-8.56
	c-3.366-1.311-6.712-2.726-10.047-4.244c-9.634-4.399-19.104-9.655-28.284-15.727c-2.85-1.859-5.659-3.81-8.447-5.845
	c-8.292-6.031-16.315-12.732-23.967-20.064c-1.322-1.249-2.633-2.53-3.934-3.831c-1.084-1.084-2.169-2.189-3.232-3.294
	c-7.342-7.621-14.075-15.624-20.136-23.895c-2.045-2.767-3.996-5.566-5.886-8.395c0-0.01,0-0.01,0-0.01
	c-6.092-9.149-11.38-18.577-15.82-28.191c-1.539-3.315-2.964-6.65-4.296-9.996c-3.883-9.831-6.877-19.795-8.912-29.781
	c-0.114-0.516-0.217-1.043-0.31-1.559c-0.072-0.351-0.145-0.713-0.196-1.064c-0.31-1.632-0.599-3.263-0.847-4.895
	c-0.341-2.158-0.62-4.306-0.857-6.433c-0.114-0.95-0.207-1.9-0.289-2.84c-1.363-14.725-0.403-28.604,2.798-41.233
	c0.94-3.748,2.076-7.373,3.408-10.884c3.893-10.254,9.418-19.506,16.522-27.499c1.115-1.26,2.261-2.478,3.459-3.676
	c1.198-1.198,2.416-2.344,3.676-3.47c7.993-7.094,17.245-12.629,27.509-16.522c3.511-1.332,7.146-2.468,10.884-3.408
	c12.629-3.201,26.487-4.161,41.212-2.809c0.95,0.083,1.9,0.186,2.86,0.299c2.127,0.238,4.275,0.516,6.433,0.857
	c1.632,0.258,3.263,0.537,4.895,0.847c0.351,0.052,0.702,0.124,1.053,0.196c0.516,0.093,1.043,0.196,1.559,0.31
	c9.985,2.024,19.95,5.019,29.781,8.922c3.346,1.322,6.691,2.747,10.006,4.285c9.603,4.44,19.042,9.738,28.191,15.83
	c2.829,1.879,5.638,3.841,8.406,5.886c8.271,6.062,16.264,12.794,23.885,20.136c1.105,1.053,2.21,2.138,3.294,3.222
	c1.301,1.301,2.582,2.613,3.841,3.934c7.311,7.652,14.013,15.665,20.054,23.967c2.024,2.788,3.976,5.607,5.845,8.447
	c6.072,9.18,11.328,18.649,15.727,28.294c1.528,3.325,2.943,6.681,4.244,10.047c3.728,9.531,6.599,19.196,8.571,28.872
	c0.186,0.878,0.351,1.745,0.506,2.623c0.31,1.632,0.599,3.263,0.847,4.895c0.392,2.551,0.723,5.07,0.981,7.569
	c0.062,0.568,0.124,1.136,0.165,1.704c1.363,14.725,0.403,28.593-2.798,41.222c-0.929,3.748-2.076,7.373-3.408,10.884
	C308.428,271.396,302.893,280.648,295.789,288.641z"/>
<path style="fill:#78CAEF;" d="M454.235,419.918c-4.626,5.607-9.49,11.018-14.581,16.202l-13.971-13.971
	c-3.511-3.511-3.511-9.211,0-12.732l2.654-2.654c3.408-3.408,8.87-3.521,12.412-0.32c0.114,0.103,0.217,0.207,0.33,0.32
	L454.235,419.918z"/>
<path style="fill:#EDBB4C;" d="M342.67,96.114c-0.299,1.633-0.656,3.243-1.069,4.824c-6.498,24.876-26.787,43.037-50.986,47.67
	c-3.202,0.62-6.478,0.996-9.799,1.12c-4.695,0.181-9.478-0.15-14.293-1.033c-10.124-1.855-19.277-5.945-27.035-11.674
	c-2.185-1.607-4.262-3.352-6.213-5.212c-15.48-14.706-23.465-36.689-19.334-59.261c1.483-8.094,4.396-15.563,8.429-22.2
	c2.319-3.817,5.005-7.355,8.011-10.578c10.831-11.633,25.733-19.138,41.937-20.614c5.8-0.532,11.762-0.289,17.768,0.811
	c18.341,3.357,33.486,14.06,42.954,28.518c2.619,3.993,4.804,8.269,6.493,12.763C343.611,72.007,344.891,83.976,342.67,96.114z"/>
<path style="fill:#FFD15C;" d="M342.67,96.114c-0.299,1.633-0.656,3.243-1.069,4.824c-8.243,14.695-22.65,25.036-39.132,28.192
	c-2.799,0.537-5.661,0.867-8.564,0.976c-4.102,0.16-8.28-0.129-12.49-0.904c-8.849-1.617-16.844-5.191-23.626-10.201
	c-1.906-1.4-3.724-2.929-5.428-4.551c-13.527-12.851-20.506-32.066-16.896-51.792c1.297-7.071,3.843-13.6,7.366-19.401
	c2.03-3.331,4.375-6.426,7.004-9.241c6.198-6.653,13.916-11.767,22.484-14.86c5.8-0.532,11.762-0.289,17.768,0.811
	c18.341,3.357,33.486,14.06,42.954,28.518c2.619,3.993,4.804,8.269,6.493,12.763C343.611,72.007,344.891,83.976,342.67,96.114z"/>
<g>
	<path style="fill:#F9EED7;" d="M245.444,109.776c-0.47,9.071-2.299,17.877-5.434,26.182c-0.057,0.145-0.119,0.289-0.191,0.429
		l-0.33,0.635c-2.185-1.607-4.262-3.352-6.213-5.212c2.541-7.139,4.029-14.68,4.432-22.433c0.485-9.293-3.083-17.737-6.86-26.679
		c-3.931-9.329-8.326-19.721-8.476-32.35c2.319-3.817,5.005-7.355,8.011-10.578v4.546c0,0.134-0.005,0.263-0.015,0.392
		c-1.39,13.631,3.192,24.484,7.619,34.974C241.938,89.038,246.017,98.712,245.444,109.776z"/>
	<path style="fill:#F9EED7;" d="M339.535,61.249c-1.002,2.593-2.655,5.17-4.881,7.546c-4.38,4.67-10.583,8.269-17.928,10.413
		c-25.088,7.319-38.13,21.906-38.761,43.362c-0.274,9.256,5.201,19.2,10.49,23.854c0.072,0.062,0.145,0.129,0.212,0.196l1.948,1.989
		c-3.202,0.62-6.478,0.996-9.799,1.12c-5.821-6.493-10.898-17.102-10.599-27.386c0.511-17.319,8.616-40.155,44.339-50.573
		c13.135-3.827,18.703-12.133,18.336-16.545c-0.01-0.103-0.016-0.212-0.016-0.32v-0.108l0.165-6.312
		C335.661,52.478,337.846,56.755,339.535,61.249z"/>
</g>
<g>
	<circle style="fill:#FFDC8D;" cx="307.237" cy="49.617" r="13.171"/>
	<circle style="fill:#FFDC8D;" cx="283.001" cy="37.095" r="7.102"/>
</g>
<g>
</g>
<g>
</g>
<g>
</g>
<g>
</g>
<g>
</g>
<g>
</g>
<g>
</g>
<g>
</g>
<g>
</g>
<g>
</g>
<g>
</g>
<g>
</g>
<g>
</g>
<g>
</g>
<g>
</g>
</svg>
