<svg height="512pt" viewBox="-26 0 512 512.00032" width="512pt" xmlns="http://www.w3.org/2000/svg"><path d="m460.972656 369.472656c0-29.847656-103.191406-54.046875-230.484375-54.046875-127.296875 0-230.488281 24.199219-230.488281 54.046875s103.191406 54.046875 230.488281 54.046875c127.292969 0 230.484375-24.199219 230.484375-54.046875zm0 0" fill="#abe0da"/><path d="m31.222656 488.421875c-5.492187 0-9.945312-4.453125-9.945312-9.945313v-132.582031h19.890625v132.582031c0 5.492188-4.453125 9.945313-9.945313 9.945313zm0 0" fill="#38aaff"/><path d="m230.679688 512h-.386719c-5.492188 0-9.945313-4.453125-9.945313-9.945312v-132.582032h20.277344v132.582032c0 5.492187-4.453125 9.945312-9.945312 9.945312zm0 0" fill="#38aaff"/><path d="m429.753906 488.421875c-5.496094 0-9.949218-4.453125-9.949218-9.945313v-132.582031h19.894531v132.582031c0 5.492188-4.453125 9.945313-9.945313 9.945313zm0 0" fill="#38aaff"/><path d="m460.972656 340.175781c0-29.847656-103.191406-54.046875-230.484375-54.046875-127.296875 0-230.488281 24.199219-230.488281 54.046875 0 29.847657 103.191406 54.046875 230.488281 54.046875 127.292969 0 230.484375-24.199218 230.484375-54.046875zm0 0" fill="#ffdf49"/><path d="m460.96875 340.175781c0 2.492188-.71875 4.957031-2.121094 7.355469-15.289062-26.363281-111.703125-46.6875-228.359375-46.6875s-213.074219 20.324219-228.359375 46.6875c-1.402344-2.398438-2.12499975-4.859375-2.12499975-7.355469 0-29.84375 103.18359375-54.042969 230.48437475-54.042969 127.296875 0 230.480469 24.199219 230.480469 54.042969zm0 0" fill="#ffbd47"/><path d="m398.671875 340.175781c0-15.203125-75.300781-27.53125-168.183594-27.53125-92.886719 0-168.183593 12.328125-168.183593 27.53125s75.296874 27.527344 168.183593 27.527344c92.882813 0 168.183594-12.324219 168.183594-27.527344zm0 0" fill="#4c78a0"/><g fill="#d0f4ef"><path d="m125.054688 466.460938c-.375 0-.753907-.027344-1.132813-.085938-4.222656-.621094-7.144531-4.542969-6.523437-8.765625l1.652343-11.226563c.621094-4.222656 4.550781-7.144531 8.769531-6.519531 4.222657.621094 7.140626 4.546875 6.519532 8.769531l-1.652344 11.222657c-.5625 3.839843-3.863281 6.605469-7.632812 6.605469zm0 0"/><path d="m158.445312 464.871094c-3.070312 0-5.980468-1.847656-7.183593-4.878906l-4.179688-10.546876c-1.574219-3.96875.367188-8.460937 4.332031-10.03125 3.96875-1.574218 8.460938.367188 10.03125 4.335938l4.183594 10.546875c1.570313 3.964844-.367187 8.457031-4.335937 10.027344-.933594.371093-1.898438.546875-2.847657.546875zm0 0"/><path d="m93.511719 455.316406c-1.679688 0-3.371094-.542968-4.792969-1.667968-3.34375-2.648438-3.910156-7.507813-1.261719-10.851563l7.042969-8.898437c2.652344-3.34375 7.511719-3.90625 10.855469-1.261719 3.34375 2.652343 3.910156 7.507812 1.261719 10.855469l-7.042969 8.894531c-1.527344 1.925781-3.78125 2.929687-6.0625 2.929687zm0 0"/><path d="m325.574219 466.460938c-3.769531 0-7.066407-2.761719-7.632813-6.605469l-1.652344-11.222657c-.621093-4.222656 2.296876-8.148437 6.519532-8.769531 4.222656-.628906 8.144531 2.296875 8.765625 6.519531l1.652343 11.222657c.625 4.222656-2.296874 8.148437-6.515624 8.769531-.382813.058594-.761719.085938-1.136719.085938zm0 0"/><path d="m292.179688 464.871094c-.945313 0-1.910157-.175782-2.84375-.546875-3.96875-1.570313-5.90625-6.0625-4.335938-10.027344l4.183594-10.546875c1.574218-3.96875 6.0625-5.910156 10.03125-4.335938 3.964844 1.570313 5.90625 6.0625 4.332031 10.03125l-4.183594 10.546876c-1.199219 3.03125-4.105469 4.878906-7.183593 4.878906zm0 0"/><path d="m357.117188 455.316406c-2.28125 0-4.539063-1.003906-6.0625-2.929687l-7.042969-8.894531c-2.648438-3.347657-2.085938-8.207032 1.261719-10.855469 3.347656-2.644531 8.207031-2.082031 10.855468 1.261719l7.039063 8.898437c2.648437 3.34375 2.085937 8.203125-1.261719 10.851563-1.417969 1.125-3.109375 1.667968-4.789062 1.667968zm0 0"/></g><path d="m107.105469 196.402344h-45.957031c-8.675782 0-12.679688-10.785156-6.105469-16.445313 11.894531-10.242187 27.074219-15.875 42.769531-15.875h9.296875c4.710937 0 8.53125 3.816407 8.53125 8.53125v15.253907c0 4.714843-3.820313 8.535156-8.535156 8.535156zm0 0" fill="#628fb1"/><path d="m118.917969 108.984375h-45.957031c-8.675782 0-12.679688-10.785156-6.105469-16.445313 11.894531-10.242187 27.074219-15.875 42.769531-15.875h9.296875c4.710937 0 8.53125 3.816407 8.53125 8.53125v15.253907c-.003906 4.714843-3.820313 8.535156-8.535156 8.535156zm0 0" fill="#4c78a0"/><path d="m243.484375 130.007812c-4.039063 0-8.046875-1.714843-10.855469-5.042968l-45.554687-54.035156-65.570313 17.804687c-7.558594 2.054687-15.355468-2.410156-17.410156-9.972656-2.050781-7.5625 2.414062-15.355469 9.976562-17.410157l74.300782-20.175781c5.324218-1.449219 11.007812.324219 14.566406 4.546875l51.386719 60.953125c5.050781 5.988281 4.289062 14.941407-1.703125 19.992188-2.660156 2.242187-5.910156 3.339843-9.136719 3.339843zm0 0" fill="#bfa394"/><path d="m103.730469 173.441406c-3.886719 0-7.757813-1.589844-10.558594-4.710937-5.234375-5.832031-4.75-14.800781 1.078125-20.035157 24.917969-22.367187 57.207031-34.539062 93.375-35.191406 26.984375-.484375 46.824219 5.609375 47.65625 5.867188 7.476562 2.339844 11.644531 10.296875 9.308594 17.773437-2.335938 7.46875-10.273438 11.632813-17.738282 9.320313-.167968-.050782-17.019531-5.132813-39.621093-4.574219-29.285157.71875-54.1875 10.113281-74.027344 27.921875-2.707031 2.429688-6.097656 3.628906-9.472656 3.628906zm0 0" fill="#d6bcab"/><path d="m259.261719 46.085938c18.839843 35.660156 48.539062 58.140624 71.707031 71.234374l14.402344-20.390624c-20.402344-11.21875-47.675782-31-64.257813-62.386719-2.5625-4.851563-7.890625-7.292969-13.019531-6.410157-1.25.214844-2.492188.628907-3.679688 1.253907-6.03125 3.191406-8.339843 10.664062-5.152343 16.699219zm0 0" fill="#2081f6"/><path d="m377.207031 123.964844s-.914062 22.019531-9.238281 40.375c-9.136719 20.136718-30.011719 46.152344-77.648438 55.765625-.820312.160156-1.652343.242187-2.464843.242187-6.023438 0-11.375-4.421875-12.226563-10.714844-.871094-6.46875 3.648438-12.492187 10.039063-13.800781 28.742187-5.851562 48.457031-19.074219 58.636719-39.289062-.09375.050781-.195313.097656-.285157.148437-2.535156 1.390625-5.179687 2.738282-7.9375 4.027344-16.925781 7.859375-34.667969 11.84375-52.796875 11.84375-1.390625 0-2.789062-.03125-4.1875-.070312-21.761718-.742188-43.601562-7.199219-64.984375-19.214844-3.144531-1.773438-4.167969-5.832032-2.28125-8.914063l5.726563-9.390625 22.574218-36.957031c1.773438-2.910156 5.515626-3.914063 8.515626-2.292969 21.171874 11.449219 40.578124 12.796875 59.152343 4.167969 6.175781-2.867187 11.335938-6.417969 15.261719-9.582031 5.535156-4.449219 13.433594-4.429688 19.042969-.058594l29.28125 22.824219c3.558593 2.789062 5.515625 6.773437 5.820312 10.890625zm0 0" fill="#38aaff"/><path d="m344.304688 156.542969c-2.535157 1.386719-5.464844 2.886719-8.222657 4.175781-16.925781 7.859375-34.667969 11.84375-52.796875 11.84375-1.390625 0-2.789062-.03125-4.1875-.070312-21.761718-.742188-43.601562-7.199219-64.984375-19.214844-3.144531-1.773438-4.167969-5.832032-2.28125-8.914063l5.726563-9.390625c20.636718 12.796875 68.269531 33.554688 130.902344 5.101563 0 0 .78125 7.929687-4.15625 16.46875zm0 0" fill="#2081f6"/><path d="m344.300781 156.546875c-.09375.039063-.195312.09375-.277343.144531-2.535157 1.390625-5.183594 2.738282-7.941407 4.027344-1.558593.71875-3.132812 1.410156-4.699219 2.070312-3.007812-2.328124-3.90625-6.582031-1.949218-9.960937 3.617187-6.265625 3.421875-12.289063 3.410156-12.351563-.257812-4.265624 2.988281-7.890624 7.242188-8.148437 4.246093-.269531 8.109374 3.488281 8.375 7.746094.0625 1.0625.835937 8.292969-4.160157 16.472656zm0 0" fill="#2081f6"/><path d="m272.925781 223.261719h-13.78125c-3.433593 0-6.542969-2.007813-7.957031-5.136719l-4.476562-9.929688c-2.605469-5.773437 1.621093-12.3125 7.953124-12.3125h18.261719c7.5625 0 13.691407 6.128907 13.691407 13.691407 0 7.558593-6.128907 13.6875-13.691407 13.6875zm0 0" fill="#fecaa8"/><path d="m256.125 28.285156-.988281-13.75c-.246094-3.421875 1.539062-6.667968 4.554687-8.300781l9.585938-5.175781c5.570312-3.011719 12.394531.734375 12.847656 7.050781l1.308594 18.214844c.539062 7.542969-5.132813 14.09375-12.675782 14.636719-7.539062.539062-14.09375-5.132813-14.632812-12.675782zm0 0" fill="#ffb38c"/><path d="m382.570312 79.492188c0 7.878906-2.972656 15.058593-7.871093 20.480468-5.59375 6.207032-13.695313 10.101563-22.710938 10.101563-16.890625 0-30.582031-13.6875-30.582031-30.582031 0-9.125 3.996094-17.308594 10.324219-22.90625 5.394531-4.785157 12.492187-7.675782 20.257812-7.675782 16.894531 0 30.582031 13.6875 30.582031 30.582032zm0 0" fill="#fecaa8"/><path d="m382.570312 79.492188c0 7.878906-2.972656 15.058593-7.871093 20.480468-3.414063-1.125-6.558594-3.019531-9.214844-5.59375l-24.101563-23.394531c-4.257812-4.136719-7.523437-9.03125-9.652343-14.398437 5.394531-4.785157 12.492187-7.675782 20.257812-7.675782 16.894531 0 30.582031 13.6875 30.582031 30.582032zm0 0" fill="#ffb38c"/><path d="m349.859375 62.257812 24.097656 23.386719c4.746094 4.609375 12.328125 4.496094 16.933594-.25l8.324219-8.578125c6.753906-6.957031 6.589844-18.070312-.371094-24.824218l-37.515625-36.414063c-1.984375-1.921875-5.148437-1.875-7.070313.105469l-5.019531 5.167968c-11.261719 11.605469-10.984375 30.144532.621094 41.40625zm0 0" fill="#ffdf49"/><path d="m172.691406 230.988281c-4.265625 0-7.726562-3.457031-7.726562-7.726562v-88.285157c0-4.269531 3.460937-7.726562 7.726562-7.726562 4.269532 0 7.726563 3.457031 7.726563 7.726562v88.285157c0 4.269531-3.457031 7.726562-7.726563 7.726562zm0 0" fill="#d0f4ef"/><path d="m198.21875 204.128906c-4.269531 0-7.726562-3.460937-7.726562-7.726562v-17.28125c0-4.269532 3.457031-7.726563 7.726562-7.726563 4.265625 0 7.722656 3.457031 7.722656 7.726563v17.28125c.003906 4.265625-3.457031 7.726562-7.722656 7.726562zm0 0" fill="#d0f4ef"/><path d="m361.289062 249.195312c-4.269531 0-7.726562-3.457031-7.726562-7.726562v-77.128906c0-4.269532 3.457031-7.726563 7.726562-7.726563 4.265626 0 7.722657 3.460938 7.722657 7.726563v77.128906c0 4.269531-3.457031 7.726562-7.722657 7.726562zm0 0" fill="#d0f4ef"/><path d="m382.570312 219.910156c-4.269531 0-7.726562-3.457031-7.726562-7.726562v-18.558594c0-4.269531 3.457031-7.726562 7.726562-7.726562 4.265626 0 7.726563 3.457031 7.726563 7.726562v18.558594c0 4.269531-3.460937 7.726562-7.726563 7.726562zm0 0" fill="#d0f4ef"/><path d="m83.707031 240.070312c-4.269531 0-7.726562-3.460937-7.726562-7.726562v-11.996094c0-4.265625 3.460937-7.722656 7.726562-7.722656s7.726563 3.457031 7.726563 7.722656v11.996094c0 4.269531-3.457032 7.726562-7.726563 7.726562zm0 0" fill="#d0f4ef"/><path d="m105.714844 259.523438c-4.265625 0-7.726563-3.460938-7.726563-7.726563v-31.449219c0-4.265625 3.460938-7.722656 7.726563-7.722656 4.269531 0 7.726562 3.457031 7.726562 7.722656v31.449219c0 4.265625-3.457031 7.726563-7.726562 7.726563zm0 0" fill="#d0f4ef"/></svg>