<?xml version="1.0" encoding="iso-8859-1"?>
<!-- Generator: Adobe Illustrator 16.0.0, SVG Export Plug-In . SVG Version: 6.00 Build 0)  -->
<!DOCTYPE svg PUBLIC "-//W3C//DTD SVG 1.1//EN" "http://www.w3.org/Graphics/SVG/1.1/DTD/svg11.dtd">
<svg version="1.1" id="Capa_1" xmlns="http://www.w3.org/2000/svg" xmlns:xlink="http://www.w3.org/1999/xlink" x="0px" y="0px"
	 width="581.161px" height="581.162px" viewBox="0 0 581.161 581.162" style="enable-background:new 0 0 581.161 581.162;"
	 xml:space="preserve">
<g>
	<g>
		<path d="M135.194,199.637H47.143C21.152,199.637,0,220.779,0,246.78v88.042c0,26,21.152,47.143,47.143,47.143h88.051
			c25.991,0,47.134-21.143,47.134-47.143V246.78C182.328,220.779,161.186,199.637,135.194,199.637z M25.35,303.562
			c9.553-3.203,19.326-6.359,27.645-8.989c-0.096-0.994-0.076-1.979,0.134-3.012l8.377-39.378c0.947-4.399,4.657-7.641,9.123-7.946
			l52.632-3.806c5.584-0.354,10.366,3.777,10.777,9.324c0.392,5.537-3.768,10.366-9.324,10.758l-45.087,3.27l-5.145,24.193
			c0.325,0.277,2.4,2.123,3.548,3.041c0.937,0.755,1.875,1.529,2.754,2.333c-5.23,5.575-8.463,13.053-8.463,21.296
			c0,2.62,0.335,5.154,0.957,7.602l-13.866,8.75c-0.163,0.086-1.932,0.086-2.151-0.028l-17.767-11.532
			c-3.873-2.525-9.372-3.127-14.143-1.979V303.562z M129.849,314.635c0,2.037-0.249,4.017-0.688,5.919l-16.094,10.442
			c0,0-0.22,0.058-0.555,0.058c-0.411,0-0.708-0.105-0.803-0.153l-14.306-10.776c-5.269-3.959-13.722-4.322-19.316-0.804
			l-0.564,0.345c-0.306-1.626-0.488-3.318-0.488-5.03c0-14.583,11.819-26.412,26.402-26.412
			C118.03,288.223,129.849,300.042,129.849,314.635z M153.956,345.713l-12.383-10.327c-1.09-0.918-3.328-1.053-4.523-0.277
			l-17.796,11.542c-4.609,2.983-11.379,2.754-15.75-0.555l-14.363-10.815c-1.214-0.908-3.729-1.023-5.001-0.211l-18.494,11.686
			c-4.504,2.831-11.265,2.783-15.721-0.104L32.13,335.109c-1.358-0.861-4.045-0.861-5.374,0.019l-1.31,0.86
			c-0.019-0.382-0.115-0.765-0.115-1.156v-9.276c3.978-1.08,8.587-0.563,11.934,1.616l17.795,11.552
			c1.368,0.89,4.15,0.898,5.527,0.028l18.494-11.685c4.619-2.907,11.379-2.62,15.75,0.649l14.363,10.835
			c1.176,0.88,3.644,0.976,4.896,0.162l17.796-11.532c4.676-3.031,11.446-2.64,15.73,0.938l9.256,7.727
			C156.72,339.421,155.677,342.768,153.956,345.713z"/>
		<path d="M337.374,199.637h-88.051c-25.991,0-47.143,21.143-47.143,47.143v88.042c0,26,21.152,47.143,47.143,47.143h88.051
			c25.991,0,47.134-21.143,47.134-47.143V246.78C384.508,220.779,363.365,199.637,337.374,199.637z M266.507,356.625h-17.184
			c-12.02,0-21.793-9.783-21.793-21.803V283.93c25.197,2.639,44.906,23.657,44.906,49.543
			C272.436,341.878,270.169,349.682,266.507,356.625z M359.167,334.822c0,12.02-9.772,21.803-21.793,21.803H321.94
			c-3.662-6.952-5.929-14.746-5.929-23.161c0-25.302,18.829-45.957,43.165-49.352v50.71H359.167z M359.167,261.85
			c-1.357,1.062-3.127,1.827-5.536,1.827h-35.468c-2.677,0.048-5.556-1.272-7.649-4.581l-11.915-18.676l-24.624,24.366l22.826,12.01
			c9.371,4.523,7.966,12.737,7.966,12.737v51.676c0,5.861-4.733,10.634-10.586,10.634c-5.862,0-10.586-4.791-10.586-10.634v-41.349
			l-39.541-21.994c-4.724-2.61-7.937-7.707-7.937-13.425c0-3.959,1.454-7.574,3.959-10.29l29.118-29.175h38.231l15.577,24.413
			l30.629-0.076c2.409,0,4.188,0.765,5.536,1.836V261.85L359.167,261.85z"/>
		<path d="M534.027,199.197h-88.052c-26,0-47.134,21.143-47.134,47.143v88.042c0,26.001,21.134,47.144,47.134,47.144h88.052
			c25.99,0,47.134-21.143,47.134-47.144V246.34C581.161,220.339,560.018,199.197,534.027,199.197z M445.976,356.184
			c-12.02,0-21.793-9.782-21.793-21.803v-9.763c5.709-3.901,13.292-7.631,23.189-11.141c1.759-0.621,3.49-0.621,5.077-0.21
			c-0.573-9.506,0.115-15.816,0.201-16.543c0.268-2.343,2.381-3.979,4.743-3.759c2.333,0.268,4.016,2.391,3.758,4.743
			c-0.038,0.373-3.012,29.242,11.332,58.475H445.976z M555.83,256.648c-5.948,5.278-12.011,11.609-15.778,18.178
			c0.134,0.43,0.2,0.879,0.2,1.319c0.01,1.416-0.669,2.707-1.922,3.625c-6.34,4.638-21.143,15.482-23.982,34.597
			c-2.295,15.529-1.798,31.346-0.994,41.807h-31.614c-6.034-11.542-11.293-26.411-11.111-43.385
			c0.048-3.375,1.788-8.014,2.142-8.912c1.473-3.796,2.793-9.343,0.622-14.076c-3.404-7.497-7.946-48.042-9.726-65.14
			c0-0.038,0.01-0.105,0-0.144h52.164c-0.632,0.794-1.329,1.587-2.047,2.391c-3.442,3.911-7.019,7.928-6.895,13.818
			c0.211,8.836,5.192,18.972,9.716,22.94c1.233,1.052,2.591,0.182,2.907-0.163c1.902-2.018,5.737-1.855,8.328,0.306
			c1.731,1.454,3.911,3.213,5.986,4.858c5.671-8.922,14.516-17.146,21.917-23.132c0.01,0.268,0.087,0.517,0.087,0.774V256.648
			L555.83,256.648z"/>
		<polygon points="482.266,265.847 483.547,273.22 508.323,276.596 506.009,268.688 		"/>
		<polygon points="485.096,285.04 486.167,292.393 506.277,295.664 504.346,287.774 		"/>
		<polygon points="497.145,248.616 479.081,245.9 480.114,253.263 498.98,256.495 		"/>
	</g>
</g>
<g>
</g>
<g>
</g>
<g>
</g>
<g>
</g>
<g>
</g>
<g>
</g>
<g>
</g>
<g>
</g>
<g>
</g>
<g>
</g>
<g>
</g>
<g>
</g>
<g>
</g>
<g>
</g>
<g>
</g>
</svg>
