<svg id="icons" enable-background="new 0 0 64 64" height="512" viewBox="0 0 64 64" width="512" xmlns="http://www.w3.org/2000/svg"><g><g><g><path d="m46.167 30.926c2.89-5.648.87-12.629-4.69-15.83-5.739-3.318-13.08-1.35-16.399 4.391l-.011.01c-.68-1.17-1.069-2.539-1.069-4 0-4.25 3.319-7.73 7.51-7.98.03-.01.05-.01.08-.01.14-.01.27-.01.41-.01h.01c8.84 0 16 7.16 16 16 0 2.711-.68 5.27-1.88 7.51.009-.021.018-.05.039-.081z" fill="#f6bb42"/></g><g><path d="m40.007 33.486-2 2-1.24-1.24c3.971-3.73 5.01-9.83 2.17-14.75v-.01c1.36 0 2.74.34 4 1.07 3.65 2.1 5.011 6.641 3.23 10.369-.021.031-.03.061-.04.08-.08.16-.17.32-.26.48-.46.811-1 1.561-1.591 2.27l-.27-.27-2 2z" fill="#ffce54"/></g><g><path d="m41.477 15.096c5.561 3.201 7.58 10.182 4.69 15.83 1.78-3.729.42-8.27-3.23-10.369-1.26-.73-2.64-1.07-4-1.07-2.76 0-5.449 1.43-6.93 4v.01h-.01c-2.96 0-5.55-1.609-6.931-4l.011-.01c3.319-5.741 10.66-7.71 16.4-4.391z" fill="#e6e9ed"/></g><g><path d="m29.077 34.426c-.021.021-.051.031-.08.051l-.99-.99-2 2-2-2-2 2-2-2-.11.109c-.51-.439-.97-.939-1.37-1.51.381.59.801 1.131 1.261 1.621l-.05.049c-2.33-2.779-3.73-6.35-3.73-10.26 0-8.629 6.82-15.66 15.37-15.98-6.33.32-11.38 5.561-11.38 11.98 0 6.621 5.38 12 12 12-.671 1.18-1.661 2.201-2.921 2.93z" fill="#e6e9ed"/></g><g><path d="m32.007 23.496c1.48 2.57 1.38 5.611-.01 8-6.62 0-12-5.379-12-12 0-6.42 5.05-11.66 11.38-11.98.05-.01.09-.01.13 0-4.19.25-7.51 3.73-7.51 7.98 0 1.461.39 2.83 1.069 4 1.381 2.391 3.971 4 6.931 4z" fill="#ffce54"/></g><g><path d="m32.007 33.486-2 2-1.01-1.01c.029-.02.06-.029.08-.051 1.26-.729 2.25-1.75 2.92-2.93 1.39-2.389 1.49-5.43.01-8v-.01c1.48-2.57 4.17-4 6.93-4v.01c2.84 4.92 1.801 11.02-2.17 14.75l-.76-.76-2 2z" fill="#f5f7fa"/></g><g><path d="m63 56.504h-62v-22.02l1 1 2-2 2 2 2-2 2 2 2-2 2 2 2-2 2 2 2-2 2 2 2-2 2 2 2-2 2 2 2-2 2 2 2-2 2 2 2-2 2 2 2-2 2 2 2-2 2 2 2-2 2 2 2-2 2 2 2-2 2 2 1-1z" fill="#4a89dc"/></g></g><g><g><g><g><path d="m62 36.507c-.256 0-.512-.098-.707-.293-.391-.391-.391-1.023 0-1.414l1-1c.391-.391 1.023-.391 1.414 0s.391 1.023 0 1.414l-1 1c-.195.195-.451.293-.707.293z" fill="#5d9cec"/></g><g><path d="m62 36.507c-.256 0-.512-.098-.707-.293l-2-2.001c-.391-.391-.391-1.023 0-1.414s1.023-.391 1.414 0l2 2.001c.391.391.391 1.023 0 1.414-.195.195-.451.293-.707.293z" fill="#5d9cec"/></g><g><path d="m58 36.507c-.256 0-.512-.098-.707-.293-.391-.391-.391-1.023 0-1.414l2-2.001c.391-.391 1.023-.391 1.414 0s.391 1.023 0 1.414l-2 2.001c-.195.195-.451.293-.707.293z" fill="#5d9cec"/></g><g><path d="m58 36.507c-.256 0-.512-.098-.707-.293l-2-2.001c-.391-.391-.391-1.023 0-1.414s1.023-.391 1.414 0l2 2.001c.391.391.391 1.023 0 1.414-.195.195-.451.293-.707.293z" fill="#5d9cec"/></g><g><path d="m54 36.507c-.256 0-.512-.098-.707-.293-.391-.391-.391-1.023 0-1.414l2-2.001c.391-.391 1.023-.391 1.414 0s.391 1.023 0 1.414l-2 2.001c-.195.195-.451.293-.707.293z" fill="#5d9cec"/></g><g><path d="m54 36.507c-.256 0-.512-.098-.707-.293l-2-2.001c-.391-.391-.391-1.023 0-1.414s1.023-.391 1.414 0l2 2.001c.391.391.391 1.023 0 1.414-.195.195-.451.293-.707.293z" fill="#5d9cec"/></g><g><path d="m50 36.507c-.256 0-.512-.098-.707-.293l-2-2.001c-.391-.391-.391-1.023 0-1.414s1.023-.391 1.414 0l2 2.001c.391.391.391 1.023 0 1.414-.195.195-.451.293-.707.293z" fill="#5d9cec"/></g><g><path d="m46 36.507c-.256 0-.512-.098-.707-.293-.391-.391-.391-1.023 0-1.414l2-2.001c.391-.391 1.023-.391 1.414 0s.391 1.023 0 1.414l-2 2.001c-.195.195-.451.293-.707.293z" fill="#5d9cec"/></g><g><path d="m50.016 36.507c-.256 0-.512-.098-.707-.293-.391-.391-.391-1.023 0-1.414l2-2.001c.391-.391 1.023-.391 1.414 0s.391 1.023 0 1.414l-2 2.001c-.196.195-.452.293-.707.293z" fill="#5d9cec"/></g><g><path d="m46 36.507c-.256 0-.512-.098-.707-.293l-2-2.001c-.391-.391-.391-1.023 0-1.414s1.023-.391 1.414 0l2 2.001c.391.391.391 1.023 0 1.414-.195.195-.451.293-.707.293z" fill="#5d9cec"/></g><g><path d="m42 36.507c-.256 0-.512-.098-.707-.293-.391-.391-.391-1.023 0-1.414l2-2.001c.391-.391 1.023-.391 1.414 0s.391 1.023 0 1.414l-2 2.001c-.195.195-.451.293-.707.293z" fill="#5d9cec"/></g><g><path d="m42 36.507c-.256 0-.512-.098-.707-.293l-2-2.001c-.391-.391-.391-1.023 0-1.414s1.023-.391 1.414 0l2 2.001c.391.391.391 1.023 0 1.414-.195.195-.451.293-.707.293z" fill="#5d9cec"/></g><g><path d="m38 36.507c-.256 0-.512-.098-.707-.293-.391-.391-.391-1.023 0-1.414l2-2.001c.391-.391 1.023-.391 1.414 0s.391 1.023 0 1.414l-2 2.001c-.195.195-.451.293-.707.293z" fill="#5d9cec"/></g><g><path d="m38 36.507c-.256 0-.512-.098-.707-.293l-2-2.001c-.391-.391-.391-1.023 0-1.414s1.023-.391 1.414 0l2 2.001c.391.391.391 1.023 0 1.414-.195.195-.451.293-.707.293z" fill="#5d9cec"/></g><g><path d="m34 36.507c-.256 0-.512-.098-.707-.293-.391-.391-.391-1.023 0-1.414l2-2.001c.391-.391 1.023-.391 1.414 0s.391 1.023 0 1.414l-2 2.001c-.195.195-.451.293-.707.293z" fill="#5d9cec"/></g><g><path d="m34 36.507c-.256 0-.512-.098-.707-.293l-2-2.001c-.391-.391-.391-1.023 0-1.414s1.023-.391 1.414 0l2 2.001c.391.391.391 1.023 0 1.414-.195.195-.451.293-.707.293z" fill="#5d9cec"/></g><g><path d="m30 36.507c-.256 0-.512-.098-.707-.293-.391-.391-.391-1.023 0-1.414l2-2.001c.391-.391 1.023-.391 1.414 0s.391 1.023 0 1.414l-2 2.001c-.195.195-.451.293-.707.293z" fill="#5d9cec"/></g><g><path d="m30 36.507c-.256 0-.512-.098-.707-.293l-2-2.001c-.391-.391-.391-1.023 0-1.414s1.023-.391 1.414 0l2 2.001c.391.391.391 1.023 0 1.414-.195.195-.451.293-.707.293z" fill="#5d9cec"/></g><g><path d="m26 36.507c-.256 0-.512-.098-.707-.293-.391-.391-.391-1.023 0-1.414l2-2.001c.391-.391 1.023-.391 1.414 0s.391 1.023 0 1.414l-2 2.001c-.195.195-.451.293-.707.293z" fill="#5d9cec"/></g><g><path d="m26 36.507c-.256 0-.512-.098-.707-.293l-2-2.001c-.391-.391-.391-1.023 0-1.414s1.023-.391 1.414 0l2 2.001c.391.391.391 1.023 0 1.414-.195.195-.451.293-.707.293z" fill="#5d9cec"/></g><g><path d="m22 36.507c-.256 0-.512-.098-.707-.293-.391-.391-.391-1.023 0-1.414l2-2.001c.391-.391 1.023-.391 1.414 0s.391 1.023 0 1.414l-2 2.001c-.195.195-.451.293-.707.293z" fill="#5d9cec"/></g><g><path d="m22 36.507c-.256 0-.512-.098-.707-.293l-2-2.001c-.391-.391-.391-1.023 0-1.414s1.023-.391 1.414 0l2 2.001c.391.391.391 1.023 0 1.414-.195.195-.451.293-.707.293z" fill="#5d9cec"/></g><g><path d="m18 36.507c-.256 0-.512-.098-.707-.293-.391-.391-.391-1.023 0-1.414l2-2.001c.391-.391 1.023-.391 1.414 0s.391 1.023 0 1.414l-2 2.001c-.195.195-.451.293-.707.293z" fill="#5d9cec"/></g><g><path d="m18 36.507c-.256 0-.512-.098-.707-.293l-2-2.001c-.391-.391-.391-1.023 0-1.414s1.023-.391 1.414 0l2 2.001c.391.391.391 1.023 0 1.414-.195.195-.451.293-.707.293z" fill="#5d9cec"/></g><g><path d="m14 36.507c-.256 0-.512-.098-.707-.293-.391-.391-.391-1.023 0-1.414l2-2.001c.391-.391 1.023-.391 1.414 0s.391 1.023 0 1.414l-2 2.001c-.195.195-.451.293-.707.293z" fill="#5d9cec"/></g><g><path d="m14 36.507c-.256 0-.512-.098-.707-.293l-2-2.001c-.391-.391-.391-1.023 0-1.414s1.023-.391 1.414 0l2 2.001c.391.391.391 1.023 0 1.414-.195.195-.451.293-.707.293z" fill="#5d9cec"/></g><g><path d="m10 36.507c-.256 0-.512-.098-.707-.293-.391-.391-.391-1.023 0-1.414l2-2.001c.391-.391 1.023-.391 1.414 0s.391 1.023 0 1.414l-2 2.001c-.195.195-.451.293-.707.293z" fill="#5d9cec"/></g><g><path d="m10 36.507c-.256 0-.512-.098-.707-.293l-2-2.001c-.391-.391-.391-1.023 0-1.414s1.023-.391 1.414 0l2 2.001c.391.391.391 1.023 0 1.414-.195.195-.451.293-.707.293z" fill="#5d9cec"/></g><g><path d="m6 36.507c-.256 0-.512-.098-.707-.293-.391-.391-.391-1.023 0-1.414l2-2.001c.391-.391 1.023-.391 1.414 0s.391 1.023 0 1.414l-2 2.001c-.195.195-.451.293-.707.293z" fill="#5d9cec"/></g><g><path d="m6 36.507c-.256 0-.512-.098-.707-.293l-2-2.001c-.391-.391-.391-1.023 0-1.414s1.023-.391 1.414 0l2 2.001c.391.391.391 1.023 0 1.414-.195.195-.451.293-.707.293z" fill="#5d9cec"/></g><g><path d="m2 36.507c-.256 0-.512-.098-.707-.293-.391-.391-.391-1.023 0-1.414l2-2.001c.391-.391 1.023-.391 1.414 0s.391 1.023 0 1.414l-2 2.001c-.195.195-.451.293-.707.293z" fill="#5d9cec"/></g><g><path d="m2 36.507c-.256 0-.512-.098-.707-.293l-1-1c-.391-.391-.391-1.023 0-1.414s1.023-.391 1.414 0l1 1c.391.391.391 1.023 0 1.414-.195.195-.451.293-.707.293z" fill="#5d9cec"/></g></g><g><g><g><path d="m32 43.506c-.256 0-.512-.098-.707-.293l-2-2c-.391-.391-.391-1.023 0-1.414s1.023-.391 1.414 0l2 2c.391.391.391 1.023 0 1.414-.195.195-.451.293-.707.293z" fill="#5d9cec"/></g><g><path d="m28 43.506c-.256 0-.512-.098-.707-.293-.391-.391-.391-1.023 0-1.414l2-2c.391-.391 1.023-.391 1.414 0s.391 1.023 0 1.414l-2 2c-.195.195-.451.293-.707.293z" fill="#5d9cec"/></g><g><path d="m28 43.506c-.256 0-.512-.098-.707-.293l-2-2c-.391-.391-.391-1.023 0-1.414s1.023-.391 1.414 0l2 2c.391.391.391 1.023 0 1.414-.195.195-.451.293-.707.293z" fill="#5d9cec"/></g><g><path d="m24 43.506c-.256 0-.512-.098-.707-.293-.391-.391-.391-1.023 0-1.414l2-2c.391-.391 1.023-.391 1.414 0s.391 1.023 0 1.414l-2 2c-.195.195-.451.293-.707.293z" fill="#5d9cec"/></g><g><path d="m24 43.506c-.256 0-.512-.098-.707-.293l-2-2c-.391-.391-.391-1.023 0-1.414s1.023-.391 1.414 0l2 2c.391.391.391 1.023 0 1.414-.195.195-.451.293-.707.293z" fill="#5d9cec"/></g><g><path d="m20 43.506c-.256 0-.512-.098-.707-.293-.391-.391-.391-1.023 0-1.414l2-2c.391-.391 1.023-.391 1.414 0s.391 1.023 0 1.414l-2 2c-.195.195-.451.293-.707.293z" fill="#5d9cec"/></g><g><path d="m20 43.506c-.256 0-.512-.098-.707-.293l-2-2c-.391-.391-.391-1.023 0-1.414s1.023-.391 1.414 0l2 2c.391.391.391 1.023 0 1.414-.195.195-.451.293-.707.293z" fill="#5d9cec"/></g><g><path d="m16 43.506c-.256 0-.512-.098-.707-.293-.391-.391-.391-1.023 0-1.414l2-2c.391-.391 1.023-.391 1.414 0s.391 1.023 0 1.414l-2 2c-.195.195-.451.293-.707.293z" fill="#5d9cec"/></g><g><path d="m16 43.506c-.256 0-.512-.098-.707-.293l-2-2c-.391-.391-.391-1.023 0-1.414s1.023-.391 1.414 0l2 2c.391.391.391 1.023 0 1.414-.195.195-.451.293-.707.293z" fill="#5d9cec"/></g><g><path d="m12 43.506c-.256 0-.512-.098-.707-.293-.391-.391-.391-1.023 0-1.414l2-2c.391-.391 1.023-.391 1.414 0s.391 1.023 0 1.414l-2 2c-.195.195-.451.293-.707.293z" fill="#5d9cec"/></g></g><g><g><path d="m52 47.504c-.256 0-.512-.098-.707-.293l-2-2c-.391-.391-.391-1.023 0-1.414s1.023-.391 1.414 0l2 2c.391.391.391 1.023 0 1.414-.195.195-.451.293-.707.293z" fill="#5d9cec"/></g><g><path d="m48 47.504c-.256 0-.512-.098-.707-.293-.391-.391-.391-1.023 0-1.414l2-2c.391-.391 1.023-.391 1.414 0s.391 1.023 0 1.414l-2 2c-.195.195-.451.293-.707.293z" fill="#5d9cec"/></g><g><path d="m48 47.504c-.256 0-.512-.098-.707-.293l-2-2c-.391-.391-.391-1.023 0-1.414s1.023-.391 1.414 0l2 2c.391.391.391 1.023 0 1.414-.195.195-.451.293-.707.293z" fill="#5d9cec"/></g><g><path d="m44 47.504c-.256 0-.512-.098-.707-.293-.391-.391-.391-1.023 0-1.414l2-2c.391-.391 1.023-.391 1.414 0s.391 1.023 0 1.414l-2 2c-.195.195-.451.293-.707.293z" fill="#5d9cec"/></g><g><path d="m44 47.504c-.256 0-.512-.098-.707-.293l-2-2c-.391-.391-.391-1.023 0-1.414s1.023-.391 1.414 0l2 2c.391.391.391 1.023 0 1.414-.195.195-.451.293-.707.293z" fill="#5d9cec"/></g><g><path d="m40 47.504c-.256 0-.512-.098-.707-.293-.391-.391-.391-1.023 0-1.414l2-2c.391-.391 1.023-.391 1.414 0s.391 1.023 0 1.414l-2 2c-.195.195-.451.293-.707.293z" fill="#5d9cec"/></g></g></g></g></g></g></svg>