<?xml version="1.0" encoding="iso-8859-1"?>
<!-- Generator: Adobe Illustrator 19.0.0, SVG Export Plug-In . SVG Version: 6.00 Build 0)  -->
<svg version="1.1" id="Capa_1" xmlns="http://www.w3.org/2000/svg" xmlns:xlink="http://www.w3.org/1999/xlink" x="0px" y="0px"
	 viewBox="0 0 512 512" style="enable-background:new 0 0 512 512;" xml:space="preserve">
<path style="fill:#C69A6A;" d="M512,256c0,17.126-1.682,33.855-4.89,50.04c-5.747,29.017-16.405,56.278-31.075,80.865
	c-4.451,7.481-9.289,14.723-14.461,21.682c-15.047,20.24-33.008,38.181-53.279,53.196c-1.714,1.285-3.448,2.529-5.193,3.751
	c-0.01,0.01-0.01,0.01-0.01,0.01c-7.168,5.036-14.587,9.718-22.267,14.002c-9.331,5.235-19.028,9.895-29.038,13.928
	c-20.219,8.171-41.733,13.824-64.146,16.583C277.274,511.342,266.71,512,256,512c-23.27,0-45.808-3.103-67.229-8.923
	c-66.038-17.92-121.469-61.607-154.833-119.609C14.566,349.78,2.633,311.265,0.397,270.179C0.125,265.488,0,260.754,0,256
	c0-12.445,0.888-24.691,2.612-36.665C18.557,108.147,105.942,20.031,216.775,2.988c0,0,0,0.01,0.01,0C229.575,1.024,242.657,0,256,0
	c43.719,0,84.877,10.961,120.874,30.281c27.303,14.649,51.639,34.105,71.879,57.25c32.413,37.042,54.314,83.529,61.043,134.781
	C511.248,233.336,512,244.579,512,256z"/>
<g>
	<path style="fill:#D3AA81;" d="M509.795,222.312H339.414c-3.72,0-7.084-1.505-9.519-3.95c-2.445-2.435-3.95-5.799-3.95-9.529
		c0-7.44,6.029-13.479,13.469-13.479h40.97c3.72,0,7.095-1.505,9.529-3.95c2.445-2.435,3.95-5.799,3.95-9.529
		c0-7.44-6.029-13.469-13.479-13.469h-11.431c-3.72,0-7.084-1.505-9.529-3.95c-2.445-2.445-3.95-5.81-3.95-9.529
		c0-7.45,6.04-13.479,13.479-13.479h37.857c3.72,0,7.095-1.505,9.529-3.95c2.435-2.445,3.95-5.81,3.95-9.529
		c0-7.44-6.04-13.479-13.479-13.479h-83.111c-3.73,0-7.095-1.505-9.529-3.95c-2.445-2.435-3.95-5.81-3.95-9.529
		c0-7.44,6.029-13.479,13.479-13.479h125.053C481.165,124.573,503.066,171.06,509.795,222.312z"/>
	<path style="fill:#D3AA81;" d="M507.11,306.04c-5.747,29.017-16.405,56.278-31.075,80.865h-17.544c-3.73,0-7.095-1.515-9.529-3.95
		c-2.445-2.435-3.95-5.81-3.95-9.529c0-7.44,6.029-13.479,13.479-13.479h3.741c3.73,0,7.095-1.505,9.529-3.95
		c2.445-2.435,3.95-5.799,3.95-9.529c0-7.44-6.029-13.479-13.479-13.479h-36.739c-3.72,0-7.095-1.505-9.529-3.95
		c-2.435-2.435-3.95-5.799-3.95-9.529c0-7.44,6.039-13.469,13.479-13.469L507.11,306.04L507.11,306.04z"/>
	<path style="fill:#D3AA81;" d="M406.288,453.047c0,3.333-1.202,6.384-3.218,8.735c-1.39,1.64-3.166,2.936-5.193,3.751
		c-0.01,0.01-0.01,0.01-0.01,0.01c-1.557,0.637-3.271,0.982-5.057,0.982h-3.741c-3.72,0-7.095,1.505-9.529,3.939
		c-2.341,2.341-3.824,5.538-3.939,9.08c-9.331,5.235-19.028,9.895-29.038,13.928h-93.309c-3.72,0-7.084-1.505-9.519-3.95
		c-2.445-2.435-3.95-5.81-3.95-9.529c0-7.44,6.029-13.469,13.469-13.469h3.751c3.72,0,7.084-1.515,9.529-3.95s3.95-5.81,3.95-9.529
		c0-7.45-6.04-13.479-13.479-13.479h-36.739c-3.72,0-7.084-1.515-9.529-3.95c-2.445-2.435-3.95-5.81-3.95-9.529
		c0-7.44,6.04-13.479,13.479-13.479h113.58c7.44,0,13.469,6.04,13.469,13.479s6.04,13.479,13.479,13.479h32.016
		c3.73,0,7.095,1.505,9.529,3.95C404.783,445.952,406.288,449.317,406.288,453.047z"/>
	<path style="fill:#D3AA81;" d="M207.477,166.28L207.477,166.28c0-7.444,6.034-13.478,13.478-13.478h43.432
		c7.444,0,13.478-6.034,13.478-13.478l0,0c0-7.444-6.034-13.478-13.478-13.478h-128.04c-7.444,0-13.478,6.034-13.478,13.478l0,0
		c0,7.444-6.034,13.478-13.478,13.478H65.96c-7.444,0-13.478,6.034-13.478,13.478l0,0c0,7.444,6.034,13.478,13.478,13.478h64.398
		c7.444,0,13.478,6.034,13.478,13.478l0,0c0,7.444,6.034,13.478,13.478,13.478h128.039c7.444,0,13.478-6.034,13.478-13.478l0,0
		c0-7.444-6.034-13.478-13.478-13.478h-64.399C213.511,179.757,207.477,173.723,207.477,166.28z"/>
	<path style="fill:#D3AA81;" d="M376.874,30.281c-0.543,0.073-1.097,0.104-1.661,0.104H268.518c-7.44,0-13.479-6.029-13.479-13.469
		v-0.01c0-7.44-6.029-13.469-13.479-13.469h-21.337c-1.191,0-2.341-0.157-3.438-0.449C229.575,1.024,242.657,0,256,0
		C299.719,0,340.877,10.961,376.874,30.281z"/>
	<path style="fill:#D3AA81;" d="M34.492,256.7c0,7.45-6.04,13.479-13.479,13.479H0.397C0.125,265.488,0,260.754,0,256
		c0-12.445,0.888-24.691,2.612-36.665c3.009,2.466,4.921,6.217,4.921,10.418c0,3.72,1.515,7.095,3.95,9.529
		c2.435,2.435,5.81,3.95,9.529,3.95s7.095,1.505,9.529,3.939C32.977,249.616,34.492,252.98,34.492,256.7z"/>
</g>
<rect x="86.758" y="63.532" style="fill:#797B89;" width="421.407" height="15.673"/>
<g>
	<path style="fill:#5C5E70;" d="M218.05,296.511c-3.751,0-6.792-3.041-6.792-6.792V62.312c0-3.751,3.041-6.792,6.792-6.792
		s6.792,3.041,6.792,6.792v227.406C224.842,293.47,221.802,296.511,218.05,296.511z"/>
	<path style="fill:#5C5E70;" d="M376.875,296.511c-3.751,0-6.792-3.041-6.792-6.792V62.312c0-3.751,3.041-6.792,6.792-6.792
		c3.751,0,6.792,3.041,6.792,6.792v227.406C383.667,293.47,380.626,296.511,376.875,296.511z"/>
	<path style="fill:#5C5E70;" d="M135.211,120h-17.62c-5.494,0-9.947-4.453-9.947-9.947V32.685c0-5.494,4.453-9.947,9.947-9.947
		h17.62L135.211,120L135.211,120z"/>
</g>
<g>
	<path style="fill:#494B5B;" d="M107.643,88.458v21.595c0,5.494,4.453,9.947,9.947,9.947h17.62V98.405h-17.62
		C112.097,98.405,107.643,93.952,107.643,88.458z"/>
	<rect x="127.269" y="22.738" style="fill:#494B5B;" width="7.945" height="97.259"/>
</g>
<path style="fill:#5C5E70;" d="M162.778,0.001h-17.62c-5.494,0-9.947,4.453-9.947,9.947V132.79c0,5.494,4.453,9.947,9.947,9.947
	h17.62h17.62c5.494,0,9.947-4.453,9.947-9.947V9.948c0-5.494-4.453-9.947-9.947-9.947C180.398,0.001,162.778,0.001,162.778,0.001z"
	/>
<g>
	<path style="fill:#494B5B;" d="M180.398,110.693h-17.62h-17.62c-5.494,0-9.947-4.453-9.947-9.947v32.044
		c0,5.494,4.453,9.947,9.947,9.947h17.62h17.62c5.494,0,9.947-4.453,9.947-9.947v-32.044
		C190.346,106.239,185.893,110.693,180.398,110.693z"/>
	<rect x="158.595" y="0" style="fill:#494B5B;" width="8.359" height="142.733"/>
</g>
<g>
	<path style="fill:#797B89;" d="M178.678,47.303L178.678,47.303c-3.463,0-6.269-2.807-6.269-6.269V16.653
		c0-3.463,2.807-6.269,6.269-6.269l0,0c3.463,0,6.269,2.807,6.269,6.269v24.381C184.947,44.496,182.14,47.303,178.678,47.303z"/>
	<path style="fill:#797B89;" d="M150.64,47.303L150.64,47.303c-3.463,0-6.269-2.807-6.269-6.269V16.653
		c0-3.463,2.807-6.269,6.269-6.269l0,0c3.463,0,6.269,2.807,6.269,6.269v24.381C156.909,44.496,154.102,47.303,150.64,47.303z"/>
	<path style="fill:#797B89;" d="M118.77,59.841L118.77,59.841c-3.463,0-6.269-2.807-6.269-6.269V35.461
		c0-3.463,2.807-6.269,6.269-6.269l0,0c3.463,0,6.269,2.807,6.269,6.269v18.111C125.04,57.035,122.232,59.841,118.77,59.841z"/>
</g>
<path style="fill:#5C5E70;" d="M458.001,120h17.62c5.494,0,9.947-4.453,9.947-9.947V32.685c0-5.494-4.453-9.947-9.947-9.947h-17.62
	V120z"/>
<g>
	<path style="fill:#494B5B;" d="M485.568,88.458v21.595c0,5.494-4.453,9.947-9.947,9.947h-17.62V98.405h17.62
		C481.115,98.405,485.568,93.952,485.568,88.458z"/>
	<rect x="458" y="22.738" style="fill:#494B5B;" width="7.945" height="97.259"/>
</g>
<path style="fill:#5C5E70;" d="M430.433,0.001h17.62c5.494,0,9.947,4.453,9.947,9.947V132.79c0,5.494-4.453,9.947-9.947,9.947
	h-17.62h-17.62c-5.494,0-9.947-4.453-9.947-9.947V9.948c0-5.494,4.453-9.947,9.947-9.947L430.433,0.001z"/>
<g>
	<path style="fill:#494B5B;" d="M412.812,110.693h17.62h17.62c5.494,0,9.947-4.453,9.947-9.947v32.044
		c0,5.494-4.453,9.947-9.947,9.947h-17.62h-17.62c-5.494,0-9.947-4.453-9.947-9.947v-32.044
		C402.865,106.239,407.318,110.693,412.812,110.693z"/>
	<rect x="426.256" y="0" style="fill:#494B5B;" width="8.359" height="142.733"/>
</g>
<g>
	<path style="fill:#797B89;" d="M414.534,47.303L414.534,47.303c3.463,0,6.269-2.807,6.269-6.269V16.653
		c0-3.463-2.807-6.269-6.269-6.269l0,0c-3.463,0-6.269,2.807-6.269,6.269v24.381C408.265,44.496,411.071,47.303,414.534,47.303z"/>
	<path style="fill:#797B89;" d="M442.572,47.303L442.572,47.303c3.463,0,6.269-2.807,6.269-6.269V16.653
		c0-3.463-2.807-6.269-6.269-6.269l0,0c-3.463,0-6.269,2.807-6.269,6.269v24.381C436.302,44.496,439.109,47.303,442.572,47.303z"/>
	<path style="fill:#797B89;" d="M474.441,59.841L474.441,59.841c3.463,0,6.269-2.807,6.269-6.269V35.461
		c0-3.463-2.807-6.269-6.269-6.269l0,0c-3.463,0-6.269,2.807-6.269,6.269v18.111C468.172,57.035,470.978,59.841,474.441,59.841z"/>
</g>
<path style="fill:#EF4152;" d="M410.978,242.137c0,0.585-0.021,1.181-0.073,1.755c-1.567,19.31-28.86,34.68-62.297,34.68
	c-34.45,0-62.37-16.311-62.37-36.436c0-6.74,3.135-13.051,8.589-18.463c10.846-10.762,30.866-17.983,53.781-17.983
	C383.059,205.691,410.978,222.002,410.978,242.137z"/>
<path style="fill:#FF525D;" d="M410.978,242.137c0,0.585-0.021,1.181-0.073,1.755c-10.846,10.752-30.866,17.962-53.781,17.962
	c-34.44,0-62.37-16.311-62.37-36.436c0-0.585,0.021-1.17,0.073-1.745c10.846-10.762,30.866-17.983,53.781-17.983
	C383.059,205.691,410.978,222.002,410.978,242.137z"/>
<path style="fill:#EF4152;" d="M309.978,242.137c0,3.103-0.23,6.144-0.669,9.122c-4.409,30.114-30.365,53.248-61.712,53.248
	c-34.44,0-62.37-27.93-62.37-62.37c0-31.347,23.134-57.302,53.248-61.712c2.978-0.439,6.019-0.669,9.122-0.669
	C282.048,179.757,309.978,207.687,309.978,242.137z"/>
<path style="fill:#FF525D;" d="M309.978,242.137c0,3.103-0.23,6.144-0.669,9.122c-8.505,18.087-26.896,30.605-48.201,30.605
	c-29.403,0-53.238-23.834-53.238-53.238c0-21.305,12.518-39.696,30.605-48.201c2.978-0.439,6.019-0.669,9.122-0.669
	C282.048,179.757,309.978,207.687,309.978,242.137z"/>
<circle style="fill:#EF4152;" cx="449.62" cy="242.134" r="62.372"/>
<g>
	<circle style="fill:#FF6E7C;" cx="278.977" cy="224.235" r="12.539"/>
	<circle style="fill:#FF6E7C;" cx="267.149" cy="202.303" r="9.415"/>
</g>
<path style="fill:#FF525D;" d="M511.997,242.137c0,3.103-0.23,6.144-0.669,9.122c-8.505,18.087-26.896,30.605-48.201,30.605
	c-29.403,0-53.238-23.834-53.238-53.238c0-21.305,12.518-39.696,30.605-48.201c2.978-0.439,6.019-0.669,9.122-0.669
	C484.067,179.757,511.997,207.687,511.997,242.137z"/>
<g>
	<circle style="fill:#FF6E7C;" cx="480.998" cy="224.235" r="12.539"/>
	<circle style="fill:#FF6E7C;" cx="469.17" cy="202.303" r="9.415"/>
	<circle style="fill:#FF6E7C;" cx="366.749" cy="229.115" r="8.359"/>
</g>
<path style="fill:#279FC9;" d="M337.522,323.64c0,0.585-0.021,1.181-0.073,1.755c-1.567,19.31-28.86,34.68-62.297,34.68
	c-34.45,0-62.37-16.311-62.37-36.436c0-6.74,3.135-13.051,8.589-18.463c10.846-10.762,30.866-17.983,53.781-17.983
	C309.602,287.194,337.522,303.505,337.522,323.64z"/>
<path style="fill:#34ABE0;" d="M337.522,323.64c0,0.585-0.021,1.181-0.073,1.755c-10.846,10.752-30.866,17.962-53.781,17.962
	c-34.44,0-62.37-16.311-62.37-36.436c0-0.585,0.021-1.17,0.073-1.745c10.846-10.762,30.866-17.983,53.781-17.983
	C309.602,287.194,337.522,303.505,337.522,323.64z"/>
<path style="fill:#279FC9;" d="M236.522,323.64c0,3.103-0.23,6.144-0.669,9.122c-4.409,30.114-30.365,53.248-61.712,53.248
	c-34.44,0-62.37-27.93-62.37-62.37c0-31.347,23.134-57.302,53.248-61.712c2.978-0.439,6.019-0.669,9.122-0.669
	C208.592,261.26,236.522,289.19,236.522,323.64z"/>
<path style="fill:#34ABE0;" d="M236.522,323.64c0,3.103-0.23,6.144-0.669,9.122c-8.505,18.087-26.896,30.605-48.201,30.605
	c-29.403,0-53.238-23.834-53.238-53.238c0-21.305,12.518-39.696,30.605-48.201c2.978-0.439,6.019-0.669,9.122-0.669
	C208.592,261.26,236.522,289.19,236.522,323.64z"/>
<circle style="fill:#279FC9;" cx="376.163" cy="323.636" r="62.372"/>
<g>
	<circle style="fill:#78CAEF;" cx="205.521" cy="305.737" r="12.539"/>
	<circle style="fill:#78CAEF;" cx="193.693" cy="283.805" r="9.415"/>
</g>
<path style="fill:#34ABE0;" d="M438.54,323.64c0,3.103-0.23,6.144-0.669,9.122c-8.505,18.087-26.896,30.605-48.201,30.605
	c-29.403,0-53.238-23.834-53.238-53.238c0-21.305,12.518-39.696,30.605-48.201c2.978-0.439,6.019-0.669,9.122-0.669
	C410.61,261.26,438.54,289.19,438.54,323.64z"/>
<g>
	<circle style="fill:#78CAEF;" cx="407.542" cy="305.737" r="12.539"/>
	<circle style="fill:#78CAEF;" cx="395.713" cy="283.805" r="9.415"/>
	<circle style="fill:#78CAEF;" cx="293.292" cy="310.617" r="8.359"/>
</g>
<path style="fill:#5C5E70;" d="M219.679,205.615c-12.33-14.137-30.145-22.235-48.891-22.235H128.93c-4.577,0-9.101,0.481-13.5,1.421
	c-13.625,2.884-26.081,10.125-35.391,20.814c-12.33,14.127-17.93,32.893-15.36,51.461l6.907,50.28l3.156,22.998l3.051,22.131
	h144.123l3.354-24.419l2.853-20.699l6.917-50.291C237.599,238.508,231.999,219.742,219.679,205.615z M190.861,309.467l-0.878,6.395
	h-80.248l-1.118-8.14l-3.02-21.912l-4.639-33.719c-1.139-8.213,1.243-16.175,6.687-22.403c5.433-6.248,12.999-9.686,21.285-9.686
	h41.859c8.276,0,15.841,3.438,21.285,9.686c5.433,6.228,7.816,14.19,6.687,22.403l-4.639,33.719L190.861,309.467z"/>
<g>
	<path style="fill:#494B5B;" d="M109.732,315.867h15.457c-3.145,8.52-5.493,14.003-5.493,14.003l-44.949,0.485l-10.072-73.279
		c-2.563-18.57,3.038-37.334,15.36-51.466c9.317-10.685,21.769-17.924,35.395-20.81c-3.705,5.418-14.585,25.055,13.497,35.202
		c-8.283,0-15.845,3.436-21.285,9.683c-5.44,6.237-7.82,14.197-6.689,22.405L109.732,315.867z"/>
	<path style="fill:#494B5B;" d="M266.188,393.425c0,50.604-32.298,93.654-77.416,109.652
		c-66.038-17.92-121.469-61.607-154.833-119.609c2.55-30.093,16.562-56.926,37.648-76.11c9.916-9.028,21.41-16.363,34.011-21.546
		c13.646-5.622,28.588-8.725,44.262-8.725c2.257,0,4.504,0.073,6.729,0.199c13.228,0.752,25.861,3.72,37.533,8.526
		c12.591,5.183,24.074,12.518,34.001,21.556c17.763,16.154,30.501,37.742,35.6,62.13
		C265.341,377.208,266.188,385.223,266.188,393.425z"/>
</g>
<path style="fill:#5C5E70;" d="M263.721,369.498c-3.705,44.767-41.212,79.935-86.937,79.935c-48.192,0-87.249-39.057-87.249-87.249
	c0-41.244,28.598-75.789,67.052-84.901C209.616,280.311,253.133,318.851,263.721,369.498z"/>
<g>
	<circle style="fill:#797B89;" cx="212.867" cy="342.256" r="18.85"/>
	<circle style="fill:#797B89;" cx="189.827" cy="318.025" r="8.617"/>
	<path style="fill:#797B89;" d="M183.211,206.537h-25.781c-4.184,0-7.576-3.392-7.576-7.576v-0.468c0-4.184,3.392-7.576,7.576-7.576
		h25.781c4.184,0,7.576,3.392,7.576,7.576v0.468C190.787,203.145,187.395,206.537,183.211,206.537z"/>
</g>
<path style="fill:#FFD15C;" d="M461.573,408.586c-40.72,54.774-102.807,92.714-173.934,101.47v-101.47L461.573,408.586
	L461.573,408.586z"/>
<g>
</g>
<g>
</g>
<g>
</g>
<g>
</g>
<g>
</g>
<g>
</g>
<g>
</g>
<g>
</g>
<g>
</g>
<g>
</g>
<g>
</g>
<g>
</g>
<g>
</g>
<g>
</g>
<g>
</g>
</svg>
