<svg id="Capa_1" enable-background="new 0 0 512 512" height="512" viewBox="0 0 512 512" width="512" xmlns="http://www.w3.org/2000/svg"><circle cx="256" cy="267" fill="#a7e8f1" r="245"/><path d="m421.523 282c2.674 4.754 4.217 10.102 4.452 15.661l.035.844.838.106c7.216.914 13.749 4.115 18.894 9.258l4.131 4.131h46.979c1.82-9.808 3.063-19.818 3.678-30z" fill="#0078c8"/><path d="m66.259 307.869c5.144-5.143 11.677-8.345 18.893-9.258l.838-.106.036-.844c.234-5.559 1.777-10.906 4.452-15.661h-79.008c.615 10.182 1.858 20.192 3.679 30h46.979z" fill="#0078c8"/><path d="m390.384 334.132-.844-.036c-8.782-.37-17.042-3.997-23.257-10.212l-3.559-3.559v53.557c0 7.889-2.324 15.533-6.721 22.105l-.79 1.182 1.379.345.109.032c.983.24 1.839.872 2.355 1.735.284.472.454 1.016.507 1.616l.197 2.26 42.758-46.523-2.772-2.772c-5.145-5.145-8.346-11.678-9.258-18.893z" fill="#fd3581"/><path d="m145.717 323.884c-6.215 6.215-14.474 9.842-23.256 10.212l-.844.036-.106.838c-.913 7.216-4.115 13.749-9.259 18.893l-2.771 2.772 42.755 46.521.2-2.255c.053-.602.224-1.146.506-1.619.517-.863 1.374-1.496 2.351-1.734l1.392-.433-.689-1.125c-4.396-6.575-6.72-14.219-6.72-22.106v-53.557z" fill="#fd3581"/><path d="m157.93 466.319-108.404-95.723c-12.68-12.682-12.68-33.315.001-45.994l13.601-13.602h-48.18c14.862 81.953 70.489 149.704 145.115 181.496z" fill="#fd3581"/><path d="m448.873 311 13.602 13.602c12.681 12.68 12.681 33.313 0 45.994l-108.042 95.516-1.719 26.046c74.233-31.931 129.528-99.49 144.339-181.158z" fill="#fd3581"/><path d="m181.401 154.332v-63.08h-3.993c-11 0-20 9-20 20v36.748c0 11 9 20 20 20h5.248c-.823-4.465-1.255-9.031-1.255-13.668z" fill="#fff"/><path d="m334.592 91.252h-3.994v63.08c0 4.637-.433 9.203-1.255 13.668h5.249c11 0 20-9 20-20v-36.748c0-11-9-20-20-20z" fill="#fff"/><path d="m182.512 167.211c-8.351-2.402-14.512-10.114-14.512-19.211v-36.748c0-8.687 5.623-16.107 13.401-18.851v-1.149h-3.993c-11 0-20 9-20 20v36.748c0 11 9 20 20 20h5.248c-.049-.263-.098-.525-.144-.789z" fill="#e3f3ff"/><path d="m255.999 0c-41.751 0-75.598 18.101-75.598 59.852v39.328.019-18.347c0-41.751 33.847-59.852 75.598-59.852s75.598 18.101 75.598 59.852v-21c.001-41.751-33.847-59.852-75.598-59.852z" fill="#015a9a"/><path d="m180.402 80.852c0-27.417 14.596-44.634 36.44-53.226 10.697-15.918 29.974-24.54 52.858-26.923-4.446-.462-9.02-.703-13.701-.703-41.751 0-75.598 18.101-75.598 59.852v39.328.019-18.347z" fill="#004281"/><path d="m152.544 402.257-.021-.082c-.019-.073-.02-.148-.034-.222l-41.624-45.289 2.094-2.094c5.467-5.467 8.643-12.354 9.544-19.475 8.694-.366 17.282-3.865 23.921-10.504l1.852-1.852v51.143c0 8.756 2.775 16.871 7.479 23.531 10.515-2.796 17.823-12.253 17.823-23.187v-133.004h-15.328c-3.826 0-7.144 2.156-8.817 5.317-12.262-3.661-26.092-.652-35.775 9.032l-18.127 18.126c-6.639 6.639-10.138 15.226-10.504 23.921-7.12.901-14.007 4.076-19.475 9.543l-16.732 16.734c-13.093 13.091-13.092 34.315-.001 47.408 3.939 3.939 105.262 93.489 105.262 93.489 1.192 1.049 2.53 1.965 3.954 2.774z" fill="#fdb97e"/><path d="m463.182 323.895-16.732-16.732c-5.469-5.468-12.355-8.642-19.475-9.543-.367-8.695-3.865-17.282-10.504-23.921l-18.127-18.126c-9.685-9.684-23.515-12.693-35.776-9.032-1.674-3.161-4.993-5.317-8.818-5.317h-15.326v133.005c0 10.933 7.309 20.391 17.822 23.186 4.704-6.66 7.48-14.775 7.48-23.531v-51.144l1.852 1.852c6.639 6.639 15.227 10.138 23.922 10.504.9 7.12 4.076 14.007 9.543 19.475l2.094 2.094-41.622 45.288c-.015.075-.016.151-.034.225l-.021.084-5.123 65.104c1.287-.759 2.495-1.613 3.586-2.572 0 0 101.322-89.55 105.262-93.489 13.088-13.095 13.088-34.319-.003-47.41z" fill="#fdb97e"/><path d="m169.249 252h3.329v-9.588c0-.412.069-.806.168-1.189h-14.496c-3.826 0-7.144 2.156-8.817 5.317-12.262-3.661-26.092-.652-35.775 9.032l-18.127 18.126c-6.639 6.639-10.138 15.226-10.504 23.921-7.12.901-14.007 4.076-19.475 9.543l-16.732 16.733c-13.093 13.091-13.092 34.315-.001 47.408.596.596 3.433 3.162 7.8 7.072-9.782-13.127-8.72-31.784 3.2-43.703l16.732-16.732c5.468-5.468 12.354-8.642 19.475-9.543.366-8.695 3.865-17.282 10.504-23.921l18.127-18.126c9.684-9.684 23.513-12.693 35.775-9.032 1.673-3.162 4.992-5.318 8.817-5.318z" fill="#fea95c"/><path d="m288.169 233.96v-12.335c-2.838 1.352-5.778 2.547-8.825 3.55l-.301.099-.189.254c-2.777 3.729-6.578 6.354-10.878 7.617 6.683.149 13.424.42 20.193.815z" fill="#fea95c"/><path d="m244.023 233.145c-4.3-1.263-8.1-3.887-10.876-7.615l-.189-.254-.3-.099c-3.047-1.003-5.989-2.199-8.827-3.551v12.334c6.769-.395 13.511-.666 20.192-.815z" fill="#fea95c"/><path d="m270.467 232.202c-2.593 1.148-5.453 1.798-8.467 1.798h-12c-3.014 0-5.874-.65-8.467-1.798-10.199.273-20.413.824-30.6 1.648v63.571c0 24.891 20.179 45.068 45.067 45.068 24.89 0 45.067-20.177 45.067-45.068v-63.571c-10.186-.825-20.4-1.375-30.6-1.648z" fill="#fdb97e"/><path d="m283 211.015v1.985c0 5.236-1.94 10.02-5.121 13.702 31.08-9.385 53.719-38.229 53.719-72.37v-13.93c0 32.235-20.185 59.741-48.598 70.613z" fill="#015a9a"/><path d="m229 213c0-.084-.001-.884-.002-1.985-28.412-10.872-48.597-38.378-48.597-70.613v13.93c0 34.142 22.639 62.986 53.72 72.371-3.182-3.683-5.121-8.466-5.121-13.703z" fill="#015a9a"/><path d="m255.999 216c-9.849 0-19.247-1.903-27.875-5.33-.081.766-.124 1.543-.124 2.33 0 12.15 9.85 22 22 22h12c12.15 0 22-9.85 22-22 0-.787-.043-1.564-.124-2.33-8.629 3.426-18.028 5.33-27.877 5.33z" fill="#0078c8"/><path d="m243.091 214.88c-5.19-.894-10.196-2.315-14.967-4.21-.081.766-.124 1.543-.124 2.33 0 12.15 9.85 22 22 22h12c.505 0 1.004-.023 1.5-.057-10.827-.729-19.496-9.289-20.409-20.063z" fill="#0078c8"/><g fill="#fea95c"><path d="m256 343.49c2.555 0 5.058-.218 7.5-.62v-43.957c0-4.142-3.357-7.5-7.5-7.5-4.142 0-7.5 3.358-7.5 7.5v43.957c2.442.402 4.946.62 7.5.62z"/><path d="m209.933 279.103h22.932c4.142 0 7.5-3.358 7.5-7.5s-3.358-7.5-7.5-7.5h-22.932z"/><path d="m166.455 279.103h7.124v-15h-7.124c-4.142 0-7.5 3.358-7.5 7.5 0 4.143 3.357 7.5 7.5 7.5z"/><path d="m338.423 279.103h7.123c4.143 0 7.5-3.358 7.5-7.5s-3.357-7.5-7.5-7.5h-7.123z"/><path d="m279.136 279.103h22.932v-15h-22.932c-4.143 0-7.5 3.358-7.5 7.5 0 4.143 3.357 7.5 7.5 7.5z"/></g><path d="m196.692 235.193c-6.691.708-13.364 1.52-20.001 2.473-2.362.339-4.113 2.361-4.113 4.746v131.816c0 10.634-7.205 19.823-17.521 22.349-1.244.304-2.314 1.094-2.972 2.192-.658 1.099-.851 2.415-.53 3.657l7.537 89.646c12.062 5.2 24.631 9.443 37.601 12.672v-269.551z" fill="#015a9a"/><path d="m164.427 410.957c-.32-1.241-.128-2.558.53-3.657.657-1.098 1.728-1.888 2.972-2.192 10.317-2.526 17.521-11.715 17.521-22.349v-146.259c-2.925.367-5.846.748-8.759 1.166-2.362.339-4.113 2.361-4.113 4.746v131.816c0 10.634-7.205 19.823-17.521 22.349-1.244.304-2.314 1.094-2.972 2.192-.658 1.099-.851 2.415-.53 3.657l7.537 89.646c4.132 1.781 8.328 3.442 12.575 4.996z" fill="#015a9a"/><path d="m359.916 398.768c-.657-1.098-1.728-1.888-2.972-2.192-10.315-2.526-17.521-11.715-17.521-22.349v-131.815c0-2.385-1.753-4.407-4.112-4.746-6.638-.953-13.311-1.765-20.003-2.473v269.549c13.149-3.273 25.887-7.59 38.102-12.889l7.038-89.428c.318-1.241.128-2.558-.532-3.657z" fill="#015a9a"/><path d="m301.067 233.851h.001z" fill="#0078c8"/><path d="m315.308 425.809c-13.7-5.079-22.808-18.092-22.808-32.809v-69.156c-8.19 11.294-21.482 18.646-36.5 18.646-15.017 0-28.31-7.352-36.5-18.646v69.156c0 14.717-9.108 27.73-22.808 32.809h-1v78.703c19.294 4.884 39.496 7.488 60.308 7.488 20.811 0 41.014-2.604 60.308-7.488v-78.703z" fill="#0078c8"/><path d="m331.598 140.402c0 41.751-33.848 75.598-75.599 75.598-41.751 0-75.598-33.847-75.598-75.598v-39.328c0-41.751 33.847-59.852 75.598-59.852 41.751 0 75.599 18.101 75.599 59.852z" fill="#fdb97e"/><path d="m213.097 66c11.504-14.739 30.969-22.522 53.702-24.347-3.529-.283-7.132-.431-10.8-.431-27.291 0-51.199 7.739-64.49 24.756.004.008.008.015.012.022z" fill="#fea95c"/><path d="m202 140.402v-39.328c0-6.616.868-12.624 2.465-18.074h-16.465l-7.599 18.074v39.328c0 41.751 33.847 75.598 75.598 75.598 3.668 0 7.27-.275 10.8-.78-36.634-5.243-64.799-36.735-64.799-74.818z" fill="#fea95c"/><path d="m255.999 20c-41.751 0-75.598 18.101-75.598 59.852v21.222l7.599-18.074h136l7.598 18.074v-21.222c0-41.751-33.848-59.852-75.599-59.852zm-64.478 46c13.29-17.022 37.183-24.778 64.478-24.778 27.303 0 51.221 7.745 64.509 24.778z" fill="#0078c8"/><path d="m196.804 79.852c0-4.951.491-9.557 1.399-13.852h-6.681c2.747-3.519 5.953-6.635 9.542-9.375 9.463-23.191 33.774-34.622 63.137-36.378-2.695-.161-5.429-.247-8.201-.247-41.751 0-75.598 18.101-75.598 59.852v21.222l7.598-18.074h8.804z" fill="#015a9a"/><path d="m263.478 161.547h-9.958c-6.893 0-12.5-5.607-12.5-12.5v-18.619c0-4.142 3.358-7.5 7.5-7.5s7.5 3.358 7.5 7.5v16.119h7.458c4.143 0 7.5 3.358 7.5 7.5s-3.357 7.5-7.5 7.5z" fill="#eb6000"/><path d="m274.107 189.102h-36.216c-4.142 0-7.5-3.358-7.5-7.5s3.358-7.5 7.5-7.5h36.216c4.143 0 7.5 3.358 7.5 7.5s-3.357 7.5-7.5 7.5z" fill="#eb6000"/><path d="m229.625 102.5h-26.767c-4.142 0-7.5-3.358-7.5-7.5s3.358-7.5 7.5-7.5h26.767c4.142 0 7.5 3.358 7.5 7.5s-3.358 7.5-7.5 7.5z" fill="#433f43"/><path d="m309.142 102.5h-26.768c-4.143 0-7.5-3.358-7.5-7.5s3.357-7.5 7.5-7.5h26.768c4.143 0 7.5 3.358 7.5 7.5s-3.358 7.5-7.5 7.5z" fill="#433f43"/><path d="m295.917 113.107c-5.5 0-10 4.5-10 10v15.428c0 5.5 4.5 10 10 10h3.619c5.5 0 10-4.5 10-10v-15.428c0-5.5-4.5-10-10-10z" fill="#554e56"/><path d="m212.464 113.107c-5.5 0-10 4.5-10 10v15.428c0 5.5 4.5 10 10 10h3.618c5.5 0 10-4.5 10-10v-15.428c0-5.5-4.5-10-10-10z" fill="#554e56"/><path d="m195.692 235.296v191.92c14.4-4.708 24.808-18.243 24.808-34.217v-67.832c-5.988-7.651-9.567-17.277-9.567-27.746v-63.571c-5.09.413-10.17.901-15.241 1.446z" fill="#fff"/><path d="m301.067 297.422c0 10.469-3.579 20.096-9.567 27.746v67.832c0 15.974 10.407 29.509 24.808 34.217v-191.92c-5.07-.545-10.151-1.034-15.239-1.446z" fill="#fff"/><path d="m274.524 473c-.497 0-.996-.118-1.453-.359l-17.071-8.975-17.072 8.975c-.456.24-.956.359-1.453.359-.648 0-1.292-.201-1.836-.597-.962-.699-1.443-1.883-1.243-3.055l3.26-19.009-13.811-13.462c-.851-.83-1.158-2.071-.79-3.202.367-1.131 1.344-1.955 2.521-2.126l19.086-2.773 8.535-17.295c.527-1.066 1.613-1.741 2.802-1.741s2.275.675 2.801 1.741l8.536 17.295 19.087 2.773c1.176.171 2.153.995 2.522 2.126.367 1.131.061 2.372-.79 3.202l-13.813 13.462 3.261 19.009c.201 1.172-.281 2.356-1.243 3.055-.544.396-1.188.597-1.836.597z" fill="#fff"/><path d="m250.494 463.61 3.26-19.009-13.811-13.462c-.441-.431-.733-.973-.863-1.552l-13.503 1.962c-1.177.171-2.154.995-2.521 2.126-.368 1.131-.061 2.372.79 3.202l13.811 13.462-3.26 19.009c-.201 1.172.281 2.356 1.243 3.055.544.396 1.189.597 1.836.597.497 0 .997-.119 1.453-.359l12.29-6.461c-.606-.698-.886-1.636-.725-2.57z" fill="#e3f3ff"/></svg>